M48
; DRILL file {KiCad (5.1.0)-1} date 09/07/2019 21:43:57
; FORMAT={-:-/ absolute / metric / decimal}
; #@! TF.CreationDate,2019-07-09T21:43:57+02:00
; #@! TF.GenerationSoftware,Kicad,Pcbnew,(5.1.0)-1
; #@! TF.FileFunction,Plated,1,2,PTH
FMAT,2
METRIC
T1C0.400
T2C1.000
T3C1.200
T4C2.500
%
G90
G05
T1
X45.72Y-38.1
X45.72Y-43.18
X60.96Y-38.1
X76.2Y-53.34
X78.74Y-55.88
X82.55Y-29.21
X83.82Y-31.75
X86.36Y-50.7
X86.36Y-58.42
X88.9Y-53.34
X91.44Y-31.75
X91.44Y-60.96
X95.25Y-49.53
X96.52Y-53.34
X96.52Y-58.42
X99.06Y-54.61
X101.6Y-31.75
X101.6Y-50.8
X101.6Y-60.96
X102.87Y-25.4
X106.68Y-31.75
X106.68Y-60.96
X109.22Y-34.29
T2
X129.54Y-31.75
X129.54Y-37.25
X132.08Y-31.75
X132.08Y-37.25
X133.26Y-39.15
X55.225Y-29.78
X55.225Y-29.78
X55.225Y-32.32
X55.225Y-32.32
X55.225Y-34.86
X55.225Y-34.86
X55.225Y-37.4
X55.225Y-37.4
X55.225Y-39.94
X55.225Y-39.94
X55.225Y-42.48
X55.225Y-42.48
X55.225Y-45.02
X55.225Y-45.02
X55.225Y-47.56
X55.225Y-47.56
X55.225Y-50.1
X55.225Y-50.1
X55.225Y-52.64
X55.225Y-52.64
X55.225Y-55.18
X55.225Y-55.18
X55.225Y-57.72
X55.225Y-57.72
X55.225Y-60.26
X55.225Y-60.26
X55.225Y-62.8
X55.225Y-62.8
X55.225Y-65.34
X55.225Y-65.34
X80.925Y-29.68
X80.925Y-29.68
X80.925Y-32.22
X80.925Y-32.22
X80.925Y-34.76
X80.925Y-34.76
X80.925Y-37.3
X80.925Y-37.3
X80.925Y-39.84
X80.925Y-39.84
X80.925Y-42.38
X80.925Y-42.38
X80.925Y-44.92
X80.925Y-44.92
X80.925Y-47.46
X80.925Y-47.46
X80.925Y-50.0
X80.925Y-50.0
X80.925Y-52.54
X80.925Y-52.54
X80.925Y-55.08
X80.925Y-55.08
X80.925Y-57.62
X80.925Y-57.62
X80.925Y-60.16
X80.925Y-60.16
X80.925Y-62.7
X80.925Y-62.7
X80.925Y-65.24
X80.925Y-65.24
X128.9Y-62.02
X128.9Y-67.52
X131.44Y-62.02
X131.44Y-67.52
X132.62Y-69.42
T3
X111.76Y-27.94
X106.68Y-27.94
X86.36Y-22.86
X127.0Y-44.45
X133.35Y-57.15
X99.06Y-71.12
X43.18Y-30.48
X43.18Y-66.04
X43.18Y-60.96
X91.44Y-22.86
X128.27Y-57.15
X43.18Y-35.56
X132.08Y-26.67
X43.18Y-40.64
X111.76Y-48.29
X93.98Y-71.12
X116.84Y-22.86
X111.76Y-22.86
X127.0Y-26.67
X106.68Y-22.86
X43.18Y-45.72
X128.27Y-74.93
X43.18Y-25.4
X111.76Y-53.34
X116.84Y-27.94
T4
X128.91Y-34.5
X132.71Y-34.5
X128.27Y-64.77
X132.07Y-64.77
T0
M30
