G04 #@! TF.GenerationSoftware,KiCad,Pcbnew,(6.0.9)*
G04 #@! TF.CreationDate,2022-12-05T14:11:37+01:00*
G04 #@! TF.ProjectId,PP,50502e6b-6963-4616-945f-706362585858,rev?*
G04 #@! TF.SameCoordinates,Original*
G04 #@! TF.FileFunction,Copper,L2,Bot*
G04 #@! TF.FilePolarity,Positive*
%FSLAX46Y46*%
G04 Gerber Fmt 4.6, Leading zero omitted, Abs format (unit mm)*
G04 Created by KiCad (PCBNEW (6.0.9)) date 2022-12-05 14:11:37*
%MOMM*%
%LPD*%
G01*
G04 APERTURE LIST*
G04 #@! TA.AperFunction,SMDPad,CuDef*
%ADD10R,2.000000X3.500000*%
G04 #@! TD*
G04 #@! TA.AperFunction,ComponentPad*
%ADD11C,0.500000*%
G04 #@! TD*
G04 #@! TA.AperFunction,ComponentPad*
%ADD12C,0.475000*%
G04 #@! TD*
G04 #@! TA.AperFunction,ComponentPad*
%ADD13C,2.400000*%
G04 #@! TD*
G04 #@! TA.AperFunction,ComponentPad*
%ADD14O,1.450000X2.000000*%
G04 #@! TD*
G04 #@! TA.AperFunction,ComponentPad*
%ADD15O,1.150000X1.800000*%
G04 #@! TD*
G04 #@! TA.AperFunction,ViaPad*
%ADD16C,0.800000*%
G04 #@! TD*
G04 #@! TA.AperFunction,Conductor*
%ADD17C,0.250000*%
G04 #@! TD*
G04 APERTURE END LIST*
D10*
X138570000Y-56515000D03*
D11*
X137820000Y-55015000D03*
X137820000Y-58015000D03*
X139320000Y-55015000D03*
X137820000Y-56515000D03*
X139320000Y-58015000D03*
X139320000Y-56515000D03*
D12*
X106680000Y-63807500D03*
X108967500Y-66095000D03*
X108967500Y-63045000D03*
X106680000Y-65332500D03*
X107442500Y-66095000D03*
X107442500Y-63045000D03*
X109730000Y-63807500D03*
X108205000Y-65332500D03*
X108967500Y-64570000D03*
X107442500Y-64570000D03*
X109730000Y-65332500D03*
X108205000Y-63807500D03*
D13*
X147000000Y-63000000D03*
X147000000Y-68000000D03*
D14*
X125285000Y-45970000D03*
X132735000Y-45970000D03*
D15*
X125135000Y-49770000D03*
X132885000Y-49770000D03*
D13*
X147000000Y-46000000D03*
X147000000Y-51000000D03*
X145000000Y-81200000D03*
X145000000Y-76000000D03*
X147000000Y-55000000D03*
D16*
X142000000Y-61000000D03*
X144000000Y-66000000D03*
X146000000Y-66000000D03*
X104000000Y-59224500D03*
X137725500Y-68000000D03*
X144000000Y-67000000D03*
X144000000Y-63000000D03*
X142000000Y-63000000D03*
X134000000Y-51000000D03*
X132000000Y-56000000D03*
X127948792Y-67051208D03*
X129000000Y-63000000D03*
X143000000Y-55000000D03*
X123000000Y-74000000D03*
X133000000Y-72000000D03*
X144000000Y-72000000D03*
X133000000Y-62000000D03*
X133000000Y-69000000D03*
X133858399Y-66141601D03*
X135000000Y-61000000D03*
X119000000Y-70000000D03*
X110987701Y-76987701D03*
X110000000Y-70000000D03*
X112000000Y-77000000D03*
X111000000Y-73000000D03*
X108000000Y-82000000D03*
X119000000Y-74000000D03*
X119000000Y-76000000D03*
X127000000Y-63000000D03*
X142000000Y-73000000D03*
X137000000Y-78000000D03*
X140000000Y-80000000D03*
X140000000Y-70000000D03*
X137000000Y-70000000D03*
X140000000Y-65000000D03*
X119000000Y-80000000D03*
X103000000Y-61000000D03*
X120000000Y-58000000D03*
X135000000Y-53000000D03*
X144000000Y-52000000D03*
X121000000Y-76000000D03*
X121000000Y-73000000D03*
X120000000Y-65000000D03*
X114000000Y-65000000D03*
X115947812Y-57198005D03*
X102096189Y-57248101D03*
X103000000Y-73000000D03*
D17*
X142000000Y-60695000D02*
X142000000Y-61000000D01*
X139320000Y-58015000D02*
X142000000Y-60695000D01*
X147000000Y-58000000D02*
X147000000Y-55000000D01*
X145475000Y-59525000D02*
X147000000Y-58000000D01*
X145475000Y-65475000D02*
X145475000Y-59525000D01*
X146000000Y-66000000D02*
X145475000Y-65475000D01*
X142410000Y-66000000D02*
X144000000Y-66000000D01*
X137000000Y-60590000D02*
X142410000Y-66000000D01*
X104000000Y-59224500D02*
X104000000Y-59151912D01*
X104000000Y-59151912D02*
X102096189Y-57248101D01*
X137725500Y-68000000D02*
X143000000Y-68000000D01*
X143000000Y-68000000D02*
X144000000Y-67000000D01*
X144000000Y-63000000D02*
X142000000Y-63000000D01*
X132000000Y-53000000D02*
X134000000Y-51000000D01*
X132000000Y-56000000D02*
X132000000Y-53000000D01*
X129000000Y-66000000D02*
X127948792Y-67051208D01*
X129000000Y-63000000D02*
X129000000Y-66000000D01*
X146525000Y-74100305D02*
X145000000Y-72575305D01*
X145000000Y-57000000D02*
X143000000Y-55000000D01*
X145000000Y-72575305D02*
X145000000Y-57000000D01*
X146525000Y-76631676D02*
X146525000Y-74100305D01*
X145156676Y-78000000D02*
X146525000Y-76631676D01*
X137000000Y-78000000D02*
X145156676Y-78000000D01*
X141000000Y-74000000D02*
X142000000Y-73000000D01*
X123000000Y-74000000D02*
X141000000Y-74000000D01*
X144000000Y-72000000D02*
X133000000Y-72000000D01*
X135590000Y-62000000D02*
X137000000Y-60590000D01*
X133000000Y-62000000D02*
X135590000Y-62000000D01*
X133000000Y-67000000D02*
X133000000Y-69000000D01*
X133858399Y-66141601D02*
X133000000Y-67000000D01*
X119000000Y-70000000D02*
X119000000Y-69974695D01*
X119000000Y-69974695D02*
X127974695Y-61000000D01*
X127974695Y-61000000D02*
X135000000Y-61000000D01*
X112000000Y-77000000D02*
X112000000Y-72000000D01*
X112000000Y-72000000D02*
X110000000Y-70000000D01*
X108000000Y-82000000D02*
X108000000Y-76000000D01*
X108000000Y-76000000D02*
X111000000Y-73000000D01*
X119000000Y-76000000D02*
X119000000Y-74000000D01*
X145000000Y-76000000D02*
X142000000Y-73000000D01*
X139000000Y-80000000D02*
X137000000Y-78000000D01*
X140000000Y-80000000D02*
X139000000Y-80000000D01*
X104000000Y-61000000D02*
X103000000Y-61000000D01*
X107000000Y-58000000D02*
X104000000Y-61000000D01*
X120000000Y-58000000D02*
X107000000Y-58000000D01*
X144000000Y-52000000D02*
X136000000Y-52000000D01*
X136000000Y-52000000D02*
X135000000Y-53000000D01*
X121000000Y-73000000D02*
X121000000Y-76000000D01*
X120000000Y-65000000D02*
X114000000Y-65000000D01*
G04 #@! TA.AperFunction,Conductor*
G36*
X149433621Y-43920002D02*
G01*
X149480114Y-43973658D01*
X149491500Y-44026000D01*
X149491500Y-84365500D01*
X149471498Y-84433621D01*
X149417842Y-84480114D01*
X149365500Y-84491500D01*
X94634500Y-84491500D01*
X94566379Y-84471498D01*
X94519886Y-84417842D01*
X94508500Y-84365500D01*
X94508500Y-82000000D01*
X107086496Y-82000000D01*
X107106458Y-82189928D01*
X107165473Y-82371556D01*
X107260960Y-82536944D01*
X107265378Y-82541851D01*
X107265379Y-82541852D01*
X107305204Y-82586082D01*
X107388747Y-82678866D01*
X107543248Y-82791118D01*
X107549276Y-82793802D01*
X107549278Y-82793803D01*
X107610674Y-82821138D01*
X107717712Y-82868794D01*
X107794482Y-82885112D01*
X107898056Y-82907128D01*
X107898061Y-82907128D01*
X107904513Y-82908500D01*
X108095487Y-82908500D01*
X108101939Y-82907128D01*
X108101944Y-82907128D01*
X108205518Y-82885112D01*
X108282288Y-82868794D01*
X108389326Y-82821138D01*
X108450722Y-82793803D01*
X108450724Y-82793802D01*
X108456752Y-82791118D01*
X108611253Y-82678866D01*
X108694796Y-82586082D01*
X108734621Y-82541852D01*
X108734622Y-82541851D01*
X108739040Y-82536944D01*
X108834527Y-82371556D01*
X108893542Y-82189928D01*
X108913504Y-82000000D01*
X108903097Y-81900984D01*
X108894232Y-81816635D01*
X108894232Y-81816633D01*
X108893542Y-81810072D01*
X108834527Y-81628444D01*
X108739040Y-81463056D01*
X108665863Y-81381785D01*
X108635147Y-81317779D01*
X108633500Y-81297476D01*
X108633500Y-81155151D01*
X143287296Y-81155151D01*
X143299480Y-81408798D01*
X143310273Y-81463056D01*
X143344421Y-81634729D01*
X143349021Y-81657857D01*
X143350600Y-81662255D01*
X143350602Y-81662262D01*
X143406028Y-81816635D01*
X143434831Y-81896858D01*
X143555025Y-82120551D01*
X143557820Y-82124294D01*
X143557822Y-82124297D01*
X143704171Y-82320282D01*
X143704176Y-82320288D01*
X143706963Y-82324020D01*
X143710272Y-82327300D01*
X143710277Y-82327306D01*
X143808859Y-82425031D01*
X143887307Y-82502797D01*
X143891069Y-82505555D01*
X143891072Y-82505558D01*
X143940571Y-82541852D01*
X144092094Y-82652953D01*
X144096229Y-82655129D01*
X144096233Y-82655131D01*
X144214289Y-82717243D01*
X144316827Y-82771191D01*
X144556568Y-82854912D01*
X144806050Y-82902278D01*
X144926532Y-82907011D01*
X145055125Y-82912064D01*
X145055130Y-82912064D01*
X145059793Y-82912247D01*
X145158774Y-82901407D01*
X145307569Y-82885112D01*
X145307575Y-82885111D01*
X145312222Y-82884602D01*
X145367054Y-82870166D01*
X145553273Y-82821138D01*
X145557793Y-82819948D01*
X145676353Y-82769011D01*
X145786807Y-82721557D01*
X145786810Y-82721555D01*
X145791110Y-82719708D01*
X145795090Y-82717245D01*
X145795094Y-82717243D01*
X146003064Y-82588547D01*
X146003066Y-82588545D01*
X146007047Y-82586082D01*
X146059294Y-82541852D01*
X146197289Y-82425031D01*
X146197291Y-82425029D01*
X146200862Y-82422006D01*
X146368295Y-82231084D01*
X146390730Y-82196206D01*
X146503141Y-82021442D01*
X146505669Y-82017512D01*
X146609967Y-81785980D01*
X146678896Y-81541575D01*
X146699224Y-81381787D01*
X146710545Y-81292798D01*
X146710545Y-81292792D01*
X146710943Y-81289667D01*
X146713291Y-81200000D01*
X146694472Y-80946759D01*
X146685505Y-80907128D01*
X146639459Y-80703639D01*
X146638428Y-80699082D01*
X146636735Y-80694728D01*
X146548084Y-80466762D01*
X146548083Y-80466760D01*
X146546391Y-80462409D01*
X146544073Y-80458353D01*
X146422702Y-80245997D01*
X146422700Y-80245995D01*
X146420383Y-80241940D01*
X146263171Y-80042517D01*
X146078209Y-79868523D01*
X145993952Y-79810072D01*
X145873393Y-79726437D01*
X145873390Y-79726435D01*
X145869561Y-79723779D01*
X145865384Y-79721719D01*
X145865377Y-79721715D01*
X145645996Y-79613528D01*
X145645992Y-79613527D01*
X145641810Y-79611464D01*
X145399960Y-79534047D01*
X145395355Y-79533297D01*
X145153935Y-79493980D01*
X145153934Y-79493980D01*
X145149323Y-79493229D01*
X145022364Y-79491567D01*
X144900083Y-79489966D01*
X144900080Y-79489966D01*
X144895406Y-79489905D01*
X144643787Y-79524149D01*
X144399993Y-79595208D01*
X144169380Y-79701522D01*
X144165471Y-79704085D01*
X143960928Y-79838189D01*
X143960923Y-79838193D01*
X143957015Y-79840755D01*
X143862288Y-79925302D01*
X143778596Y-80000000D01*
X143767562Y-80009848D01*
X143605183Y-80205087D01*
X143473447Y-80422182D01*
X143471638Y-80426496D01*
X143471637Y-80426498D01*
X143382855Y-80638220D01*
X143375246Y-80656365D01*
X143374095Y-80660897D01*
X143374094Y-80660900D01*
X143369531Y-80678866D01*
X143312738Y-80902490D01*
X143287296Y-81155151D01*
X108633500Y-81155151D01*
X108633500Y-76314594D01*
X108653502Y-76246473D01*
X108670405Y-76225499D01*
X110950499Y-73945405D01*
X111012811Y-73911379D01*
X111039594Y-73908500D01*
X111095487Y-73908500D01*
X111101939Y-73907128D01*
X111101944Y-73907128D01*
X111214303Y-73883245D01*
X111285094Y-73888647D01*
X111341727Y-73931464D01*
X111366220Y-73998102D01*
X111366500Y-74006492D01*
X111366500Y-76297476D01*
X111346498Y-76365597D01*
X111334142Y-76381779D01*
X111260960Y-76463056D01*
X111257659Y-76468774D01*
X111184283Y-76595865D01*
X111165473Y-76628444D01*
X111106458Y-76810072D01*
X111105768Y-76816633D01*
X111105768Y-76816635D01*
X111096429Y-76905489D01*
X111086496Y-77000000D01*
X111087186Y-77006565D01*
X111098888Y-77117899D01*
X111106458Y-77189928D01*
X111165473Y-77371556D01*
X111260960Y-77536944D01*
X111388747Y-77678866D01*
X111543248Y-77791118D01*
X111549276Y-77793802D01*
X111549278Y-77793803D01*
X111600560Y-77816635D01*
X111717712Y-77868794D01*
X111811113Y-77888647D01*
X111898056Y-77907128D01*
X111898061Y-77907128D01*
X111904513Y-77908500D01*
X112095487Y-77908500D01*
X112101939Y-77907128D01*
X112101944Y-77907128D01*
X112188887Y-77888647D01*
X112282288Y-77868794D01*
X112399440Y-77816635D01*
X112450722Y-77793803D01*
X112450724Y-77793802D01*
X112456752Y-77791118D01*
X112611253Y-77678866D01*
X112739040Y-77536944D01*
X112834527Y-77371556D01*
X112893542Y-77189928D01*
X112901113Y-77117899D01*
X112912814Y-77006565D01*
X112913504Y-77000000D01*
X112903571Y-76905489D01*
X112894232Y-76816635D01*
X112894232Y-76816633D01*
X112893542Y-76810072D01*
X112834527Y-76628444D01*
X112815718Y-76595865D01*
X112742341Y-76468774D01*
X112739040Y-76463056D01*
X112665863Y-76381785D01*
X112635147Y-76317779D01*
X112633500Y-76297476D01*
X112633500Y-76000000D01*
X118086496Y-76000000D01*
X118087186Y-76006565D01*
X118102993Y-76156956D01*
X118106458Y-76189928D01*
X118165473Y-76371556D01*
X118260960Y-76536944D01*
X118265378Y-76541851D01*
X118265379Y-76541852D01*
X118319364Y-76601808D01*
X118388747Y-76678866D01*
X118543248Y-76791118D01*
X118549276Y-76793802D01*
X118549278Y-76793803D01*
X118695835Y-76859054D01*
X118717712Y-76868794D01*
X118811112Y-76888647D01*
X118898056Y-76907128D01*
X118898061Y-76907128D01*
X118904513Y-76908500D01*
X119095487Y-76908500D01*
X119101939Y-76907128D01*
X119101944Y-76907128D01*
X119188888Y-76888647D01*
X119282288Y-76868794D01*
X119304165Y-76859054D01*
X119450722Y-76793803D01*
X119450724Y-76793802D01*
X119456752Y-76791118D01*
X119611253Y-76678866D01*
X119680636Y-76601808D01*
X119734621Y-76541852D01*
X119734622Y-76541851D01*
X119739040Y-76536944D01*
X119834527Y-76371556D01*
X119880167Y-76231090D01*
X119920241Y-76172486D01*
X119985637Y-76144849D01*
X120055594Y-76156956D01*
X120107900Y-76204962D01*
X120119832Y-76231089D01*
X120165473Y-76371556D01*
X120260960Y-76536944D01*
X120265378Y-76541851D01*
X120265379Y-76541852D01*
X120319364Y-76601808D01*
X120388747Y-76678866D01*
X120543248Y-76791118D01*
X120549276Y-76793802D01*
X120549278Y-76793803D01*
X120695835Y-76859054D01*
X120717712Y-76868794D01*
X120811112Y-76888647D01*
X120898056Y-76907128D01*
X120898061Y-76907128D01*
X120904513Y-76908500D01*
X121095487Y-76908500D01*
X121101939Y-76907128D01*
X121101944Y-76907128D01*
X121188888Y-76888647D01*
X121282288Y-76868794D01*
X121304165Y-76859054D01*
X121450722Y-76793803D01*
X121450724Y-76793802D01*
X121456752Y-76791118D01*
X121611253Y-76678866D01*
X121680636Y-76601808D01*
X121734621Y-76541852D01*
X121734622Y-76541851D01*
X121739040Y-76536944D01*
X121834527Y-76371556D01*
X121893542Y-76189928D01*
X121897008Y-76156956D01*
X121912814Y-76006565D01*
X121913504Y-76000000D01*
X121904285Y-75912289D01*
X121894232Y-75816635D01*
X121894232Y-75816633D01*
X121893542Y-75810072D01*
X121834527Y-75628444D01*
X121739040Y-75463056D01*
X121665863Y-75381785D01*
X121635147Y-75317779D01*
X121633500Y-75297476D01*
X121633500Y-73702524D01*
X121653502Y-73634403D01*
X121665858Y-73618221D01*
X121739040Y-73536944D01*
X121834527Y-73371556D01*
X121893542Y-73189928D01*
X121913504Y-73000000D01*
X121905463Y-72923497D01*
X121894232Y-72816635D01*
X121894232Y-72816633D01*
X121893542Y-72810072D01*
X121834527Y-72628444D01*
X121739040Y-72463056D01*
X121637069Y-72349805D01*
X121615675Y-72326045D01*
X121615674Y-72326044D01*
X121611253Y-72321134D01*
X121456752Y-72208882D01*
X121450724Y-72206198D01*
X121450722Y-72206197D01*
X121288319Y-72133891D01*
X121288318Y-72133891D01*
X121282288Y-72131206D01*
X121188888Y-72111353D01*
X121101944Y-72092872D01*
X121101939Y-72092872D01*
X121095487Y-72091500D01*
X120904513Y-72091500D01*
X120898061Y-72092872D01*
X120898056Y-72092872D01*
X120811112Y-72111353D01*
X120717712Y-72131206D01*
X120711682Y-72133891D01*
X120711681Y-72133891D01*
X120549278Y-72206197D01*
X120549276Y-72206198D01*
X120543248Y-72208882D01*
X120388747Y-72321134D01*
X120384326Y-72326044D01*
X120384325Y-72326045D01*
X120362932Y-72349805D01*
X120260960Y-72463056D01*
X120165473Y-72628444D01*
X120106458Y-72810072D01*
X120105768Y-72816633D01*
X120105768Y-72816635D01*
X120094537Y-72923497D01*
X120086496Y-73000000D01*
X120106458Y-73189928D01*
X120165473Y-73371556D01*
X120260960Y-73536944D01*
X120334137Y-73618215D01*
X120364853Y-73682221D01*
X120366500Y-73702524D01*
X120366500Y-75297476D01*
X120346498Y-75365597D01*
X120334142Y-75381779D01*
X120260960Y-75463056D01*
X120165473Y-75628444D01*
X120121123Y-75764940D01*
X120119833Y-75768909D01*
X120079759Y-75827514D01*
X120014363Y-75855151D01*
X119944406Y-75843044D01*
X119892100Y-75795038D01*
X119880167Y-75768909D01*
X119878878Y-75764940D01*
X119834527Y-75628444D01*
X119739040Y-75463056D01*
X119665863Y-75381785D01*
X119635147Y-75317779D01*
X119633500Y-75297476D01*
X119633500Y-74702524D01*
X119653502Y-74634403D01*
X119665858Y-74618221D01*
X119739040Y-74536944D01*
X119818581Y-74399175D01*
X119831223Y-74377279D01*
X119831224Y-74377278D01*
X119834527Y-74371556D01*
X119893542Y-74189928D01*
X119895611Y-74170248D01*
X119912814Y-74006565D01*
X119913504Y-74000000D01*
X119909468Y-73961598D01*
X119894232Y-73816635D01*
X119894232Y-73816633D01*
X119893542Y-73810072D01*
X119834527Y-73628444D01*
X119739040Y-73463056D01*
X119649509Y-73363621D01*
X119615675Y-73326045D01*
X119615674Y-73326044D01*
X119611253Y-73321134D01*
X119456752Y-73208882D01*
X119450724Y-73206198D01*
X119450722Y-73206197D01*
X119288319Y-73133891D01*
X119288318Y-73133891D01*
X119282288Y-73131206D01*
X119188887Y-73111353D01*
X119101944Y-73092872D01*
X119101939Y-73092872D01*
X119095487Y-73091500D01*
X118904513Y-73091500D01*
X118898061Y-73092872D01*
X118898056Y-73092872D01*
X118811113Y-73111353D01*
X118717712Y-73131206D01*
X118711682Y-73133891D01*
X118711681Y-73133891D01*
X118549278Y-73206197D01*
X118549276Y-73206198D01*
X118543248Y-73208882D01*
X118388747Y-73321134D01*
X118384326Y-73326044D01*
X118384325Y-73326045D01*
X118350492Y-73363621D01*
X118260960Y-73463056D01*
X118165473Y-73628444D01*
X118106458Y-73810072D01*
X118105768Y-73816633D01*
X118105768Y-73816635D01*
X118090532Y-73961598D01*
X118086496Y-74000000D01*
X118087186Y-74006565D01*
X118104390Y-74170248D01*
X118106458Y-74189928D01*
X118165473Y-74371556D01*
X118168776Y-74377278D01*
X118168777Y-74377279D01*
X118181419Y-74399175D01*
X118260960Y-74536944D01*
X118334137Y-74618215D01*
X118364853Y-74682221D01*
X118366500Y-74702524D01*
X118366500Y-75297476D01*
X118346498Y-75365597D01*
X118334142Y-75381779D01*
X118260960Y-75463056D01*
X118165473Y-75628444D01*
X118106458Y-75810072D01*
X118105768Y-75816633D01*
X118105768Y-75816635D01*
X118095715Y-75912289D01*
X118086496Y-76000000D01*
X112633500Y-76000000D01*
X112633500Y-72078767D01*
X112634027Y-72067584D01*
X112635702Y-72060091D01*
X112633562Y-71992014D01*
X112633500Y-71988055D01*
X112633500Y-71960144D01*
X112632995Y-71956144D01*
X112632062Y-71944301D01*
X112630922Y-71908029D01*
X112630673Y-71900110D01*
X112625022Y-71880658D01*
X112621014Y-71861306D01*
X112619467Y-71849063D01*
X112618474Y-71841203D01*
X112615556Y-71833832D01*
X112602200Y-71800097D01*
X112598355Y-71788870D01*
X112597721Y-71786687D01*
X112586018Y-71746407D01*
X112575707Y-71728972D01*
X112567012Y-71711224D01*
X112559552Y-71692383D01*
X112533564Y-71656613D01*
X112527048Y-71646693D01*
X112508580Y-71615465D01*
X112508578Y-71615462D01*
X112504542Y-71608638D01*
X112490221Y-71594317D01*
X112477380Y-71579283D01*
X112470131Y-71569306D01*
X112465472Y-71562893D01*
X112431395Y-71534702D01*
X112422616Y-71526712D01*
X110947122Y-70051217D01*
X110919155Y-70000000D01*
X118086496Y-70000000D01*
X118106458Y-70189928D01*
X118165473Y-70371556D01*
X118260960Y-70536944D01*
X118388747Y-70678866D01*
X118543248Y-70791118D01*
X118549276Y-70793802D01*
X118549278Y-70793803D01*
X118711681Y-70866109D01*
X118717712Y-70868794D01*
X118811113Y-70888647D01*
X118898056Y-70907128D01*
X118898061Y-70907128D01*
X118904513Y-70908500D01*
X119095487Y-70908500D01*
X119101939Y-70907128D01*
X119101944Y-70907128D01*
X119188887Y-70888647D01*
X119282288Y-70868794D01*
X119288319Y-70866109D01*
X119450722Y-70793803D01*
X119450724Y-70793802D01*
X119456752Y-70791118D01*
X119611253Y-70678866D01*
X119739040Y-70536944D01*
X119834527Y-70371556D01*
X119893542Y-70189928D01*
X119913504Y-70000000D01*
X119915676Y-70000228D01*
X119932816Y-69941854D01*
X119949719Y-69920880D01*
X120870599Y-69000000D01*
X132086496Y-69000000D01*
X132106458Y-69189928D01*
X132165473Y-69371556D01*
X132168776Y-69377278D01*
X132168777Y-69377279D01*
X132175283Y-69388547D01*
X132260960Y-69536944D01*
X132265378Y-69541851D01*
X132265379Y-69541852D01*
X132338194Y-69622721D01*
X132388747Y-69678866D01*
X132543248Y-69791118D01*
X132549276Y-69793802D01*
X132549278Y-69793803D01*
X132600560Y-69816635D01*
X132717712Y-69868794D01*
X132811112Y-69888647D01*
X132898056Y-69907128D01*
X132898061Y-69907128D01*
X132904513Y-69908500D01*
X133095487Y-69908500D01*
X133101939Y-69907128D01*
X133101944Y-69907128D01*
X133188888Y-69888647D01*
X133282288Y-69868794D01*
X133399440Y-69816635D01*
X133450722Y-69793803D01*
X133450724Y-69793802D01*
X133456752Y-69791118D01*
X133611253Y-69678866D01*
X133661806Y-69622721D01*
X133734621Y-69541852D01*
X133734622Y-69541851D01*
X133739040Y-69536944D01*
X133824717Y-69388547D01*
X133831223Y-69377279D01*
X133831224Y-69377278D01*
X133834527Y-69371556D01*
X133893542Y-69189928D01*
X133913504Y-69000000D01*
X133893542Y-68810072D01*
X133834527Y-68628444D01*
X133830955Y-68622256D01*
X133747310Y-68477380D01*
X133739040Y-68463056D01*
X133665863Y-68381785D01*
X133635147Y-68317779D01*
X133633500Y-68297476D01*
X133633500Y-67314594D01*
X133653502Y-67246473D01*
X133670405Y-67225499D01*
X133808898Y-67087006D01*
X133871210Y-67052980D01*
X133897993Y-67050101D01*
X133953886Y-67050101D01*
X133960338Y-67048729D01*
X133960343Y-67048729D01*
X134076864Y-67023961D01*
X134140687Y-67010395D01*
X134164035Y-67000000D01*
X134309121Y-66935404D01*
X134309123Y-66935403D01*
X134315151Y-66932719D01*
X134332699Y-66919970D01*
X134404445Y-66867843D01*
X134469652Y-66820467D01*
X134510948Y-66774603D01*
X134593020Y-66683453D01*
X134593021Y-66683452D01*
X134597439Y-66678545D01*
X134661743Y-66567168D01*
X134689622Y-66518880D01*
X134689623Y-66518879D01*
X134692926Y-66513157D01*
X134751941Y-66331529D01*
X134755967Y-66293229D01*
X134771213Y-66148166D01*
X134771903Y-66141601D01*
X134764705Y-66073112D01*
X134752631Y-65958236D01*
X134752631Y-65958234D01*
X134751941Y-65951673D01*
X134692926Y-65770045D01*
X134679226Y-65746315D01*
X134644059Y-65685405D01*
X134597439Y-65604657D01*
X134469652Y-65462735D01*
X134344257Y-65371630D01*
X134320493Y-65354364D01*
X134320492Y-65354363D01*
X134315151Y-65350483D01*
X134309123Y-65347799D01*
X134309121Y-65347798D01*
X134146718Y-65275492D01*
X134146717Y-65275492D01*
X134140687Y-65272807D01*
X134047286Y-65252954D01*
X133960343Y-65234473D01*
X133960338Y-65234473D01*
X133953886Y-65233101D01*
X133762912Y-65233101D01*
X133756460Y-65234473D01*
X133756455Y-65234473D01*
X133669512Y-65252954D01*
X133576111Y-65272807D01*
X133570081Y-65275492D01*
X133570080Y-65275492D01*
X133407677Y-65347798D01*
X133407675Y-65347799D01*
X133401647Y-65350483D01*
X133396306Y-65354363D01*
X133396305Y-65354364D01*
X133372541Y-65371630D01*
X133247146Y-65462735D01*
X133119359Y-65604657D01*
X133072739Y-65685405D01*
X133037573Y-65746315D01*
X133023872Y-65770045D01*
X132964857Y-65951673D01*
X132964167Y-65958234D01*
X132964167Y-65958236D01*
X132960468Y-65993435D01*
X132947581Y-66116050D01*
X132947492Y-66116893D01*
X132920479Y-66182550D01*
X132911278Y-66192818D01*
X132755216Y-66348879D01*
X132607742Y-66496353D01*
X132599463Y-66503887D01*
X132592982Y-66508000D01*
X132565563Y-66537199D01*
X132546357Y-66557651D01*
X132543602Y-66560493D01*
X132523865Y-66580230D01*
X132521385Y-66583427D01*
X132513682Y-66592447D01*
X132483414Y-66624679D01*
X132479595Y-66631625D01*
X132479593Y-66631628D01*
X132473652Y-66642434D01*
X132462801Y-66658953D01*
X132450386Y-66674959D01*
X132447241Y-66682228D01*
X132447238Y-66682232D01*
X132432826Y-66715537D01*
X132427609Y-66726187D01*
X132406305Y-66764940D01*
X132404334Y-66772615D01*
X132404334Y-66772616D01*
X132401267Y-66784562D01*
X132394863Y-66803266D01*
X132386819Y-66821855D01*
X132385580Y-66829678D01*
X132385577Y-66829688D01*
X132379901Y-66865524D01*
X132377495Y-66877144D01*
X132366500Y-66919970D01*
X132366500Y-66940224D01*
X132364949Y-66959934D01*
X132361780Y-66979943D01*
X132362526Y-66987835D01*
X132365941Y-67023961D01*
X132366500Y-67035819D01*
X132366500Y-68297476D01*
X132346498Y-68365597D01*
X132334142Y-68381779D01*
X132260960Y-68463056D01*
X132252690Y-68477380D01*
X132169046Y-68622256D01*
X132165473Y-68628444D01*
X132106458Y-68810072D01*
X132086496Y-69000000D01*
X120870599Y-69000000D01*
X122819391Y-67051208D01*
X127035288Y-67051208D01*
X127035978Y-67057773D01*
X127053607Y-67225499D01*
X127055250Y-67241136D01*
X127114265Y-67422764D01*
X127209752Y-67588152D01*
X127337539Y-67730074D01*
X127354236Y-67742205D01*
X127456680Y-67816635D01*
X127492040Y-67842326D01*
X127498068Y-67845010D01*
X127498070Y-67845011D01*
X127551488Y-67868794D01*
X127666504Y-67920002D01*
X127759904Y-67939855D01*
X127846848Y-67958336D01*
X127846853Y-67958336D01*
X127853305Y-67959708D01*
X128044279Y-67959708D01*
X128050731Y-67958336D01*
X128050736Y-67958336D01*
X128137680Y-67939855D01*
X128231080Y-67920002D01*
X128346096Y-67868794D01*
X128399514Y-67845011D01*
X128399516Y-67845010D01*
X128405544Y-67842326D01*
X128440905Y-67816635D01*
X128543348Y-67742205D01*
X128560045Y-67730074D01*
X128687832Y-67588152D01*
X128783319Y-67422764D01*
X128842334Y-67241136D01*
X128843978Y-67225499D01*
X128858061Y-67091500D01*
X128859699Y-67075914D01*
X128886712Y-67010258D01*
X128895914Y-66999990D01*
X129392247Y-66503657D01*
X129400537Y-66496113D01*
X129407018Y-66492000D01*
X129453659Y-66442332D01*
X129456413Y-66439491D01*
X129476135Y-66419769D01*
X129478612Y-66416576D01*
X129486317Y-66407555D01*
X129511159Y-66381100D01*
X129516586Y-66375321D01*
X129520407Y-66368371D01*
X129526346Y-66357568D01*
X129537202Y-66341041D01*
X129544757Y-66331302D01*
X129544758Y-66331300D01*
X129549614Y-66325040D01*
X129567174Y-66284460D01*
X129572391Y-66273812D01*
X129589875Y-66242009D01*
X129589876Y-66242007D01*
X129593695Y-66235060D01*
X129598733Y-66215437D01*
X129605137Y-66196734D01*
X129610033Y-66185420D01*
X129610033Y-66185419D01*
X129613181Y-66178145D01*
X129614420Y-66170322D01*
X129614423Y-66170312D01*
X129620099Y-66134476D01*
X129622505Y-66122856D01*
X129631528Y-66087711D01*
X129631528Y-66087710D01*
X129633500Y-66080030D01*
X129633500Y-66059776D01*
X129635051Y-66040065D01*
X129636980Y-66027886D01*
X129638220Y-66020057D01*
X129634059Y-65976038D01*
X129633500Y-65964181D01*
X129633500Y-63702524D01*
X129653502Y-63634403D01*
X129665858Y-63618221D01*
X129739040Y-63536944D01*
X129823616Y-63390455D01*
X129831223Y-63377279D01*
X129831224Y-63377278D01*
X129834527Y-63371556D01*
X129893542Y-63189928D01*
X129897768Y-63149725D01*
X129912814Y-63006565D01*
X129913504Y-63000000D01*
X129893542Y-62810072D01*
X129834527Y-62628444D01*
X129830955Y-62622256D01*
X129762992Y-62504542D01*
X129739040Y-62463056D01*
X129710533Y-62431395D01*
X129615675Y-62326045D01*
X129615674Y-62326044D01*
X129611253Y-62321134D01*
X129456752Y-62208882D01*
X129450724Y-62206198D01*
X129450722Y-62206197D01*
X129288319Y-62133891D01*
X129288318Y-62133891D01*
X129282288Y-62131206D01*
X129173687Y-62108122D01*
X129101944Y-62092872D01*
X129101939Y-62092872D01*
X129095487Y-62091500D01*
X128904513Y-62091500D01*
X128898061Y-62092872D01*
X128898056Y-62092872D01*
X128826313Y-62108122D01*
X128717712Y-62131206D01*
X128711682Y-62133891D01*
X128711681Y-62133891D01*
X128549278Y-62206197D01*
X128549276Y-62206198D01*
X128543248Y-62208882D01*
X128388747Y-62321134D01*
X128384326Y-62326044D01*
X128384325Y-62326045D01*
X128289468Y-62431395D01*
X128260960Y-62463056D01*
X128237008Y-62504542D01*
X128169046Y-62622256D01*
X128165473Y-62628444D01*
X128106458Y-62810072D01*
X128086496Y-63000000D01*
X128087186Y-63006565D01*
X128102233Y-63149725D01*
X128106458Y-63189928D01*
X128165473Y-63371556D01*
X128168776Y-63377278D01*
X128168777Y-63377279D01*
X128176384Y-63390455D01*
X128260960Y-63536944D01*
X128334137Y-63618215D01*
X128364853Y-63682221D01*
X128366500Y-63702524D01*
X128366500Y-65685405D01*
X128346498Y-65753526D01*
X128329595Y-65774501D01*
X127998291Y-66105804D01*
X127935979Y-66139829D01*
X127909196Y-66142708D01*
X127853305Y-66142708D01*
X127846853Y-66144080D01*
X127846848Y-66144080D01*
X127783587Y-66157527D01*
X127666504Y-66182414D01*
X127660474Y-66185099D01*
X127660473Y-66185099D01*
X127498070Y-66257405D01*
X127498068Y-66257406D01*
X127492040Y-66260090D01*
X127337539Y-66372342D01*
X127333118Y-66377252D01*
X127333117Y-66377253D01*
X127219303Y-66503657D01*
X127209752Y-66514264D01*
X127169862Y-66583356D01*
X127122226Y-66665864D01*
X127114265Y-66679652D01*
X127055250Y-66861280D01*
X127054560Y-66867841D01*
X127054560Y-66867843D01*
X127047459Y-66935404D01*
X127035288Y-67051208D01*
X122819391Y-67051208D01*
X128200194Y-61670405D01*
X128262506Y-61636379D01*
X128289289Y-61633500D01*
X131990406Y-61633500D01*
X132058527Y-61653502D01*
X132105020Y-61707158D01*
X132115124Y-61777432D01*
X132110238Y-61798438D01*
X132108498Y-61803792D01*
X132108497Y-61803797D01*
X132106458Y-61810072D01*
X132086496Y-62000000D01*
X132087186Y-62006565D01*
X132090519Y-62038272D01*
X132106458Y-62189928D01*
X132165473Y-62371556D01*
X132168776Y-62377278D01*
X132168777Y-62377279D01*
X132194953Y-62422616D01*
X132260960Y-62536944D01*
X132265378Y-62541851D01*
X132265379Y-62541852D01*
X132347452Y-62633003D01*
X132388747Y-62678866D01*
X132543248Y-62791118D01*
X132549276Y-62793802D01*
X132549278Y-62793803D01*
X132711681Y-62866109D01*
X132717712Y-62868794D01*
X132811113Y-62888647D01*
X132898056Y-62907128D01*
X132898061Y-62907128D01*
X132904513Y-62908500D01*
X133095487Y-62908500D01*
X133101939Y-62907128D01*
X133101944Y-62907128D01*
X133188887Y-62888647D01*
X133282288Y-62868794D01*
X133288319Y-62866109D01*
X133450722Y-62793803D01*
X133450724Y-62793802D01*
X133456752Y-62791118D01*
X133506894Y-62754688D01*
X133589671Y-62694546D01*
X133611253Y-62678866D01*
X133615668Y-62673963D01*
X133620580Y-62669540D01*
X133621705Y-62670789D01*
X133675014Y-62637949D01*
X133708200Y-62633500D01*
X135511233Y-62633500D01*
X135522416Y-62634027D01*
X135529909Y-62635702D01*
X135537835Y-62635453D01*
X135537836Y-62635453D01*
X135597986Y-62633562D01*
X135601945Y-62633500D01*
X135629856Y-62633500D01*
X135633791Y-62633003D01*
X135633856Y-62632995D01*
X135645693Y-62632062D01*
X135677951Y-62631048D01*
X135681970Y-62630922D01*
X135689889Y-62630673D01*
X135709343Y-62625021D01*
X135728700Y-62621013D01*
X135740930Y-62619468D01*
X135740931Y-62619468D01*
X135748797Y-62618474D01*
X135756168Y-62615555D01*
X135756170Y-62615555D01*
X135789912Y-62602196D01*
X135801142Y-62598351D01*
X135835983Y-62588229D01*
X135835984Y-62588229D01*
X135843593Y-62586018D01*
X135850412Y-62581985D01*
X135850417Y-62581983D01*
X135861028Y-62575707D01*
X135878776Y-62567012D01*
X135897617Y-62559552D01*
X135933387Y-62533564D01*
X135943307Y-62527048D01*
X135974535Y-62508580D01*
X135974538Y-62508578D01*
X135981362Y-62504542D01*
X135995683Y-62490221D01*
X136010717Y-62477380D01*
X136020694Y-62470131D01*
X136027107Y-62465472D01*
X136055298Y-62431395D01*
X136063288Y-62422616D01*
X136910905Y-61574999D01*
X136973217Y-61540973D01*
X137044032Y-61546038D01*
X137089095Y-61574999D01*
X141906343Y-66392247D01*
X141913887Y-66400537D01*
X141918000Y-66407018D01*
X141923777Y-66412443D01*
X141967667Y-66453658D01*
X141970509Y-66456413D01*
X141990230Y-66476134D01*
X141993425Y-66478612D01*
X142002447Y-66486318D01*
X142034679Y-66516586D01*
X142041628Y-66520406D01*
X142052432Y-66526346D01*
X142068956Y-66537199D01*
X142084959Y-66549613D01*
X142125543Y-66567176D01*
X142136173Y-66572383D01*
X142174940Y-66593695D01*
X142182617Y-66595666D01*
X142182622Y-66595668D01*
X142194558Y-66598732D01*
X142213266Y-66605137D01*
X142231855Y-66613181D01*
X142239680Y-66614420D01*
X142239682Y-66614421D01*
X142275519Y-66620097D01*
X142287140Y-66622504D01*
X142322289Y-66631528D01*
X142329970Y-66633500D01*
X142350231Y-66633500D01*
X142369940Y-66635051D01*
X142389943Y-66638219D01*
X142397835Y-66637473D01*
X142403062Y-66636979D01*
X142433954Y-66634059D01*
X142445811Y-66633500D01*
X142990406Y-66633500D01*
X143058527Y-66653502D01*
X143105020Y-66707158D01*
X143115124Y-66777432D01*
X143110238Y-66798438D01*
X143108498Y-66803792D01*
X143108497Y-66803797D01*
X143106458Y-66810072D01*
X143105768Y-66816633D01*
X143105768Y-66816635D01*
X143089093Y-66975292D01*
X143062080Y-67040949D01*
X143052878Y-67051218D01*
X142774499Y-67329596D01*
X142712187Y-67363621D01*
X142685404Y-67366500D01*
X138433700Y-67366500D01*
X138365579Y-67346498D01*
X138346353Y-67330157D01*
X138346080Y-67330460D01*
X138341168Y-67326037D01*
X138336753Y-67321134D01*
X138255925Y-67262409D01*
X138187594Y-67212763D01*
X138187593Y-67212762D01*
X138182252Y-67208882D01*
X138176224Y-67206198D01*
X138176222Y-67206197D01*
X138013819Y-67133891D01*
X138013818Y-67133891D01*
X138007788Y-67131206D01*
X137914388Y-67111353D01*
X137827444Y-67092872D01*
X137827439Y-67092872D01*
X137820987Y-67091500D01*
X137630013Y-67091500D01*
X137623561Y-67092872D01*
X137623556Y-67092872D01*
X137536612Y-67111353D01*
X137443212Y-67131206D01*
X137437182Y-67133891D01*
X137437181Y-67133891D01*
X137274778Y-67206197D01*
X137274776Y-67206198D01*
X137268748Y-67208882D01*
X137263407Y-67212762D01*
X137263406Y-67212763D01*
X137224354Y-67241136D01*
X137114247Y-67321134D01*
X137109826Y-67326044D01*
X137109825Y-67326045D01*
X137075992Y-67363621D01*
X136986460Y-67463056D01*
X136890973Y-67628444D01*
X136831958Y-67810072D01*
X136831268Y-67816633D01*
X136831268Y-67816635D01*
X136821757Y-67907128D01*
X136811996Y-68000000D01*
X136831958Y-68189928D01*
X136890973Y-68371556D01*
X136986460Y-68536944D01*
X136990878Y-68541851D01*
X136990879Y-68541852D01*
X137072952Y-68633003D01*
X137114247Y-68678866D01*
X137268748Y-68791118D01*
X137274776Y-68793802D01*
X137274778Y-68793803D01*
X137326060Y-68816635D01*
X137443212Y-68868794D01*
X137536613Y-68888647D01*
X137623556Y-68907128D01*
X137623561Y-68907128D01*
X137630013Y-68908500D01*
X137820987Y-68908500D01*
X137827439Y-68907128D01*
X137827444Y-68907128D01*
X137914387Y-68888647D01*
X138007788Y-68868794D01*
X138124940Y-68816635D01*
X138176222Y-68793803D01*
X138176224Y-68793802D01*
X138182252Y-68791118D01*
X138336753Y-68678866D01*
X138341168Y-68673963D01*
X138346080Y-68669540D01*
X138347205Y-68670789D01*
X138400514Y-68637949D01*
X138433700Y-68633500D01*
X142921233Y-68633500D01*
X142932416Y-68634027D01*
X142939909Y-68635702D01*
X142947835Y-68635453D01*
X142947836Y-68635453D01*
X143007986Y-68633562D01*
X143011945Y-68633500D01*
X143039856Y-68633500D01*
X143043791Y-68633003D01*
X143043856Y-68632995D01*
X143055693Y-68632062D01*
X143087951Y-68631048D01*
X143091970Y-68630922D01*
X143099889Y-68630673D01*
X143119343Y-68625021D01*
X143138700Y-68621013D01*
X143150930Y-68619468D01*
X143150931Y-68619468D01*
X143158797Y-68618474D01*
X143166168Y-68615555D01*
X143166170Y-68615555D01*
X143199912Y-68602196D01*
X143211142Y-68598351D01*
X143245983Y-68588229D01*
X143245984Y-68588229D01*
X143253593Y-68586018D01*
X143260412Y-68581985D01*
X143260417Y-68581983D01*
X143271028Y-68575707D01*
X143288776Y-68567012D01*
X143307617Y-68559552D01*
X143343387Y-68533564D01*
X143353307Y-68527048D01*
X143384535Y-68508580D01*
X143384538Y-68508578D01*
X143391362Y-68504542D01*
X143405683Y-68490221D01*
X143420717Y-68477380D01*
X143430694Y-68470131D01*
X143437107Y-68465472D01*
X143465298Y-68431395D01*
X143473288Y-68422616D01*
X143950499Y-67945405D01*
X144012811Y-67911379D01*
X144039594Y-67908500D01*
X144095487Y-67908500D01*
X144101939Y-67907128D01*
X144101944Y-67907128D01*
X144214303Y-67883245D01*
X144285094Y-67888647D01*
X144341727Y-67931464D01*
X144366220Y-67998102D01*
X144366500Y-68006492D01*
X144366500Y-70993508D01*
X144346498Y-71061629D01*
X144292842Y-71108122D01*
X144222568Y-71118226D01*
X144214303Y-71116755D01*
X144101944Y-71092872D01*
X144101939Y-71092872D01*
X144095487Y-71091500D01*
X143904513Y-71091500D01*
X143898061Y-71092872D01*
X143898056Y-71092872D01*
X143826313Y-71108122D01*
X143717712Y-71131206D01*
X143711682Y-71133891D01*
X143711681Y-71133891D01*
X143549278Y-71206197D01*
X143549276Y-71206198D01*
X143543248Y-71208882D01*
X143388747Y-71321134D01*
X143384332Y-71326037D01*
X143379420Y-71330460D01*
X143378295Y-71329211D01*
X143324986Y-71362051D01*
X143291800Y-71366500D01*
X133708200Y-71366500D01*
X133640079Y-71346498D01*
X133620853Y-71330157D01*
X133620580Y-71330460D01*
X133615668Y-71326037D01*
X133611253Y-71321134D01*
X133456752Y-71208882D01*
X133450724Y-71206198D01*
X133450722Y-71206197D01*
X133288319Y-71133891D01*
X133288318Y-71133891D01*
X133282288Y-71131206D01*
X133173687Y-71108122D01*
X133101944Y-71092872D01*
X133101939Y-71092872D01*
X133095487Y-71091500D01*
X132904513Y-71091500D01*
X132898061Y-71092872D01*
X132898056Y-71092872D01*
X132826313Y-71108122D01*
X132717712Y-71131206D01*
X132711682Y-71133891D01*
X132711681Y-71133891D01*
X132549278Y-71206197D01*
X132549276Y-71206198D01*
X132543248Y-71208882D01*
X132388747Y-71321134D01*
X132260960Y-71463056D01*
X132257659Y-71468774D01*
X132180148Y-71603027D01*
X132165473Y-71628444D01*
X132106458Y-71810072D01*
X132105768Y-71816633D01*
X132105768Y-71816635D01*
X132096995Y-71900110D01*
X132086496Y-72000000D01*
X132106458Y-72189928D01*
X132165473Y-72371556D01*
X132260960Y-72536944D01*
X132388747Y-72678866D01*
X132543248Y-72791118D01*
X132549276Y-72793802D01*
X132549278Y-72793803D01*
X132711679Y-72866108D01*
X132717712Y-72868794D01*
X132784179Y-72882922D01*
X132898056Y-72907128D01*
X132898061Y-72907128D01*
X132904513Y-72908500D01*
X133095487Y-72908500D01*
X133101939Y-72907128D01*
X133101944Y-72907128D01*
X133215821Y-72882922D01*
X133282288Y-72868794D01*
X133288321Y-72866108D01*
X133450722Y-72793803D01*
X133450724Y-72793802D01*
X133456752Y-72791118D01*
X133611253Y-72678866D01*
X133615668Y-72673963D01*
X133620580Y-72669540D01*
X133621705Y-72670789D01*
X133675014Y-72637949D01*
X133708200Y-72633500D01*
X140990406Y-72633500D01*
X141058527Y-72653502D01*
X141105020Y-72707158D01*
X141115124Y-72777432D01*
X141110238Y-72798438D01*
X141108498Y-72803792D01*
X141108498Y-72803794D01*
X141106458Y-72810072D01*
X141105768Y-72816633D01*
X141105768Y-72816635D01*
X141089093Y-72975292D01*
X141062080Y-73040949D01*
X141052878Y-73051218D01*
X140774499Y-73329596D01*
X140712187Y-73363621D01*
X140685404Y-73366500D01*
X123708200Y-73366500D01*
X123640079Y-73346498D01*
X123620853Y-73330157D01*
X123620580Y-73330460D01*
X123615668Y-73326037D01*
X123611253Y-73321134D01*
X123456752Y-73208882D01*
X123450724Y-73206198D01*
X123450722Y-73206197D01*
X123288319Y-73133891D01*
X123288318Y-73133891D01*
X123282288Y-73131206D01*
X123188887Y-73111353D01*
X123101944Y-73092872D01*
X123101939Y-73092872D01*
X123095487Y-73091500D01*
X122904513Y-73091500D01*
X122898061Y-73092872D01*
X122898056Y-73092872D01*
X122811113Y-73111353D01*
X122717712Y-73131206D01*
X122711682Y-73133891D01*
X122711681Y-73133891D01*
X122549278Y-73206197D01*
X122549276Y-73206198D01*
X122543248Y-73208882D01*
X122388747Y-73321134D01*
X122384326Y-73326044D01*
X122384325Y-73326045D01*
X122350492Y-73363621D01*
X122260960Y-73463056D01*
X122165473Y-73628444D01*
X122106458Y-73810072D01*
X122105768Y-73816633D01*
X122105768Y-73816635D01*
X122090532Y-73961598D01*
X122086496Y-74000000D01*
X122087186Y-74006565D01*
X122104390Y-74170248D01*
X122106458Y-74189928D01*
X122165473Y-74371556D01*
X122168776Y-74377278D01*
X122168777Y-74377279D01*
X122181419Y-74399175D01*
X122260960Y-74536944D01*
X122265375Y-74541847D01*
X122265379Y-74541852D01*
X122347452Y-74633003D01*
X122388747Y-74678866D01*
X122543248Y-74791118D01*
X122549276Y-74793802D01*
X122549278Y-74793803D01*
X122711681Y-74866109D01*
X122717712Y-74868794D01*
X122811112Y-74888647D01*
X122898056Y-74907128D01*
X122898061Y-74907128D01*
X122904513Y-74908500D01*
X123095487Y-74908500D01*
X123101939Y-74907128D01*
X123101944Y-74907128D01*
X123188888Y-74888647D01*
X123282288Y-74868794D01*
X123288319Y-74866109D01*
X123450722Y-74793803D01*
X123450724Y-74793802D01*
X123456752Y-74791118D01*
X123611253Y-74678866D01*
X123615668Y-74673963D01*
X123620580Y-74669540D01*
X123621705Y-74670789D01*
X123675014Y-74637949D01*
X123708200Y-74633500D01*
X140921233Y-74633500D01*
X140932416Y-74634027D01*
X140939909Y-74635702D01*
X140947835Y-74635453D01*
X140947836Y-74635453D01*
X141007986Y-74633562D01*
X141011945Y-74633500D01*
X141039856Y-74633500D01*
X141043791Y-74633003D01*
X141043856Y-74632995D01*
X141055693Y-74632062D01*
X141087951Y-74631048D01*
X141091970Y-74630922D01*
X141099889Y-74630673D01*
X141119343Y-74625021D01*
X141138700Y-74621013D01*
X141150930Y-74619468D01*
X141150931Y-74619468D01*
X141158797Y-74618474D01*
X141166168Y-74615555D01*
X141166170Y-74615555D01*
X141199912Y-74602196D01*
X141211142Y-74598351D01*
X141245983Y-74588229D01*
X141245984Y-74588229D01*
X141253593Y-74586018D01*
X141260412Y-74581985D01*
X141260417Y-74581983D01*
X141271028Y-74575707D01*
X141288776Y-74567012D01*
X141307617Y-74559552D01*
X141343387Y-74533564D01*
X141353307Y-74527048D01*
X141384535Y-74508580D01*
X141384538Y-74508578D01*
X141391362Y-74504542D01*
X141405683Y-74490221D01*
X141420717Y-74477380D01*
X141430694Y-74470131D01*
X141437107Y-74465472D01*
X141465298Y-74431395D01*
X141473288Y-74422616D01*
X141910905Y-73984999D01*
X141973217Y-73950973D01*
X142044032Y-73956038D01*
X142089095Y-73984999D01*
X143370154Y-75266058D01*
X143404180Y-75328370D01*
X143397256Y-75403877D01*
X143375246Y-75456365D01*
X143374095Y-75460897D01*
X143374094Y-75460900D01*
X143349160Y-75559079D01*
X143312738Y-75702490D01*
X143287296Y-75955151D01*
X143287520Y-75959817D01*
X143287520Y-75959822D01*
X143290601Y-76023961D01*
X143299480Y-76208798D01*
X143349021Y-76457857D01*
X143350600Y-76462255D01*
X143350602Y-76462262D01*
X143402828Y-76607722D01*
X143434831Y-76696858D01*
X143437048Y-76700984D01*
X143552660Y-76916149D01*
X143555025Y-76920551D01*
X143557820Y-76924294D01*
X143557822Y-76924297D01*
X143704171Y-77120282D01*
X143704176Y-77120288D01*
X143706963Y-77124020D01*
X143712073Y-77129085D01*
X143734196Y-77151016D01*
X143768493Y-77213179D01*
X143763738Y-77284016D01*
X143721440Y-77341037D01*
X143655029Y-77366138D01*
X143645491Y-77366500D01*
X137708200Y-77366500D01*
X137640079Y-77346498D01*
X137620853Y-77330157D01*
X137620580Y-77330460D01*
X137615668Y-77326037D01*
X137611253Y-77321134D01*
X137560165Y-77284016D01*
X137462094Y-77212763D01*
X137462093Y-77212762D01*
X137456752Y-77208882D01*
X137450724Y-77206198D01*
X137450722Y-77206197D01*
X137288319Y-77133891D01*
X137288318Y-77133891D01*
X137282288Y-77131206D01*
X137188888Y-77111353D01*
X137101944Y-77092872D01*
X137101939Y-77092872D01*
X137095487Y-77091500D01*
X136904513Y-77091500D01*
X136898061Y-77092872D01*
X136898056Y-77092872D01*
X136811112Y-77111353D01*
X136717712Y-77131206D01*
X136711682Y-77133891D01*
X136711681Y-77133891D01*
X136549278Y-77206197D01*
X136549276Y-77206198D01*
X136543248Y-77208882D01*
X136537907Y-77212762D01*
X136537906Y-77212763D01*
X136487843Y-77249136D01*
X136388747Y-77321134D01*
X136260960Y-77463056D01*
X136165473Y-77628444D01*
X136106458Y-77810072D01*
X136086496Y-78000000D01*
X136106458Y-78189928D01*
X136165473Y-78371556D01*
X136260960Y-78536944D01*
X136265378Y-78541851D01*
X136265379Y-78541852D01*
X136347452Y-78633003D01*
X136388747Y-78678866D01*
X136543248Y-78791118D01*
X136549276Y-78793802D01*
X136549278Y-78793803D01*
X136672344Y-78848595D01*
X136717712Y-78868794D01*
X136811112Y-78888647D01*
X136898056Y-78907128D01*
X136898061Y-78907128D01*
X136904513Y-78908500D01*
X136960406Y-78908500D01*
X137028527Y-78928502D01*
X137049501Y-78945405D01*
X138496348Y-80392253D01*
X138503888Y-80400539D01*
X138508000Y-80407018D01*
X138513777Y-80412443D01*
X138557651Y-80453643D01*
X138560493Y-80456398D01*
X138580230Y-80476135D01*
X138583427Y-80478615D01*
X138592447Y-80486318D01*
X138624679Y-80516586D01*
X138631625Y-80520405D01*
X138631628Y-80520407D01*
X138642434Y-80526348D01*
X138658953Y-80537199D01*
X138674959Y-80549614D01*
X138682228Y-80552759D01*
X138682232Y-80552762D01*
X138715537Y-80567174D01*
X138726187Y-80572391D01*
X138764940Y-80593695D01*
X138772615Y-80595666D01*
X138772616Y-80595666D01*
X138784562Y-80598733D01*
X138803267Y-80605137D01*
X138821855Y-80613181D01*
X138829678Y-80614420D01*
X138829688Y-80614423D01*
X138865524Y-80620099D01*
X138877144Y-80622505D01*
X138912289Y-80631528D01*
X138919970Y-80633500D01*
X138940224Y-80633500D01*
X138959934Y-80635051D01*
X138979943Y-80638220D01*
X138987835Y-80637474D01*
X139023961Y-80634059D01*
X139035819Y-80633500D01*
X139291800Y-80633500D01*
X139359921Y-80653502D01*
X139379147Y-80669843D01*
X139379420Y-80669540D01*
X139384332Y-80673963D01*
X139388747Y-80678866D01*
X139543248Y-80791118D01*
X139549276Y-80793802D01*
X139549278Y-80793803D01*
X139711681Y-80866109D01*
X139717712Y-80868794D01*
X139811112Y-80888647D01*
X139898056Y-80907128D01*
X139898061Y-80907128D01*
X139904513Y-80908500D01*
X140095487Y-80908500D01*
X140101939Y-80907128D01*
X140101944Y-80907128D01*
X140188888Y-80888647D01*
X140282288Y-80868794D01*
X140288319Y-80866109D01*
X140450722Y-80793803D01*
X140450724Y-80793802D01*
X140456752Y-80791118D01*
X140611253Y-80678866D01*
X140647851Y-80638220D01*
X140734621Y-80541852D01*
X140734622Y-80541851D01*
X140739040Y-80536944D01*
X140834527Y-80371556D01*
X140893542Y-80189928D01*
X140913504Y-80000000D01*
X140900022Y-79871722D01*
X140894232Y-79816635D01*
X140894232Y-79816633D01*
X140893542Y-79810072D01*
X140834527Y-79628444D01*
X140739040Y-79463056D01*
X140611253Y-79321134D01*
X140456752Y-79208882D01*
X140450724Y-79206198D01*
X140450722Y-79206197D01*
X140288319Y-79133891D01*
X140288318Y-79133891D01*
X140282288Y-79131206D01*
X140188888Y-79111353D01*
X140101944Y-79092872D01*
X140101939Y-79092872D01*
X140095487Y-79091500D01*
X139904513Y-79091500D01*
X139898061Y-79092872D01*
X139898056Y-79092872D01*
X139811112Y-79111353D01*
X139717712Y-79131206D01*
X139711682Y-79133891D01*
X139711681Y-79133891D01*
X139549278Y-79206197D01*
X139549276Y-79206198D01*
X139543248Y-79208882D01*
X139388747Y-79321134D01*
X139386601Y-79323517D01*
X139323726Y-79353688D01*
X139253273Y-79344922D01*
X139214333Y-79318429D01*
X138744499Y-78848595D01*
X138710473Y-78786283D01*
X138715538Y-78715468D01*
X138758085Y-78658632D01*
X138824605Y-78633821D01*
X138833594Y-78633500D01*
X145077909Y-78633500D01*
X145089092Y-78634027D01*
X145096585Y-78635702D01*
X145104511Y-78635453D01*
X145104512Y-78635453D01*
X145164662Y-78633562D01*
X145168621Y-78633500D01*
X145196532Y-78633500D01*
X145200467Y-78633003D01*
X145200532Y-78632995D01*
X145212369Y-78632062D01*
X145244627Y-78631048D01*
X145248646Y-78630922D01*
X145256565Y-78630673D01*
X145276019Y-78625021D01*
X145295376Y-78621013D01*
X145307606Y-78619468D01*
X145307607Y-78619468D01*
X145315473Y-78618474D01*
X145322844Y-78615555D01*
X145322846Y-78615555D01*
X145356588Y-78602196D01*
X145367818Y-78598351D01*
X145402659Y-78588229D01*
X145402660Y-78588229D01*
X145410269Y-78586018D01*
X145417088Y-78581985D01*
X145417093Y-78581983D01*
X145427704Y-78575707D01*
X145445452Y-78567012D01*
X145464293Y-78559552D01*
X145500063Y-78533564D01*
X145509983Y-78527048D01*
X145541211Y-78508580D01*
X145541214Y-78508578D01*
X145548038Y-78504542D01*
X145562359Y-78490221D01*
X145577393Y-78477380D01*
X145587370Y-78470131D01*
X145593783Y-78465472D01*
X145621974Y-78431395D01*
X145629964Y-78422616D01*
X146917247Y-77135333D01*
X146925537Y-77127789D01*
X146932018Y-77123676D01*
X146978659Y-77074008D01*
X146981413Y-77071167D01*
X147001134Y-77051446D01*
X147003612Y-77048251D01*
X147011318Y-77039229D01*
X147036158Y-77012777D01*
X147041586Y-77006997D01*
X147051346Y-76989244D01*
X147062199Y-76972721D01*
X147069753Y-76962982D01*
X147074613Y-76956717D01*
X147092176Y-76916133D01*
X147097383Y-76905503D01*
X147118695Y-76866736D01*
X147120666Y-76859059D01*
X147120668Y-76859054D01*
X147123732Y-76847118D01*
X147130138Y-76828406D01*
X147135034Y-76817093D01*
X147138181Y-76809821D01*
X147141144Y-76791118D01*
X147145097Y-76766157D01*
X147147504Y-76754536D01*
X147156528Y-76719387D01*
X147156528Y-76719386D01*
X147158500Y-76711706D01*
X147158500Y-76691445D01*
X147160051Y-76671734D01*
X147161979Y-76659561D01*
X147163219Y-76651733D01*
X147159059Y-76607722D01*
X147158500Y-76595865D01*
X147158500Y-74179073D01*
X147159027Y-74167890D01*
X147160702Y-74160397D01*
X147158562Y-74092306D01*
X147158500Y-74088349D01*
X147158500Y-74060449D01*
X147157996Y-74056458D01*
X147157063Y-74044616D01*
X147155923Y-74008341D01*
X147155674Y-74000416D01*
X147150021Y-73980957D01*
X147146012Y-73961598D01*
X147145846Y-73960288D01*
X147143474Y-73941508D01*
X147140558Y-73934142D01*
X147140556Y-73934136D01*
X147127200Y-73900403D01*
X147123355Y-73889173D01*
X147113230Y-73854322D01*
X147113230Y-73854321D01*
X147111019Y-73846712D01*
X147100705Y-73829271D01*
X147092008Y-73811518D01*
X147087472Y-73800063D01*
X147084552Y-73792688D01*
X147058563Y-73756917D01*
X147052047Y-73746997D01*
X147033578Y-73715768D01*
X147029542Y-73708943D01*
X147015221Y-73694622D01*
X147002380Y-73679588D01*
X146995131Y-73669611D01*
X146990472Y-73663198D01*
X146956395Y-73635007D01*
X146947616Y-73627017D01*
X145670405Y-72349805D01*
X145636379Y-72287493D01*
X145633500Y-72260710D01*
X145633500Y-69353519D01*
X145653502Y-69285398D01*
X145707158Y-69238905D01*
X145777432Y-69228801D01*
X145842012Y-69258295D01*
X145848194Y-69264024D01*
X145887307Y-69302797D01*
X145891069Y-69305555D01*
X145891072Y-69305558D01*
X145996764Y-69383054D01*
X146092094Y-69452953D01*
X146096229Y-69455129D01*
X146096233Y-69455131D01*
X146214289Y-69517243D01*
X146316827Y-69571191D01*
X146451160Y-69618102D01*
X146498773Y-69634729D01*
X146556568Y-69654912D01*
X146806050Y-69702278D01*
X146926532Y-69707011D01*
X147055125Y-69712064D01*
X147055130Y-69712064D01*
X147059793Y-69712247D01*
X147158774Y-69701407D01*
X147307569Y-69685112D01*
X147307575Y-69685111D01*
X147312222Y-69684602D01*
X147421680Y-69655784D01*
X147553273Y-69621138D01*
X147557793Y-69619948D01*
X147764301Y-69531226D01*
X147786807Y-69521557D01*
X147786810Y-69521555D01*
X147791110Y-69519708D01*
X147795090Y-69517245D01*
X147795094Y-69517243D01*
X148003064Y-69388547D01*
X148003066Y-69388545D01*
X148007047Y-69386082D01*
X148105428Y-69302797D01*
X148197289Y-69225031D01*
X148197291Y-69225029D01*
X148200862Y-69222006D01*
X148368295Y-69031084D01*
X148384067Y-69006565D01*
X148503141Y-68821442D01*
X148505669Y-68817512D01*
X148609967Y-68585980D01*
X148678896Y-68341575D01*
X148689115Y-68261252D01*
X148710545Y-68092798D01*
X148710545Y-68092792D01*
X148710943Y-68089667D01*
X148713291Y-68000000D01*
X148706705Y-67911379D01*
X148694818Y-67751411D01*
X148694817Y-67751407D01*
X148694472Y-67746759D01*
X148691576Y-67733957D01*
X148639459Y-67503639D01*
X148638428Y-67499082D01*
X148608750Y-67422764D01*
X148548084Y-67266762D01*
X148548083Y-67266760D01*
X148546391Y-67262409D01*
X148534233Y-67241136D01*
X148422702Y-67045997D01*
X148422700Y-67045995D01*
X148420383Y-67041940D01*
X148263171Y-66842517D01*
X148128187Y-66715537D01*
X148081610Y-66671722D01*
X148081608Y-66671720D01*
X148078209Y-66668523D01*
X148028529Y-66634059D01*
X147873393Y-66526437D01*
X147873390Y-66526435D01*
X147869561Y-66523779D01*
X147865384Y-66521719D01*
X147865377Y-66521715D01*
X147645996Y-66413528D01*
X147645992Y-66413527D01*
X147641810Y-66411464D01*
X147399960Y-66334047D01*
X147344654Y-66325040D01*
X147153935Y-66293980D01*
X147153934Y-66293980D01*
X147149323Y-66293229D01*
X147051888Y-66291953D01*
X147021148Y-66291551D01*
X146953295Y-66270659D01*
X146907508Y-66216399D01*
X146897487Y-66152391D01*
X146898808Y-66139829D01*
X146913504Y-66000000D01*
X146909739Y-65964181D01*
X146894232Y-65816635D01*
X146894232Y-65816633D01*
X146893542Y-65810072D01*
X146834527Y-65628444D01*
X146739040Y-65463056D01*
X146641174Y-65354364D01*
X146615675Y-65326045D01*
X146615674Y-65326044D01*
X146611253Y-65321134D01*
X146491975Y-65234473D01*
X146462094Y-65212763D01*
X146462093Y-65212762D01*
X146456752Y-65208882D01*
X146450724Y-65206198D01*
X146450722Y-65206197D01*
X146288319Y-65133891D01*
X146288318Y-65133891D01*
X146282288Y-65131206D01*
X146208303Y-65115480D01*
X146145830Y-65081752D01*
X146111508Y-65019602D01*
X146108500Y-64992233D01*
X146108500Y-64670251D01*
X146128502Y-64602130D01*
X146182158Y-64555637D01*
X146252432Y-64545533D01*
X146293163Y-64558741D01*
X146316827Y-64571191D01*
X146321250Y-64572736D01*
X146321251Y-64572736D01*
X146520811Y-64642425D01*
X146556568Y-64654912D01*
X146806050Y-64702278D01*
X146926532Y-64707011D01*
X147055125Y-64712064D01*
X147055130Y-64712064D01*
X147059793Y-64712247D01*
X147158774Y-64701407D01*
X147307569Y-64685112D01*
X147307575Y-64685111D01*
X147312222Y-64684602D01*
X147358375Y-64672451D01*
X147553273Y-64621138D01*
X147557793Y-64619948D01*
X147765130Y-64530870D01*
X147786807Y-64521557D01*
X147786810Y-64521555D01*
X147791110Y-64519708D01*
X147795090Y-64517245D01*
X147795094Y-64517243D01*
X148003064Y-64388547D01*
X148003066Y-64388545D01*
X148007047Y-64386082D01*
X148072751Y-64330460D01*
X148197289Y-64225031D01*
X148197291Y-64225029D01*
X148200862Y-64222006D01*
X148368295Y-64031084D01*
X148387867Y-64000657D01*
X148496800Y-63831301D01*
X148505669Y-63817512D01*
X148609967Y-63585980D01*
X148678896Y-63341575D01*
X148689115Y-63261252D01*
X148710545Y-63092798D01*
X148710545Y-63092792D01*
X148710943Y-63089667D01*
X148711274Y-63077053D01*
X148713208Y-63003160D01*
X148713291Y-63000000D01*
X148710029Y-62956106D01*
X148694818Y-62751411D01*
X148694817Y-62751407D01*
X148694472Y-62746759D01*
X148692852Y-62739597D01*
X148646995Y-62536944D01*
X148638428Y-62499082D01*
X148594045Y-62384951D01*
X148548084Y-62266762D01*
X148548083Y-62266760D01*
X148546391Y-62262409D01*
X148515798Y-62208882D01*
X148422702Y-62045997D01*
X148422700Y-62045995D01*
X148420383Y-62041940D01*
X148263171Y-61842517D01*
X148179625Y-61763925D01*
X148081610Y-61671722D01*
X148081608Y-61671720D01*
X148078209Y-61668523D01*
X148027813Y-61633562D01*
X147873393Y-61526437D01*
X147873390Y-61526435D01*
X147869561Y-61523779D01*
X147865384Y-61521719D01*
X147865377Y-61521715D01*
X147645996Y-61413528D01*
X147645992Y-61413527D01*
X147641810Y-61411464D01*
X147399960Y-61334047D01*
X147392039Y-61332757D01*
X147153935Y-61293980D01*
X147153934Y-61293980D01*
X147149323Y-61293229D01*
X147022365Y-61291567D01*
X146900083Y-61289966D01*
X146900080Y-61289966D01*
X146895406Y-61289905D01*
X146643787Y-61324149D01*
X146399993Y-61395208D01*
X146287250Y-61447183D01*
X146217014Y-61457538D01*
X146152328Y-61428276D01*
X146113731Y-61368687D01*
X146108500Y-61332757D01*
X146108500Y-59839594D01*
X146128502Y-59771473D01*
X146145405Y-59750499D01*
X147392247Y-58503657D01*
X147400537Y-58496113D01*
X147407018Y-58492000D01*
X147427119Y-58470595D01*
X147453658Y-58442333D01*
X147456413Y-58439491D01*
X147476135Y-58419769D01*
X147478612Y-58416576D01*
X147486317Y-58407555D01*
X147511159Y-58381100D01*
X147516586Y-58375321D01*
X147520967Y-58367352D01*
X147526346Y-58357568D01*
X147537202Y-58341041D01*
X147544757Y-58331302D01*
X147544758Y-58331300D01*
X147549614Y-58325040D01*
X147567174Y-58284460D01*
X147572391Y-58273812D01*
X147589875Y-58242009D01*
X147589876Y-58242007D01*
X147593695Y-58235060D01*
X147598733Y-58215437D01*
X147605137Y-58196734D01*
X147610033Y-58185420D01*
X147610033Y-58185419D01*
X147613181Y-58178145D01*
X147614420Y-58170322D01*
X147614423Y-58170312D01*
X147620099Y-58134476D01*
X147622505Y-58122856D01*
X147631528Y-58087711D01*
X147631528Y-58087710D01*
X147633500Y-58080030D01*
X147633500Y-58059776D01*
X147635051Y-58040065D01*
X147636980Y-58027886D01*
X147638220Y-58020057D01*
X147634059Y-57976038D01*
X147633500Y-57964181D01*
X147633500Y-56670425D01*
X147653502Y-56602304D01*
X147709763Y-56554657D01*
X147739568Y-56541852D01*
X147791110Y-56519708D01*
X147795090Y-56517245D01*
X147795094Y-56517243D01*
X148003064Y-56388547D01*
X148003066Y-56388545D01*
X148007047Y-56386082D01*
X148105428Y-56302797D01*
X148197289Y-56225031D01*
X148197291Y-56225029D01*
X148200862Y-56222006D01*
X148368295Y-56031084D01*
X148384067Y-56006565D01*
X148495008Y-55834087D01*
X148505669Y-55817512D01*
X148609967Y-55585980D01*
X148678896Y-55341575D01*
X148696382Y-55204126D01*
X148710545Y-55092798D01*
X148710545Y-55092792D01*
X148710943Y-55089667D01*
X148711272Y-55077130D01*
X148712794Y-55018962D01*
X148713291Y-55000000D01*
X148699177Y-54810072D01*
X148694818Y-54751411D01*
X148694817Y-54751407D01*
X148694472Y-54746759D01*
X148688492Y-54720328D01*
X148639459Y-54503639D01*
X148638428Y-54499082D01*
X148620138Y-54452050D01*
X148548084Y-54266762D01*
X148548083Y-54266760D01*
X148546391Y-54262409D01*
X148543512Y-54257371D01*
X148422702Y-54045997D01*
X148422700Y-54045995D01*
X148420383Y-54041940D01*
X148263171Y-53842517D01*
X148089204Y-53678866D01*
X148081610Y-53671722D01*
X148081608Y-53671720D01*
X148078209Y-53668523D01*
X148034483Y-53638189D01*
X147873393Y-53526437D01*
X147873390Y-53526435D01*
X147869561Y-53523779D01*
X147865384Y-53521719D01*
X147865377Y-53521715D01*
X147645996Y-53413528D01*
X147645992Y-53413527D01*
X147641810Y-53411464D01*
X147399960Y-53334047D01*
X147395355Y-53333297D01*
X147153935Y-53293980D01*
X147153934Y-53293980D01*
X147149323Y-53293229D01*
X147022364Y-53291567D01*
X146900083Y-53289966D01*
X146900080Y-53289966D01*
X146895406Y-53289905D01*
X146643787Y-53324149D01*
X146399993Y-53395208D01*
X146169380Y-53501522D01*
X146165471Y-53504085D01*
X145960928Y-53638189D01*
X145960923Y-53638193D01*
X145957015Y-53640755D01*
X145914315Y-53678866D01*
X145792896Y-53787237D01*
X145767562Y-53809848D01*
X145605183Y-54005087D01*
X145473447Y-54222182D01*
X145471638Y-54226496D01*
X145471637Y-54226498D01*
X145409211Y-54375368D01*
X145375246Y-54456365D01*
X145374095Y-54460897D01*
X145374094Y-54460900D01*
X145365503Y-54494728D01*
X145312738Y-54702490D01*
X145287296Y-54955151D01*
X145287520Y-54959817D01*
X145287520Y-54959822D01*
X145292269Y-55058675D01*
X145299480Y-55208798D01*
X145349021Y-55457857D01*
X145350600Y-55462255D01*
X145350602Y-55462262D01*
X145395022Y-55585980D01*
X145434831Y-55696858D01*
X145486921Y-55793803D01*
X145547813Y-55907128D01*
X145555025Y-55920551D01*
X145557820Y-55924294D01*
X145557822Y-55924297D01*
X145704171Y-56120282D01*
X145704176Y-56120288D01*
X145706963Y-56124020D01*
X145710272Y-56127300D01*
X145710277Y-56127306D01*
X145883990Y-56299509D01*
X145887307Y-56302797D01*
X145891069Y-56305555D01*
X145891072Y-56305558D01*
X145996764Y-56383054D01*
X146092094Y-56452953D01*
X146096231Y-56455129D01*
X146096238Y-56455134D01*
X146299167Y-56561900D01*
X146350140Y-56611319D01*
X146366500Y-56673408D01*
X146366500Y-57685405D01*
X146346498Y-57753526D01*
X146329595Y-57774501D01*
X145848595Y-58255500D01*
X145786283Y-58289525D01*
X145715467Y-58284460D01*
X145658632Y-58241913D01*
X145633821Y-58175393D01*
X145633500Y-58166404D01*
X145633500Y-57078767D01*
X145634027Y-57067584D01*
X145635702Y-57060091D01*
X145633562Y-56992014D01*
X145633500Y-56988055D01*
X145633500Y-56960144D01*
X145632995Y-56956144D01*
X145632062Y-56944301D01*
X145630922Y-56908029D01*
X145630673Y-56900110D01*
X145625022Y-56880658D01*
X145621014Y-56861306D01*
X145619467Y-56849063D01*
X145618474Y-56841203D01*
X145615556Y-56833832D01*
X145602200Y-56800097D01*
X145598355Y-56788870D01*
X145593882Y-56773475D01*
X145586018Y-56746407D01*
X145575707Y-56728972D01*
X145567012Y-56711224D01*
X145559552Y-56692383D01*
X145549732Y-56678866D01*
X145533564Y-56656613D01*
X145527048Y-56646693D01*
X145508580Y-56615465D01*
X145508578Y-56615462D01*
X145504542Y-56608638D01*
X145490221Y-56594317D01*
X145477380Y-56579283D01*
X145470131Y-56569306D01*
X145465472Y-56562893D01*
X145431395Y-56534702D01*
X145422616Y-56526712D01*
X143947122Y-55051217D01*
X143913096Y-54988905D01*
X143910907Y-54975292D01*
X143910860Y-54974840D01*
X143901456Y-54885365D01*
X143894232Y-54816635D01*
X143894232Y-54816633D01*
X143893542Y-54810072D01*
X143834527Y-54628444D01*
X143739040Y-54463056D01*
X143733016Y-54456365D01*
X143615675Y-54326045D01*
X143615674Y-54326044D01*
X143611253Y-54321134D01*
X143456752Y-54208882D01*
X143450724Y-54206198D01*
X143450722Y-54206197D01*
X143288319Y-54133891D01*
X143288318Y-54133891D01*
X143282288Y-54131206D01*
X143188888Y-54111353D01*
X143101944Y-54092872D01*
X143101939Y-54092872D01*
X143095487Y-54091500D01*
X142904513Y-54091500D01*
X142898061Y-54092872D01*
X142898056Y-54092872D01*
X142811113Y-54111353D01*
X142717712Y-54131206D01*
X142711682Y-54133891D01*
X142711681Y-54133891D01*
X142549278Y-54206197D01*
X142549276Y-54206198D01*
X142543248Y-54208882D01*
X142388747Y-54321134D01*
X142384326Y-54326044D01*
X142384325Y-54326045D01*
X142266985Y-54456365D01*
X142260960Y-54463056D01*
X142165473Y-54628444D01*
X142106458Y-54810072D01*
X142105768Y-54816633D01*
X142105768Y-54816635D01*
X142098544Y-54885365D01*
X142086496Y-55000000D01*
X142087186Y-55006565D01*
X142102277Y-55150144D01*
X142106458Y-55189928D01*
X142165473Y-55371556D01*
X142260960Y-55536944D01*
X142265378Y-55541851D01*
X142265379Y-55541852D01*
X142384325Y-55673955D01*
X142388747Y-55678866D01*
X142543248Y-55791118D01*
X142549276Y-55793802D01*
X142549278Y-55793803D01*
X142711681Y-55866109D01*
X142717712Y-55868794D01*
X142811112Y-55888647D01*
X142898056Y-55907128D01*
X142898061Y-55907128D01*
X142904513Y-55908500D01*
X142960406Y-55908500D01*
X143028527Y-55928502D01*
X143049501Y-55945405D01*
X144329595Y-57225500D01*
X144363621Y-57287812D01*
X144366500Y-57314595D01*
X144366500Y-61993508D01*
X144346498Y-62061629D01*
X144292842Y-62108122D01*
X144222568Y-62118226D01*
X144214303Y-62116755D01*
X144101944Y-62092872D01*
X144101939Y-62092872D01*
X144095487Y-62091500D01*
X143904513Y-62091500D01*
X143898061Y-62092872D01*
X143898056Y-62092872D01*
X143826313Y-62108122D01*
X143717712Y-62131206D01*
X143711682Y-62133891D01*
X143711681Y-62133891D01*
X143549278Y-62206197D01*
X143549276Y-62206198D01*
X143543248Y-62208882D01*
X143388747Y-62321134D01*
X143384332Y-62326037D01*
X143379420Y-62330460D01*
X143378295Y-62329211D01*
X143324986Y-62362051D01*
X143291800Y-62366500D01*
X142708200Y-62366500D01*
X142640079Y-62346498D01*
X142620853Y-62330157D01*
X142620580Y-62330460D01*
X142615668Y-62326037D01*
X142611253Y-62321134D01*
X142456752Y-62208882D01*
X142450724Y-62206198D01*
X142450722Y-62206197D01*
X142288319Y-62133891D01*
X142288318Y-62133891D01*
X142282288Y-62131206D01*
X142173687Y-62108122D01*
X142101944Y-62092872D01*
X142101939Y-62092872D01*
X142095487Y-62091500D01*
X141904513Y-62091500D01*
X141898061Y-62092872D01*
X141898056Y-62092872D01*
X141826313Y-62108122D01*
X141717712Y-62131206D01*
X141711682Y-62133891D01*
X141711681Y-62133891D01*
X141549278Y-62206197D01*
X141549276Y-62206198D01*
X141543248Y-62208882D01*
X141388747Y-62321134D01*
X141384326Y-62326044D01*
X141384325Y-62326045D01*
X141289468Y-62431395D01*
X141260960Y-62463056D01*
X141237008Y-62504542D01*
X141169046Y-62622256D01*
X141165473Y-62628444D01*
X141106458Y-62810072D01*
X141086496Y-63000000D01*
X141087186Y-63006565D01*
X141102233Y-63149725D01*
X141106458Y-63189928D01*
X141165473Y-63371556D01*
X141168776Y-63377278D01*
X141168777Y-63377279D01*
X141176384Y-63390455D01*
X141260960Y-63536944D01*
X141388747Y-63678866D01*
X141543248Y-63791118D01*
X141549276Y-63793802D01*
X141549278Y-63793803D01*
X141711681Y-63866109D01*
X141717712Y-63868794D01*
X141811112Y-63888647D01*
X141898056Y-63907128D01*
X141898061Y-63907128D01*
X141904513Y-63908500D01*
X142095487Y-63908500D01*
X142101939Y-63907128D01*
X142101944Y-63907128D01*
X142188888Y-63888647D01*
X142282288Y-63868794D01*
X142288319Y-63866109D01*
X142450722Y-63793803D01*
X142450724Y-63793802D01*
X142456752Y-63791118D01*
X142611253Y-63678866D01*
X142615668Y-63673963D01*
X142620580Y-63669540D01*
X142621705Y-63670789D01*
X142675014Y-63637949D01*
X142708200Y-63633500D01*
X143291800Y-63633500D01*
X143359921Y-63653502D01*
X143379147Y-63669843D01*
X143379420Y-63669540D01*
X143384332Y-63673963D01*
X143388747Y-63678866D01*
X143543248Y-63791118D01*
X143549276Y-63793802D01*
X143549278Y-63793803D01*
X143711681Y-63866109D01*
X143717712Y-63868794D01*
X143811112Y-63888647D01*
X143898056Y-63907128D01*
X143898061Y-63907128D01*
X143904513Y-63908500D01*
X144095487Y-63908500D01*
X144101939Y-63907128D01*
X144101944Y-63907128D01*
X144214303Y-63883245D01*
X144285094Y-63888647D01*
X144341727Y-63931464D01*
X144366220Y-63998102D01*
X144366500Y-64006492D01*
X144366500Y-64993508D01*
X144346498Y-65061629D01*
X144292842Y-65108122D01*
X144222568Y-65118226D01*
X144214303Y-65116755D01*
X144101944Y-65092872D01*
X144101939Y-65092872D01*
X144095487Y-65091500D01*
X143904513Y-65091500D01*
X143898061Y-65092872D01*
X143898056Y-65092872D01*
X143826313Y-65108122D01*
X143717712Y-65131206D01*
X143711682Y-65133891D01*
X143711681Y-65133891D01*
X143549278Y-65206197D01*
X143549276Y-65206198D01*
X143543248Y-65208882D01*
X143537907Y-65212762D01*
X143537906Y-65212763D01*
X143426961Y-65293370D01*
X143388747Y-65321134D01*
X143384332Y-65326037D01*
X143379420Y-65330460D01*
X143378295Y-65329211D01*
X143324986Y-65362051D01*
X143291800Y-65366500D01*
X142724595Y-65366500D01*
X142656474Y-65346498D01*
X142635500Y-65329595D01*
X137498720Y-60192815D01*
X137483604Y-60174545D01*
X137478972Y-60167729D01*
X137436845Y-60130589D01*
X137431075Y-60125170D01*
X137419770Y-60113865D01*
X137410364Y-60106569D01*
X137407126Y-60104057D01*
X137401028Y-60099012D01*
X137364856Y-60067122D01*
X137364855Y-60067122D01*
X137358910Y-60061880D01*
X137351845Y-60058280D01*
X137351571Y-60058140D01*
X137331550Y-60045434D01*
X137331310Y-60045248D01*
X137331306Y-60045246D01*
X137325041Y-60040386D01*
X137273489Y-60018077D01*
X137266358Y-60014722D01*
X137216296Y-59989215D01*
X137208251Y-59987417D01*
X137185706Y-59980091D01*
X137178145Y-59976819D01*
X137122675Y-59968033D01*
X137114899Y-59966549D01*
X137081475Y-59959078D01*
X137060091Y-59954298D01*
X137052168Y-59954547D01*
X137052167Y-59954547D01*
X137052106Y-59954549D01*
X137051856Y-59954557D01*
X137028185Y-59953067D01*
X137027889Y-59953020D01*
X137027886Y-59953020D01*
X137020057Y-59951780D01*
X137012165Y-59952526D01*
X137012164Y-59952526D01*
X136964143Y-59957065D01*
X136956246Y-59957562D01*
X136922611Y-59958620D01*
X136900110Y-59959327D01*
X136892201Y-59961625D01*
X136868907Y-59966068D01*
X136868598Y-59966097D01*
X136868597Y-59966097D01*
X136860708Y-59966843D01*
X136807852Y-59985872D01*
X136800342Y-59988312D01*
X136754019Y-60001770D01*
X136754016Y-60001771D01*
X136746407Y-60003982D01*
X136739587Y-60008016D01*
X136739579Y-60008019D01*
X136739312Y-60008177D01*
X136717868Y-60018267D01*
X136717577Y-60018372D01*
X136717569Y-60018376D01*
X136710111Y-60021061D01*
X136663635Y-60052646D01*
X136657004Y-60056855D01*
X136608638Y-60085458D01*
X136602818Y-60091278D01*
X136584547Y-60106394D01*
X136584290Y-60106569D01*
X136577729Y-60111028D01*
X136572485Y-60116976D01*
X136572484Y-60116977D01*
X136540582Y-60153163D01*
X136535163Y-60158933D01*
X136034841Y-60659255D01*
X135972529Y-60693281D01*
X135901714Y-60688216D01*
X135844878Y-60645669D01*
X135834707Y-60628340D01*
X135834527Y-60628444D01*
X135799972Y-60568593D01*
X135739040Y-60463056D01*
X135722882Y-60445110D01*
X135615675Y-60326045D01*
X135615674Y-60326044D01*
X135611253Y-60321134D01*
X135456752Y-60208882D01*
X135450724Y-60206198D01*
X135450722Y-60206197D01*
X135288319Y-60133891D01*
X135288318Y-60133891D01*
X135282288Y-60131206D01*
X135166381Y-60106569D01*
X135101944Y-60092872D01*
X135101939Y-60092872D01*
X135095487Y-60091500D01*
X134904513Y-60091500D01*
X134898061Y-60092872D01*
X134898056Y-60092872D01*
X134833619Y-60106569D01*
X134717712Y-60131206D01*
X134711682Y-60133891D01*
X134711681Y-60133891D01*
X134549278Y-60206197D01*
X134549276Y-60206198D01*
X134543248Y-60208882D01*
X134388747Y-60321134D01*
X134384332Y-60326037D01*
X134379420Y-60330460D01*
X134378295Y-60329211D01*
X134324986Y-60362051D01*
X134291800Y-60366500D01*
X128053458Y-60366500D01*
X128042274Y-60365973D01*
X128034786Y-60364299D01*
X128026863Y-60364548D01*
X127966728Y-60366438D01*
X127962770Y-60366500D01*
X127934839Y-60366500D01*
X127930924Y-60366995D01*
X127930920Y-60366995D01*
X127930862Y-60367003D01*
X127930833Y-60367006D01*
X127918991Y-60367939D01*
X127874805Y-60369327D01*
X127857439Y-60374372D01*
X127855353Y-60374978D01*
X127836001Y-60378986D01*
X127823763Y-60380532D01*
X127823761Y-60380533D01*
X127815898Y-60381526D01*
X127774781Y-60397806D01*
X127763580Y-60401641D01*
X127721101Y-60413982D01*
X127714282Y-60418015D01*
X127714277Y-60418017D01*
X127703666Y-60424293D01*
X127685916Y-60432990D01*
X127667078Y-60440448D01*
X127660662Y-60445109D01*
X127660661Y-60445110D01*
X127631320Y-60466428D01*
X127621396Y-60472947D01*
X127590155Y-60491422D01*
X127590150Y-60491426D01*
X127583332Y-60495458D01*
X127569008Y-60509782D01*
X127553976Y-60522621D01*
X127537588Y-60534528D01*
X127509407Y-60568593D01*
X127501417Y-60577373D01*
X119024195Y-69054595D01*
X118961883Y-69088621D01*
X118935100Y-69091500D01*
X118904513Y-69091500D01*
X118898061Y-69092872D01*
X118898056Y-69092872D01*
X118811112Y-69111353D01*
X118717712Y-69131206D01*
X118711682Y-69133891D01*
X118711681Y-69133891D01*
X118549278Y-69206197D01*
X118549276Y-69206198D01*
X118543248Y-69208882D01*
X118537907Y-69212762D01*
X118537906Y-69212763D01*
X118525184Y-69222006D01*
X118388747Y-69321134D01*
X118384326Y-69326044D01*
X118384325Y-69326045D01*
X118330268Y-69386082D01*
X118260960Y-69463056D01*
X118165473Y-69628444D01*
X118106458Y-69810072D01*
X118105768Y-69816633D01*
X118105768Y-69816635D01*
X118089093Y-69975292D01*
X118086496Y-70000000D01*
X110919155Y-70000000D01*
X110913096Y-69988905D01*
X110910907Y-69975292D01*
X110894232Y-69816635D01*
X110894232Y-69816633D01*
X110893542Y-69810072D01*
X110834527Y-69628444D01*
X110739040Y-69463056D01*
X110669733Y-69386082D01*
X110615675Y-69326045D01*
X110615674Y-69326044D01*
X110611253Y-69321134D01*
X110474816Y-69222006D01*
X110462094Y-69212763D01*
X110462093Y-69212762D01*
X110456752Y-69208882D01*
X110450724Y-69206198D01*
X110450722Y-69206197D01*
X110288319Y-69133891D01*
X110288318Y-69133891D01*
X110282288Y-69131206D01*
X110188888Y-69111353D01*
X110101944Y-69092872D01*
X110101939Y-69092872D01*
X110095487Y-69091500D01*
X109904513Y-69091500D01*
X109898061Y-69092872D01*
X109898056Y-69092872D01*
X109811112Y-69111353D01*
X109717712Y-69131206D01*
X109711682Y-69133891D01*
X109711681Y-69133891D01*
X109549278Y-69206197D01*
X109549276Y-69206198D01*
X109543248Y-69208882D01*
X109537907Y-69212762D01*
X109537906Y-69212763D01*
X109525184Y-69222006D01*
X109388747Y-69321134D01*
X109384326Y-69326044D01*
X109384325Y-69326045D01*
X109330268Y-69386082D01*
X109260960Y-69463056D01*
X109165473Y-69628444D01*
X109106458Y-69810072D01*
X109105768Y-69816633D01*
X109105768Y-69816635D01*
X109089093Y-69975292D01*
X109086496Y-70000000D01*
X109106458Y-70189928D01*
X109165473Y-70371556D01*
X109260960Y-70536944D01*
X109388747Y-70678866D01*
X109543248Y-70791118D01*
X109549276Y-70793802D01*
X109549278Y-70793803D01*
X109711681Y-70866109D01*
X109717712Y-70868794D01*
X109811113Y-70888647D01*
X109898056Y-70907128D01*
X109898061Y-70907128D01*
X109904513Y-70908500D01*
X109960406Y-70908500D01*
X110028527Y-70928502D01*
X110049501Y-70945405D01*
X110981748Y-71877653D01*
X111015773Y-71939963D01*
X111010708Y-72010778D01*
X110968161Y-72067614D01*
X110907243Y-72091500D01*
X110904513Y-72091500D01*
X110717712Y-72131206D01*
X110711682Y-72133891D01*
X110711681Y-72133891D01*
X110549278Y-72206197D01*
X110549276Y-72206198D01*
X110543248Y-72208882D01*
X110388747Y-72321134D01*
X110384326Y-72326044D01*
X110384325Y-72326045D01*
X110362932Y-72349805D01*
X110260960Y-72463056D01*
X110165473Y-72628444D01*
X110106458Y-72810072D01*
X110090000Y-72966667D01*
X110089093Y-72975293D01*
X110062080Y-73040950D01*
X110052878Y-73051218D01*
X107607747Y-75496348D01*
X107599461Y-75503888D01*
X107592982Y-75508000D01*
X107587557Y-75513777D01*
X107546357Y-75557651D01*
X107543602Y-75560493D01*
X107523865Y-75580230D01*
X107521385Y-75583427D01*
X107513682Y-75592447D01*
X107483414Y-75624679D01*
X107479595Y-75631625D01*
X107479593Y-75631628D01*
X107473652Y-75642434D01*
X107462801Y-75658953D01*
X107450386Y-75674959D01*
X107447241Y-75682228D01*
X107447238Y-75682232D01*
X107432826Y-75715537D01*
X107427609Y-75726187D01*
X107406305Y-75764940D01*
X107404334Y-75772615D01*
X107404334Y-75772616D01*
X107401267Y-75784562D01*
X107394863Y-75803266D01*
X107386819Y-75821855D01*
X107385580Y-75829678D01*
X107385577Y-75829688D01*
X107379901Y-75865524D01*
X107377495Y-75877144D01*
X107366500Y-75919970D01*
X107366500Y-75940224D01*
X107364949Y-75959934D01*
X107361780Y-75979943D01*
X107362526Y-75987835D01*
X107365941Y-76023961D01*
X107366500Y-76035819D01*
X107366500Y-81297476D01*
X107346498Y-81365597D01*
X107334142Y-81381779D01*
X107260960Y-81463056D01*
X107165473Y-81628444D01*
X107106458Y-81810072D01*
X107105768Y-81816633D01*
X107105768Y-81816635D01*
X107096903Y-81900984D01*
X107086496Y-82000000D01*
X94508500Y-82000000D01*
X94508500Y-66765420D01*
X107113575Y-66765420D01*
X107116358Y-66769138D01*
X107254400Y-66820475D01*
X107267991Y-66823864D01*
X107419808Y-66844121D01*
X107433804Y-66844414D01*
X107586331Y-66830533D01*
X107600055Y-66827716D01*
X107745719Y-66780387D01*
X107758469Y-66774603D01*
X107760299Y-66773512D01*
X107767802Y-66765420D01*
X108638575Y-66765420D01*
X108641358Y-66769138D01*
X108779400Y-66820475D01*
X108792991Y-66823864D01*
X108944808Y-66844121D01*
X108958804Y-66844414D01*
X109111331Y-66830533D01*
X109125055Y-66827716D01*
X109270719Y-66780387D01*
X109283469Y-66774603D01*
X109285299Y-66773512D01*
X109294887Y-66763171D01*
X109291381Y-66754757D01*
X108980312Y-66443688D01*
X108966368Y-66436074D01*
X108964533Y-66436205D01*
X108957923Y-66440453D01*
X108645334Y-66753041D01*
X108638575Y-66765420D01*
X107767802Y-66765420D01*
X107769887Y-66763171D01*
X107766381Y-66754757D01*
X107455312Y-66443688D01*
X107441368Y-66436074D01*
X107439533Y-66436205D01*
X107432923Y-66440453D01*
X107120334Y-66753041D01*
X107113575Y-66765420D01*
X94508500Y-66765420D01*
X94508500Y-66002920D01*
X106351075Y-66002920D01*
X106353858Y-66006638D01*
X106491900Y-66057975D01*
X106505491Y-66061364D01*
X106593542Y-66073112D01*
X106658419Y-66101947D01*
X106697407Y-66161280D01*
X106702277Y-66185709D01*
X106707990Y-66243971D01*
X106710901Y-66257664D01*
X106759246Y-66402993D01*
X106764213Y-66413743D01*
X106773988Y-66422680D01*
X106782607Y-66419018D01*
X107093816Y-66107808D01*
X107100193Y-66096129D01*
X107783574Y-66096129D01*
X107783705Y-66097967D01*
X107787955Y-66104579D01*
X108100122Y-66416747D01*
X108112501Y-66423506D01*
X108132006Y-66408905D01*
X108198527Y-66384094D01*
X108267901Y-66399186D01*
X108292533Y-66416779D01*
X108298988Y-66422680D01*
X108307607Y-66419018D01*
X108618816Y-66107808D01*
X108625193Y-66096129D01*
X109308574Y-66096129D01*
X109308705Y-66097967D01*
X109312955Y-66104579D01*
X109625122Y-66416747D01*
X109637501Y-66423506D01*
X109641317Y-66420649D01*
X109691646Y-66288157D01*
X109695128Y-66274596D01*
X109708321Y-66180724D01*
X109737609Y-66116050D01*
X109797213Y-66077477D01*
X109821676Y-66072778D01*
X109873840Y-66068031D01*
X109887555Y-66065216D01*
X110033219Y-66017887D01*
X110045969Y-66012103D01*
X110047799Y-66011012D01*
X110057387Y-66000671D01*
X110053881Y-65992257D01*
X109742812Y-65681188D01*
X109728868Y-65673574D01*
X109727033Y-65673705D01*
X109720423Y-65677953D01*
X109342505Y-66055870D01*
X109342503Y-66055872D01*
X109316185Y-66082191D01*
X109308574Y-66096129D01*
X108625193Y-66096129D01*
X108626427Y-66093870D01*
X108626295Y-66092034D01*
X108622046Y-66085422D01*
X108244130Y-65707505D01*
X108244128Y-65707503D01*
X108217809Y-65681185D01*
X108203871Y-65673574D01*
X108202033Y-65673705D01*
X108195421Y-65677955D01*
X107817505Y-66055870D01*
X107817503Y-66055872D01*
X107791185Y-66082191D01*
X107783574Y-66096129D01*
X107100193Y-66096129D01*
X107101427Y-66093870D01*
X107101295Y-66092034D01*
X107097046Y-66085422D01*
X106719130Y-65707505D01*
X106719128Y-65707503D01*
X106692809Y-65681185D01*
X106678871Y-65673574D01*
X106677033Y-65673705D01*
X106670421Y-65677955D01*
X106357834Y-65990541D01*
X106351075Y-66002920D01*
X94508500Y-66002920D01*
X94508500Y-65329037D01*
X105930544Y-65329037D01*
X105945490Y-65481470D01*
X105948401Y-65495164D01*
X105996746Y-65640493D01*
X106001713Y-65651243D01*
X106011488Y-65660180D01*
X106020107Y-65656518D01*
X106331316Y-65345308D01*
X106337693Y-65333629D01*
X107021074Y-65333629D01*
X107021205Y-65335468D01*
X107025453Y-65342077D01*
X107055005Y-65371630D01*
X107055004Y-65371630D01*
X107055005Y-65371631D01*
X107429690Y-65746315D01*
X107443630Y-65753927D01*
X107445466Y-65753795D01*
X107452078Y-65749546D01*
X107829995Y-65371630D01*
X107829997Y-65371628D01*
X107856315Y-65345309D01*
X107862693Y-65333629D01*
X108546074Y-65333629D01*
X108546205Y-65335468D01*
X108550453Y-65342077D01*
X108580005Y-65371630D01*
X108580004Y-65371630D01*
X108580005Y-65371631D01*
X108954690Y-65746315D01*
X108968630Y-65753927D01*
X108970466Y-65753795D01*
X108977078Y-65749546D01*
X109354995Y-65371630D01*
X109354997Y-65371628D01*
X109381315Y-65345309D01*
X109387692Y-65333630D01*
X110071073Y-65333630D01*
X110071205Y-65335466D01*
X110075454Y-65342078D01*
X110387622Y-65654247D01*
X110400001Y-65661006D01*
X110403817Y-65658149D01*
X110454146Y-65525657D01*
X110457628Y-65512096D01*
X110479374Y-65357369D01*
X110479980Y-65349487D01*
X110480162Y-65336447D01*
X110479777Y-65328577D01*
X110462359Y-65173290D01*
X110459257Y-65159637D01*
X110408889Y-65015000D01*
X110406976Y-65011009D01*
X110399271Y-65004159D01*
X110390220Y-65008155D01*
X110078684Y-65319692D01*
X110071073Y-65333630D01*
X109387692Y-65333630D01*
X109388926Y-65331371D01*
X109388795Y-65329533D01*
X109384545Y-65322921D01*
X109061625Y-65000000D01*
X113086496Y-65000000D01*
X113106458Y-65189928D01*
X113165473Y-65371556D01*
X113260960Y-65536944D01*
X113388747Y-65678866D01*
X113428165Y-65707505D01*
X113514244Y-65770045D01*
X113543248Y-65791118D01*
X113549276Y-65793802D01*
X113549278Y-65793803D01*
X113600560Y-65816635D01*
X113717712Y-65868794D01*
X113811112Y-65888647D01*
X113898056Y-65907128D01*
X113898061Y-65907128D01*
X113904513Y-65908500D01*
X114095487Y-65908500D01*
X114101939Y-65907128D01*
X114101944Y-65907128D01*
X114188888Y-65888647D01*
X114282288Y-65868794D01*
X114399440Y-65816635D01*
X114450722Y-65793803D01*
X114450724Y-65793802D01*
X114456752Y-65791118D01*
X114485757Y-65770045D01*
X114602253Y-65685405D01*
X114611253Y-65678866D01*
X114615668Y-65673963D01*
X114620580Y-65669540D01*
X114621705Y-65670789D01*
X114675014Y-65637949D01*
X114708200Y-65633500D01*
X119291800Y-65633500D01*
X119359921Y-65653502D01*
X119379147Y-65669843D01*
X119379420Y-65669540D01*
X119384332Y-65673963D01*
X119388747Y-65678866D01*
X119397747Y-65685405D01*
X119514244Y-65770045D01*
X119543248Y-65791118D01*
X119549276Y-65793802D01*
X119549278Y-65793803D01*
X119600560Y-65816635D01*
X119717712Y-65868794D01*
X119811112Y-65888647D01*
X119898056Y-65907128D01*
X119898061Y-65907128D01*
X119904513Y-65908500D01*
X120095487Y-65908500D01*
X120101939Y-65907128D01*
X120101944Y-65907128D01*
X120188888Y-65888647D01*
X120282288Y-65868794D01*
X120399440Y-65816635D01*
X120450722Y-65793803D01*
X120450724Y-65793802D01*
X120456752Y-65791118D01*
X120485757Y-65770045D01*
X120571835Y-65707505D01*
X120611253Y-65678866D01*
X120739040Y-65536944D01*
X120834527Y-65371556D01*
X120893542Y-65189928D01*
X120913504Y-65000000D01*
X120912143Y-64987047D01*
X120894232Y-64816635D01*
X120894232Y-64816633D01*
X120893542Y-64810072D01*
X120834527Y-64628444D01*
X120739040Y-64463056D01*
X120669733Y-64386082D01*
X120615675Y-64326045D01*
X120615674Y-64326044D01*
X120611253Y-64321134D01*
X120512157Y-64249136D01*
X120462094Y-64212763D01*
X120462093Y-64212762D01*
X120456752Y-64208882D01*
X120450724Y-64206198D01*
X120450722Y-64206197D01*
X120288319Y-64133891D01*
X120288318Y-64133891D01*
X120282288Y-64131206D01*
X120188888Y-64111353D01*
X120101944Y-64092872D01*
X120101939Y-64092872D01*
X120095487Y-64091500D01*
X119904513Y-64091500D01*
X119898061Y-64092872D01*
X119898056Y-64092872D01*
X119811112Y-64111353D01*
X119717712Y-64131206D01*
X119711682Y-64133891D01*
X119711681Y-64133891D01*
X119549278Y-64206197D01*
X119549276Y-64206198D01*
X119543248Y-64208882D01*
X119537907Y-64212762D01*
X119537906Y-64212763D01*
X119410329Y-64305454D01*
X119388747Y-64321134D01*
X119384332Y-64326037D01*
X119379420Y-64330460D01*
X119378295Y-64329211D01*
X119324986Y-64362051D01*
X119291800Y-64366500D01*
X114708200Y-64366500D01*
X114640079Y-64346498D01*
X114620853Y-64330157D01*
X114620580Y-64330460D01*
X114615668Y-64326037D01*
X114611253Y-64321134D01*
X114589671Y-64305454D01*
X114462094Y-64212763D01*
X114462093Y-64212762D01*
X114456752Y-64208882D01*
X114450724Y-64206198D01*
X114450722Y-64206197D01*
X114288319Y-64133891D01*
X114288318Y-64133891D01*
X114282288Y-64131206D01*
X114188888Y-64111353D01*
X114101944Y-64092872D01*
X114101939Y-64092872D01*
X114095487Y-64091500D01*
X113904513Y-64091500D01*
X113898061Y-64092872D01*
X113898056Y-64092872D01*
X113811112Y-64111353D01*
X113717712Y-64131206D01*
X113711682Y-64133891D01*
X113711681Y-64133891D01*
X113549278Y-64206197D01*
X113549276Y-64206198D01*
X113543248Y-64208882D01*
X113537907Y-64212762D01*
X113537906Y-64212763D01*
X113487843Y-64249136D01*
X113388747Y-64321134D01*
X113384326Y-64326044D01*
X113384325Y-64326045D01*
X113330268Y-64386082D01*
X113260960Y-64463056D01*
X113165473Y-64628444D01*
X113106458Y-64810072D01*
X113105768Y-64816633D01*
X113105768Y-64816635D01*
X113087857Y-64987047D01*
X113086496Y-65000000D01*
X109061625Y-65000000D01*
X109006630Y-64945005D01*
X109006628Y-64945003D01*
X108980309Y-64918685D01*
X108966371Y-64911074D01*
X108964533Y-64911205D01*
X108957921Y-64915455D01*
X108580005Y-65293370D01*
X108580003Y-65293372D01*
X108553685Y-65319691D01*
X108546074Y-65333629D01*
X107862693Y-65333629D01*
X107863926Y-65331371D01*
X107863795Y-65329533D01*
X107859545Y-65322921D01*
X107481630Y-64945005D01*
X107481628Y-64945003D01*
X107455309Y-64918685D01*
X107441371Y-64911074D01*
X107439533Y-64911205D01*
X107432921Y-64915455D01*
X107055005Y-65293370D01*
X107055003Y-65293372D01*
X107028685Y-65319691D01*
X107021074Y-65333629D01*
X106337693Y-65333629D01*
X106338927Y-65331370D01*
X106338795Y-65329534D01*
X106334546Y-65322922D01*
X106021825Y-65010201D01*
X106009445Y-65003441D01*
X106005231Y-65006596D01*
X105953227Y-65149473D01*
X105949935Y-65163081D01*
X105930740Y-65315031D01*
X105930544Y-65329037D01*
X94508500Y-65329037D01*
X94508500Y-64477920D01*
X106351075Y-64477920D01*
X106365362Y-64497005D01*
X106390173Y-64563525D01*
X106375082Y-64632899D01*
X106358075Y-64656886D01*
X106352003Y-64663621D01*
X106355827Y-64672451D01*
X106667188Y-64983812D01*
X106681132Y-64991426D01*
X106682967Y-64991295D01*
X106689577Y-64987047D01*
X107067495Y-64609130D01*
X107067497Y-64609128D01*
X107093815Y-64582809D01*
X107100193Y-64571129D01*
X107783574Y-64571129D01*
X107783705Y-64572968D01*
X107787953Y-64579577D01*
X107817505Y-64609130D01*
X107817504Y-64609130D01*
X107817505Y-64609131D01*
X108192190Y-64983815D01*
X108206130Y-64991427D01*
X108207966Y-64991295D01*
X108214578Y-64987046D01*
X108592495Y-64609130D01*
X108592497Y-64609128D01*
X108618815Y-64582809D01*
X108625193Y-64571129D01*
X109308574Y-64571129D01*
X109308705Y-64572968D01*
X109312953Y-64579577D01*
X109342505Y-64609130D01*
X109342504Y-64609130D01*
X109342505Y-64609131D01*
X109717190Y-64983815D01*
X109731130Y-64991427D01*
X109732966Y-64991295D01*
X109739578Y-64987046D01*
X110051900Y-64674725D01*
X110058659Y-64662347D01*
X110043745Y-64642425D01*
X110018934Y-64575905D01*
X110034025Y-64506530D01*
X110052218Y-64481246D01*
X110057387Y-64475671D01*
X110053881Y-64467257D01*
X109742812Y-64156188D01*
X109728868Y-64148574D01*
X109727033Y-64148705D01*
X109720423Y-64152953D01*
X109342505Y-64530870D01*
X109342503Y-64530872D01*
X109316185Y-64557191D01*
X109308574Y-64571129D01*
X108625193Y-64571129D01*
X108626426Y-64568871D01*
X108626295Y-64567033D01*
X108622045Y-64560421D01*
X108244130Y-64182505D01*
X108244128Y-64182503D01*
X108217809Y-64156185D01*
X108203871Y-64148574D01*
X108202033Y-64148705D01*
X108195421Y-64152955D01*
X107817505Y-64530870D01*
X107817503Y-64530872D01*
X107791185Y-64557191D01*
X107783574Y-64571129D01*
X107100193Y-64571129D01*
X107101426Y-64568871D01*
X107101295Y-64567033D01*
X107097045Y-64560421D01*
X106719130Y-64182505D01*
X106719128Y-64182503D01*
X106692809Y-64156185D01*
X106678871Y-64148574D01*
X106677033Y-64148705D01*
X106670421Y-64152955D01*
X106357834Y-64465541D01*
X106351075Y-64477920D01*
X94508500Y-64477920D01*
X94508500Y-63804037D01*
X105930544Y-63804037D01*
X105945490Y-63956470D01*
X105948401Y-63970164D01*
X105996746Y-64115493D01*
X106001713Y-64126243D01*
X106011488Y-64135180D01*
X106020107Y-64131518D01*
X106331316Y-63820308D01*
X106337693Y-63808629D01*
X107021074Y-63808629D01*
X107021205Y-63810468D01*
X107025453Y-63817077D01*
X107055005Y-63846630D01*
X107055004Y-63846630D01*
X107055005Y-63846631D01*
X107429690Y-64221315D01*
X107443630Y-64228927D01*
X107445466Y-64228795D01*
X107452078Y-64224546D01*
X107829995Y-63846630D01*
X107829997Y-63846628D01*
X107856315Y-63820309D01*
X107862693Y-63808629D01*
X108546074Y-63808629D01*
X108546205Y-63810468D01*
X108550453Y-63817077D01*
X108580005Y-63846630D01*
X108580004Y-63846630D01*
X108580005Y-63846631D01*
X108954690Y-64221315D01*
X108968630Y-64228927D01*
X108970466Y-64228795D01*
X108977078Y-64224546D01*
X109354995Y-63846630D01*
X109354997Y-63846628D01*
X109381315Y-63820309D01*
X109387692Y-63808630D01*
X110071073Y-63808630D01*
X110071205Y-63810466D01*
X110075454Y-63817078D01*
X110387622Y-64129247D01*
X110400001Y-64136006D01*
X110403817Y-64133149D01*
X110454146Y-64000657D01*
X110457628Y-63987096D01*
X110479374Y-63832369D01*
X110479980Y-63824487D01*
X110480162Y-63811447D01*
X110479777Y-63803577D01*
X110462359Y-63648290D01*
X110459257Y-63634637D01*
X110408889Y-63490000D01*
X110406976Y-63486009D01*
X110399271Y-63479159D01*
X110390220Y-63483155D01*
X110078684Y-63794692D01*
X110071073Y-63808630D01*
X109387692Y-63808630D01*
X109388926Y-63806371D01*
X109388795Y-63804533D01*
X109384545Y-63797921D01*
X109006630Y-63420005D01*
X109006628Y-63420003D01*
X108980309Y-63393685D01*
X108966371Y-63386074D01*
X108964533Y-63386205D01*
X108957921Y-63390455D01*
X108580005Y-63768370D01*
X108580003Y-63768372D01*
X108553685Y-63794691D01*
X108546074Y-63808629D01*
X107862693Y-63808629D01*
X107863926Y-63806371D01*
X107863795Y-63804533D01*
X107859545Y-63797921D01*
X107481630Y-63420005D01*
X107481628Y-63420003D01*
X107455309Y-63393685D01*
X107441371Y-63386074D01*
X107439533Y-63386205D01*
X107432921Y-63390455D01*
X107055005Y-63768370D01*
X107055003Y-63768372D01*
X107028685Y-63794691D01*
X107021074Y-63808629D01*
X106337693Y-63808629D01*
X106338927Y-63806370D01*
X106338795Y-63804534D01*
X106334546Y-63797922D01*
X106021825Y-63485201D01*
X106009445Y-63478441D01*
X106005231Y-63481596D01*
X105953227Y-63624473D01*
X105949935Y-63638081D01*
X105930740Y-63790031D01*
X105930544Y-63804037D01*
X94508500Y-63804037D01*
X94508500Y-63138621D01*
X106352003Y-63138621D01*
X106355827Y-63147451D01*
X106667188Y-63458812D01*
X106681132Y-63466426D01*
X106682967Y-63466295D01*
X106689577Y-63462047D01*
X107067495Y-63084130D01*
X107067497Y-63084128D01*
X107093815Y-63057809D01*
X107100192Y-63046130D01*
X107783573Y-63046130D01*
X107783705Y-63047966D01*
X107787954Y-63054578D01*
X107817505Y-63084130D01*
X107817504Y-63084130D01*
X107817505Y-63084131D01*
X108192190Y-63458815D01*
X108206130Y-63466427D01*
X108207966Y-63466295D01*
X108214578Y-63462046D01*
X108592495Y-63084130D01*
X108592497Y-63084128D01*
X108618815Y-63057809D01*
X108625192Y-63046130D01*
X109308573Y-63046130D01*
X109308705Y-63047966D01*
X109312954Y-63054578D01*
X109342505Y-63084130D01*
X109342504Y-63084130D01*
X109342505Y-63084131D01*
X109717190Y-63458815D01*
X109731130Y-63466427D01*
X109732966Y-63466295D01*
X109739578Y-63462046D01*
X110051900Y-63149725D01*
X110058659Y-63137346D01*
X110054689Y-63132043D01*
X110052232Y-63130844D01*
X109907948Y-63079467D01*
X109894323Y-63076272D01*
X109818041Y-63067175D01*
X109752768Y-63039247D01*
X109712956Y-62980464D01*
X109707746Y-62956106D01*
X109699859Y-62885790D01*
X109696757Y-62872137D01*
X109646389Y-62727500D01*
X109644476Y-62723509D01*
X109636771Y-62716659D01*
X109627720Y-62720655D01*
X109316184Y-63032192D01*
X109308573Y-63046130D01*
X108625192Y-63046130D01*
X108626426Y-63043871D01*
X108626295Y-63042034D01*
X108622044Y-63035420D01*
X108309325Y-62722701D01*
X108296945Y-62715941D01*
X108278329Y-62729877D01*
X108211809Y-62754688D01*
X108142435Y-62739597D01*
X108119110Y-62723183D01*
X108111771Y-62716659D01*
X108102720Y-62720655D01*
X107791184Y-63032192D01*
X107783573Y-63046130D01*
X107100192Y-63046130D01*
X107101426Y-63043871D01*
X107101295Y-63042034D01*
X107097044Y-63035420D01*
X106784325Y-62722701D01*
X106771945Y-62715941D01*
X106767731Y-62719096D01*
X106715727Y-62861973D01*
X106712435Y-62875582D01*
X106702052Y-62957770D01*
X106673670Y-63022847D01*
X106614610Y-63062248D01*
X106590217Y-63067288D01*
X106525902Y-63074048D01*
X106512238Y-63077053D01*
X106367243Y-63126412D01*
X106359889Y-63129873D01*
X106352003Y-63138621D01*
X94508500Y-63138621D01*
X94508500Y-62376121D01*
X107114503Y-62376121D01*
X107118327Y-62384951D01*
X107429688Y-62696312D01*
X107443632Y-62703926D01*
X107445467Y-62703795D01*
X107452077Y-62699547D01*
X107764400Y-62387225D01*
X107770463Y-62376121D01*
X108639503Y-62376121D01*
X108643327Y-62384951D01*
X108954688Y-62696312D01*
X108968632Y-62703926D01*
X108970467Y-62703795D01*
X108977077Y-62699547D01*
X109289400Y-62387225D01*
X109296159Y-62374846D01*
X109292189Y-62369543D01*
X109289732Y-62368344D01*
X109145448Y-62316967D01*
X109131822Y-62313771D01*
X108979729Y-62295635D01*
X108965733Y-62295537D01*
X108813402Y-62311548D01*
X108799738Y-62314553D01*
X108654743Y-62363912D01*
X108647389Y-62367373D01*
X108639503Y-62376121D01*
X107770463Y-62376121D01*
X107771159Y-62374846D01*
X107767189Y-62369543D01*
X107764732Y-62368344D01*
X107620448Y-62316967D01*
X107606822Y-62313771D01*
X107454729Y-62295635D01*
X107440733Y-62295537D01*
X107288402Y-62311548D01*
X107274738Y-62314553D01*
X107129743Y-62363912D01*
X107122389Y-62367373D01*
X107114503Y-62376121D01*
X94508500Y-62376121D01*
X94508500Y-61000000D01*
X102086496Y-61000000D01*
X102106458Y-61189928D01*
X102165473Y-61371556D01*
X102168776Y-61377278D01*
X102168777Y-61377279D01*
X102180261Y-61397169D01*
X102260960Y-61536944D01*
X102265378Y-61541851D01*
X102265379Y-61541852D01*
X102384325Y-61673955D01*
X102388747Y-61678866D01*
X102543248Y-61791118D01*
X102549276Y-61793802D01*
X102549278Y-61793803D01*
X102666931Y-61846185D01*
X102717712Y-61868794D01*
X102811112Y-61888647D01*
X102898056Y-61907128D01*
X102898061Y-61907128D01*
X102904513Y-61908500D01*
X103095487Y-61908500D01*
X103101939Y-61907128D01*
X103101944Y-61907128D01*
X103188888Y-61888647D01*
X103282288Y-61868794D01*
X103333069Y-61846185D01*
X103450722Y-61793803D01*
X103450724Y-61793802D01*
X103456752Y-61791118D01*
X103611253Y-61678866D01*
X103615668Y-61673963D01*
X103620580Y-61669540D01*
X103621705Y-61670789D01*
X103675014Y-61637949D01*
X103708200Y-61633500D01*
X103921233Y-61633500D01*
X103932416Y-61634027D01*
X103939909Y-61635702D01*
X103947835Y-61635453D01*
X103947836Y-61635453D01*
X104007986Y-61633562D01*
X104011945Y-61633500D01*
X104039856Y-61633500D01*
X104043791Y-61633003D01*
X104043856Y-61632995D01*
X104055693Y-61632062D01*
X104087951Y-61631048D01*
X104091970Y-61630922D01*
X104099889Y-61630673D01*
X104119343Y-61625021D01*
X104138700Y-61621013D01*
X104150930Y-61619468D01*
X104150931Y-61619468D01*
X104158797Y-61618474D01*
X104166168Y-61615555D01*
X104166170Y-61615555D01*
X104199912Y-61602196D01*
X104211142Y-61598351D01*
X104245983Y-61588229D01*
X104245984Y-61588229D01*
X104253593Y-61586018D01*
X104260412Y-61581985D01*
X104260417Y-61581983D01*
X104271028Y-61575707D01*
X104288776Y-61567012D01*
X104307617Y-61559552D01*
X104343387Y-61533564D01*
X104353307Y-61527048D01*
X104384535Y-61508580D01*
X104384538Y-61508578D01*
X104391362Y-61504542D01*
X104405683Y-61490221D01*
X104420717Y-61477380D01*
X104430694Y-61470131D01*
X104437107Y-61465472D01*
X104465298Y-61431395D01*
X104473288Y-61422616D01*
X107225499Y-58670405D01*
X107287811Y-58636379D01*
X107314594Y-58633500D01*
X119291800Y-58633500D01*
X119359921Y-58653502D01*
X119379147Y-58669843D01*
X119379420Y-58669540D01*
X119384332Y-58673963D01*
X119388747Y-58678866D01*
X119410329Y-58694546D01*
X119523401Y-58776698D01*
X119543248Y-58791118D01*
X119549276Y-58793802D01*
X119549278Y-58793803D01*
X119711681Y-58866109D01*
X119717712Y-58868794D01*
X119811113Y-58888647D01*
X119898056Y-58907128D01*
X119898061Y-58907128D01*
X119904513Y-58908500D01*
X120095487Y-58908500D01*
X120101939Y-58907128D01*
X120101944Y-58907128D01*
X120188887Y-58888647D01*
X120282288Y-58868794D01*
X120288319Y-58866109D01*
X120450722Y-58793803D01*
X120450724Y-58793802D01*
X120456752Y-58791118D01*
X120476600Y-58776698D01*
X120568695Y-58709786D01*
X120611253Y-58678866D01*
X120619650Y-58669540D01*
X120734621Y-58541852D01*
X120734622Y-58541851D01*
X120739040Y-58536944D01*
X120828147Y-58382606D01*
X120831223Y-58377279D01*
X120831224Y-58377278D01*
X120834527Y-58371556D01*
X120893542Y-58189928D01*
X120894781Y-58178145D01*
X120912310Y-58011362D01*
X137057966Y-58011362D01*
X137061400Y-58046388D01*
X137062001Y-58058684D01*
X137062001Y-58309669D01*
X137062371Y-58316490D01*
X137067895Y-58367352D01*
X137071521Y-58382604D01*
X137116676Y-58503054D01*
X137125214Y-58518649D01*
X137201715Y-58620724D01*
X137214276Y-58633285D01*
X137316351Y-58709786D01*
X137331946Y-58718324D01*
X137452394Y-58763478D01*
X137467649Y-58767105D01*
X137518514Y-58772631D01*
X137525328Y-58773000D01*
X137760964Y-58773000D01*
X137777628Y-58774107D01*
X137797043Y-58776697D01*
X137811040Y-58776991D01*
X137849187Y-58773519D01*
X137860607Y-58773000D01*
X138297885Y-58773000D01*
X138313124Y-58768525D01*
X138314329Y-58767135D01*
X138316000Y-58759452D01*
X138316000Y-58754884D01*
X138824000Y-58754884D01*
X138828475Y-58770123D01*
X138829865Y-58771328D01*
X138837548Y-58772999D01*
X139260957Y-58772999D01*
X139277622Y-58774106D01*
X139297044Y-58776698D01*
X139311040Y-58776991D01*
X139349195Y-58773518D01*
X139360615Y-58772999D01*
X139614669Y-58772999D01*
X139621490Y-58772629D01*
X139672352Y-58767105D01*
X139687604Y-58763479D01*
X139808054Y-58718324D01*
X139823649Y-58709786D01*
X139925724Y-58633285D01*
X139938285Y-58620724D01*
X140014786Y-58518649D01*
X140023324Y-58503054D01*
X140068478Y-58382606D01*
X140072105Y-58367351D01*
X140077631Y-58316486D01*
X140078000Y-58309672D01*
X140078000Y-58077123D01*
X140079226Y-58059587D01*
X140081948Y-58040222D01*
X140082554Y-58032338D01*
X140082741Y-58018962D01*
X140082354Y-58011062D01*
X140078785Y-57979241D01*
X140078000Y-57965196D01*
X140078000Y-56787115D01*
X140073525Y-56771876D01*
X140072135Y-56770671D01*
X140064452Y-56769000D01*
X139437668Y-56769000D01*
X139412023Y-56776530D01*
X139021601Y-57166952D01*
X138959289Y-57200978D01*
X138888474Y-57195913D01*
X138843411Y-57166952D01*
X138836811Y-57160352D01*
X138826723Y-57154844D01*
X138824000Y-57162146D01*
X138824000Y-57364343D01*
X138827237Y-57375368D01*
X138834330Y-57372129D01*
X138843411Y-57363048D01*
X138905723Y-57329022D01*
X138976538Y-57334087D01*
X139021601Y-57363048D01*
X139584458Y-57925905D01*
X139618484Y-57988217D01*
X139613419Y-58059032D01*
X139584458Y-58104095D01*
X139021601Y-58666952D01*
X138959289Y-58700978D01*
X138888474Y-58695913D01*
X138843411Y-58666952D01*
X138836811Y-58660352D01*
X138826723Y-58654844D01*
X138824000Y-58662146D01*
X138824000Y-58754884D01*
X138316000Y-58754884D01*
X138316000Y-58665657D01*
X138312763Y-58654632D01*
X138305670Y-58657871D01*
X138296589Y-58666952D01*
X138234277Y-58700978D01*
X138163462Y-58695913D01*
X138118399Y-58666952D01*
X137555542Y-58104095D01*
X137521516Y-58041783D01*
X137523351Y-58016132D01*
X138178751Y-58016132D01*
X138178882Y-58017965D01*
X138183133Y-58024580D01*
X138303188Y-58144635D01*
X138313277Y-58150144D01*
X138316000Y-58142843D01*
X138316000Y-58139332D01*
X138824000Y-58139332D01*
X138827237Y-58150357D01*
X138834328Y-58147119D01*
X138953635Y-58027812D01*
X138961249Y-58013868D01*
X138961118Y-58012035D01*
X138956867Y-58005420D01*
X138836812Y-57885365D01*
X138826723Y-57879856D01*
X138824000Y-57887157D01*
X138824000Y-58139332D01*
X138316000Y-58139332D01*
X138316000Y-57890668D01*
X138312763Y-57879643D01*
X138305672Y-57882881D01*
X138186365Y-58002188D01*
X138178751Y-58016132D01*
X137523351Y-58016132D01*
X137526581Y-57970968D01*
X137555542Y-57925905D01*
X138118399Y-57363048D01*
X138180711Y-57329022D01*
X138251526Y-57334087D01*
X138296589Y-57363048D01*
X138303189Y-57369648D01*
X138313277Y-57375156D01*
X138316000Y-57367854D01*
X138316000Y-57165657D01*
X138312763Y-57154632D01*
X138305670Y-57157871D01*
X138296589Y-57166952D01*
X138234277Y-57200978D01*
X138163462Y-57195913D01*
X138118399Y-57166952D01*
X137733259Y-56781812D01*
X137709797Y-56769000D01*
X137080116Y-56769000D01*
X137064877Y-56773475D01*
X137063672Y-56774865D01*
X137062001Y-56782548D01*
X137062001Y-57959040D01*
X137061007Y-57974833D01*
X137058162Y-57997356D01*
X137057966Y-58011362D01*
X120912310Y-58011362D01*
X120912814Y-58006565D01*
X120913504Y-58000000D01*
X120901456Y-57885365D01*
X120894232Y-57816635D01*
X120894232Y-57816633D01*
X120893542Y-57810072D01*
X120834527Y-57628444D01*
X120739040Y-57463056D01*
X120722881Y-57445109D01*
X120615675Y-57326045D01*
X120615674Y-57326044D01*
X120611253Y-57321134D01*
X120456752Y-57208882D01*
X120450724Y-57206198D01*
X120450722Y-57206197D01*
X120288319Y-57133891D01*
X120288318Y-57133891D01*
X120282288Y-57131206D01*
X120188888Y-57111353D01*
X120101944Y-57092872D01*
X120101939Y-57092872D01*
X120095487Y-57091500D01*
X119904513Y-57091500D01*
X119898061Y-57092872D01*
X119898056Y-57092872D01*
X119811112Y-57111353D01*
X119717712Y-57131206D01*
X119711682Y-57133891D01*
X119711681Y-57133891D01*
X119549278Y-57206197D01*
X119549276Y-57206198D01*
X119543248Y-57208882D01*
X119388747Y-57321134D01*
X119384332Y-57326037D01*
X119379420Y-57330460D01*
X119378295Y-57329211D01*
X119324986Y-57362051D01*
X119291800Y-57366500D01*
X107078768Y-57366500D01*
X107067585Y-57365973D01*
X107060092Y-57364298D01*
X107052166Y-57364547D01*
X107052165Y-57364547D01*
X106992002Y-57366438D01*
X106988044Y-57366500D01*
X106960144Y-57366500D01*
X106956154Y-57367004D01*
X106944320Y-57367936D01*
X106900111Y-57369326D01*
X106892495Y-57371539D01*
X106892493Y-57371539D01*
X106880652Y-57374979D01*
X106861293Y-57378988D01*
X106859983Y-57379154D01*
X106841203Y-57381526D01*
X106833837Y-57384442D01*
X106833831Y-57384444D01*
X106800098Y-57397800D01*
X106788868Y-57401645D01*
X106754017Y-57411770D01*
X106746407Y-57413981D01*
X106739584Y-57418016D01*
X106728966Y-57424295D01*
X106711213Y-57432992D01*
X106703568Y-57436019D01*
X106692383Y-57440448D01*
X106685968Y-57445109D01*
X106656612Y-57466437D01*
X106646695Y-57472951D01*
X106608638Y-57495458D01*
X106594317Y-57509779D01*
X106579284Y-57522619D01*
X106562893Y-57534528D01*
X106557842Y-57540634D01*
X106534702Y-57568605D01*
X106526712Y-57577384D01*
X103785666Y-60318429D01*
X103723354Y-60352455D01*
X103652538Y-60347390D01*
X103613683Y-60323833D01*
X103611253Y-60321134D01*
X103456752Y-60208882D01*
X103450724Y-60206198D01*
X103450722Y-60206197D01*
X103288319Y-60133891D01*
X103288318Y-60133891D01*
X103282288Y-60131206D01*
X103166381Y-60106569D01*
X103101944Y-60092872D01*
X103101939Y-60092872D01*
X103095487Y-60091500D01*
X102904513Y-60091500D01*
X102898061Y-60092872D01*
X102898056Y-60092872D01*
X102833619Y-60106569D01*
X102717712Y-60131206D01*
X102711682Y-60133891D01*
X102711681Y-60133891D01*
X102549278Y-60206197D01*
X102549276Y-60206198D01*
X102543248Y-60208882D01*
X102388747Y-60321134D01*
X102384326Y-60326044D01*
X102384325Y-60326045D01*
X102277119Y-60445110D01*
X102260960Y-60463056D01*
X102165473Y-60628444D01*
X102106458Y-60810072D01*
X102086496Y-61000000D01*
X94508500Y-61000000D01*
X94508500Y-56726000D01*
X94528502Y-56657879D01*
X94582158Y-56611386D01*
X94634500Y-56600000D01*
X124460000Y-56600000D01*
X124460000Y-56000000D01*
X131086496Y-56000000D01*
X131106458Y-56189928D01*
X131165473Y-56371556D01*
X131168776Y-56377278D01*
X131168777Y-56377279D01*
X131175283Y-56388547D01*
X131260960Y-56536944D01*
X131265378Y-56541851D01*
X131265379Y-56541852D01*
X131384325Y-56673955D01*
X131388747Y-56678866D01*
X131453621Y-56726000D01*
X131518965Y-56773475D01*
X131543248Y-56791118D01*
X131549276Y-56793802D01*
X131549278Y-56793803D01*
X131711681Y-56866109D01*
X131717712Y-56868794D01*
X131811112Y-56888647D01*
X131898056Y-56907128D01*
X131898061Y-56907128D01*
X131904513Y-56908500D01*
X132095487Y-56908500D01*
X132101939Y-56907128D01*
X132101944Y-56907128D01*
X132188888Y-56888647D01*
X132282288Y-56868794D01*
X132288319Y-56866109D01*
X132450722Y-56793803D01*
X132450724Y-56793802D01*
X132456752Y-56791118D01*
X132481036Y-56773475D01*
X132546379Y-56726000D01*
X132611253Y-56678866D01*
X132615675Y-56673955D01*
X132734621Y-56541852D01*
X132734622Y-56541851D01*
X132739040Y-56536944D01*
X132824717Y-56388547D01*
X132831223Y-56377279D01*
X132831224Y-56377278D01*
X132834527Y-56371556D01*
X132893542Y-56189928D01*
X132913504Y-56000000D01*
X132900383Y-55875156D01*
X132894232Y-55816635D01*
X132894232Y-55816633D01*
X132893542Y-55810072D01*
X132834527Y-55628444D01*
X132812475Y-55590248D01*
X132742341Y-55468774D01*
X132739040Y-55463056D01*
X132665863Y-55381785D01*
X132635147Y-55317779D01*
X132633500Y-55297476D01*
X132633500Y-55011363D01*
X137057966Y-55011363D01*
X137061399Y-55046379D01*
X137062000Y-55058675D01*
X137062000Y-56242885D01*
X137066475Y-56258124D01*
X137067865Y-56259329D01*
X137075548Y-56261000D01*
X137702332Y-56261000D01*
X137727977Y-56253470D01*
X138118399Y-55863048D01*
X138180711Y-55829022D01*
X138251526Y-55834087D01*
X138296589Y-55863048D01*
X138303189Y-55869648D01*
X138313277Y-55875156D01*
X138316000Y-55867854D01*
X138316000Y-55864343D01*
X138824000Y-55864343D01*
X138827237Y-55875368D01*
X138834330Y-55872129D01*
X138843411Y-55863048D01*
X138905723Y-55829022D01*
X138976538Y-55834087D01*
X139021601Y-55863048D01*
X139406741Y-56248188D01*
X139430203Y-56261000D01*
X140059884Y-56261000D01*
X140075123Y-56256525D01*
X140076328Y-56255135D01*
X140077999Y-56247452D01*
X140077999Y-55077130D01*
X140079225Y-55059593D01*
X140081948Y-55040219D01*
X140082554Y-55032340D01*
X140082741Y-55018962D01*
X140082354Y-55011062D01*
X140078784Y-54979233D01*
X140077999Y-54965188D01*
X140077999Y-54720331D01*
X140077629Y-54713510D01*
X140072105Y-54662648D01*
X140068479Y-54647396D01*
X140023324Y-54526946D01*
X140014786Y-54511351D01*
X139938285Y-54409276D01*
X139925724Y-54396715D01*
X139823649Y-54320214D01*
X139808054Y-54311676D01*
X139687606Y-54266522D01*
X139672351Y-54262895D01*
X139621486Y-54257369D01*
X139614672Y-54257000D01*
X139372875Y-54257000D01*
X139357957Y-54256114D01*
X139332318Y-54253057D01*
X139318320Y-54252959D01*
X139286437Y-54256310D01*
X139273267Y-54257000D01*
X138842115Y-54257000D01*
X138826876Y-54261475D01*
X138825671Y-54262865D01*
X138824000Y-54270548D01*
X138824000Y-54364343D01*
X138827237Y-54375368D01*
X138834330Y-54372129D01*
X138843411Y-54363048D01*
X138905723Y-54329022D01*
X138976538Y-54334087D01*
X139021601Y-54363048D01*
X139584458Y-54925905D01*
X139618484Y-54988217D01*
X139613419Y-55059032D01*
X139584458Y-55104095D01*
X139021601Y-55666952D01*
X138959289Y-55700978D01*
X138888474Y-55695913D01*
X138843411Y-55666952D01*
X138836811Y-55660352D01*
X138826723Y-55654844D01*
X138824000Y-55662146D01*
X138824000Y-55864343D01*
X138316000Y-55864343D01*
X138316000Y-55665657D01*
X138312763Y-55654632D01*
X138305670Y-55657871D01*
X138296589Y-55666952D01*
X138234277Y-55700978D01*
X138163462Y-55695913D01*
X138118399Y-55666952D01*
X137555542Y-55104095D01*
X137521516Y-55041783D01*
X137523351Y-55016132D01*
X138178751Y-55016132D01*
X138178882Y-55017965D01*
X138183133Y-55024580D01*
X138303188Y-55144635D01*
X138313277Y-55150144D01*
X138316000Y-55142843D01*
X138316000Y-55139332D01*
X138824000Y-55139332D01*
X138827237Y-55150357D01*
X138834328Y-55147119D01*
X138953635Y-55027812D01*
X138961249Y-55013868D01*
X138961118Y-55012035D01*
X138956867Y-55005420D01*
X138836812Y-54885365D01*
X138826723Y-54879856D01*
X138824000Y-54887157D01*
X138824000Y-55139332D01*
X138316000Y-55139332D01*
X138316000Y-54890668D01*
X138312763Y-54879643D01*
X138305672Y-54882881D01*
X138186365Y-55002188D01*
X138178751Y-55016132D01*
X137523351Y-55016132D01*
X137526581Y-54970968D01*
X137555542Y-54925905D01*
X138118399Y-54363048D01*
X138180711Y-54329022D01*
X138251526Y-54334087D01*
X138296589Y-54363048D01*
X138303189Y-54369648D01*
X138313277Y-54375156D01*
X138316000Y-54367854D01*
X138316000Y-54275116D01*
X138311525Y-54259877D01*
X138310135Y-54258672D01*
X138302452Y-54257001D01*
X137872883Y-54257001D01*
X137857964Y-54256115D01*
X137832318Y-54253057D01*
X137818321Y-54252959D01*
X137786430Y-54256311D01*
X137773260Y-54257001D01*
X137525331Y-54257001D01*
X137518510Y-54257371D01*
X137467648Y-54262895D01*
X137452396Y-54266521D01*
X137331946Y-54311676D01*
X137316351Y-54320214D01*
X137214276Y-54396715D01*
X137201715Y-54409276D01*
X137125214Y-54511351D01*
X137116676Y-54526946D01*
X137071522Y-54647394D01*
X137067895Y-54662649D01*
X137062369Y-54713514D01*
X137062000Y-54720328D01*
X137062000Y-54959048D01*
X137061006Y-54974840D01*
X137058162Y-54997356D01*
X137057966Y-55011363D01*
X132633500Y-55011363D01*
X132633500Y-53314594D01*
X132653502Y-53246473D01*
X132670405Y-53225499D01*
X132895904Y-53000000D01*
X134086496Y-53000000D01*
X134106458Y-53189928D01*
X134165473Y-53371556D01*
X134168776Y-53377278D01*
X134168777Y-53377279D01*
X134180261Y-53397169D01*
X134260960Y-53536944D01*
X134265378Y-53541851D01*
X134265379Y-53541852D01*
X134384325Y-53673955D01*
X134388747Y-53678866D01*
X134543248Y-53791118D01*
X134549276Y-53793802D01*
X134549278Y-53793803D01*
X134666931Y-53846185D01*
X134717712Y-53868794D01*
X134811112Y-53888647D01*
X134898056Y-53907128D01*
X134898061Y-53907128D01*
X134904513Y-53908500D01*
X135095487Y-53908500D01*
X135101939Y-53907128D01*
X135101944Y-53907128D01*
X135188887Y-53888647D01*
X135282288Y-53868794D01*
X135333069Y-53846185D01*
X135450722Y-53793803D01*
X135450724Y-53793802D01*
X135456752Y-53791118D01*
X135611253Y-53678866D01*
X135615675Y-53673955D01*
X135734621Y-53541852D01*
X135734622Y-53541851D01*
X135739040Y-53536944D01*
X135819739Y-53397169D01*
X135831223Y-53377279D01*
X135831224Y-53377278D01*
X135834527Y-53371556D01*
X135893542Y-53189928D01*
X135910907Y-53024706D01*
X135937920Y-52959050D01*
X135947122Y-52948782D01*
X136225499Y-52670405D01*
X136287811Y-52636379D01*
X136314594Y-52633500D01*
X143291800Y-52633500D01*
X143359921Y-52653502D01*
X143379147Y-52669843D01*
X143379420Y-52669540D01*
X143384332Y-52673963D01*
X143388747Y-52678866D01*
X143543248Y-52791118D01*
X143549276Y-52793802D01*
X143549278Y-52793803D01*
X143629878Y-52829688D01*
X143717712Y-52868794D01*
X143811112Y-52888647D01*
X143898056Y-52907128D01*
X143898061Y-52907128D01*
X143904513Y-52908500D01*
X144095487Y-52908500D01*
X144101939Y-52907128D01*
X144101944Y-52907128D01*
X144188888Y-52888647D01*
X144282288Y-52868794D01*
X144370122Y-52829688D01*
X144450722Y-52793803D01*
X144450724Y-52793802D01*
X144456752Y-52791118D01*
X144611253Y-52678866D01*
X144619650Y-52669540D01*
X144734621Y-52541852D01*
X144734622Y-52541851D01*
X144739040Y-52536944D01*
X144824717Y-52388547D01*
X144831223Y-52377279D01*
X144831224Y-52377278D01*
X144834527Y-52371556D01*
X144893542Y-52189928D01*
X144913504Y-52000000D01*
X144893542Y-51810072D01*
X144834527Y-51628444D01*
X144812475Y-51590248D01*
X144784533Y-51541852D01*
X144739040Y-51463056D01*
X144722881Y-51445109D01*
X144615675Y-51326045D01*
X144615674Y-51326044D01*
X144611253Y-51321134D01*
X144456752Y-51208882D01*
X144450724Y-51206198D01*
X144450722Y-51206197D01*
X144288319Y-51133891D01*
X144288318Y-51133891D01*
X144282288Y-51131206D01*
X144188887Y-51111353D01*
X144101944Y-51092872D01*
X144101939Y-51092872D01*
X144095487Y-51091500D01*
X143904513Y-51091500D01*
X143898061Y-51092872D01*
X143898056Y-51092872D01*
X143811113Y-51111353D01*
X143717712Y-51131206D01*
X143711682Y-51133891D01*
X143711681Y-51133891D01*
X143549278Y-51206197D01*
X143549276Y-51206198D01*
X143543248Y-51208882D01*
X143388747Y-51321134D01*
X143384332Y-51326037D01*
X143379420Y-51330460D01*
X143378295Y-51329211D01*
X143324986Y-51362051D01*
X143291800Y-51366500D01*
X136078768Y-51366500D01*
X136067585Y-51365973D01*
X136060092Y-51364298D01*
X136052166Y-51364547D01*
X136052165Y-51364547D01*
X135992002Y-51366438D01*
X135988044Y-51366500D01*
X135960144Y-51366500D01*
X135956154Y-51367004D01*
X135944320Y-51367936D01*
X135900111Y-51369326D01*
X135892495Y-51371539D01*
X135892493Y-51371539D01*
X135880652Y-51374979D01*
X135861293Y-51378988D01*
X135859983Y-51379154D01*
X135841203Y-51381526D01*
X135833837Y-51384442D01*
X135833831Y-51384444D01*
X135800098Y-51397800D01*
X135788868Y-51401645D01*
X135754017Y-51411770D01*
X135746407Y-51413981D01*
X135739584Y-51418016D01*
X135728966Y-51424295D01*
X135711213Y-51432992D01*
X135703568Y-51436019D01*
X135692383Y-51440448D01*
X135668422Y-51457857D01*
X135656612Y-51466437D01*
X135646695Y-51472951D01*
X135608638Y-51495458D01*
X135594317Y-51509779D01*
X135579284Y-51522619D01*
X135562893Y-51534528D01*
X135557843Y-51540632D01*
X135557838Y-51540637D01*
X135534707Y-51568598D01*
X135526717Y-51577379D01*
X135049499Y-52054596D01*
X134987187Y-52088621D01*
X134960404Y-52091500D01*
X134904513Y-52091500D01*
X134898061Y-52092872D01*
X134898056Y-52092872D01*
X134811112Y-52111353D01*
X134717712Y-52131206D01*
X134711682Y-52133891D01*
X134711681Y-52133891D01*
X134549278Y-52206197D01*
X134549276Y-52206198D01*
X134543248Y-52208882D01*
X134537907Y-52212762D01*
X134537906Y-52212763D01*
X134525184Y-52222006D01*
X134388747Y-52321134D01*
X134384326Y-52326044D01*
X134384325Y-52326045D01*
X134330268Y-52386082D01*
X134260960Y-52463056D01*
X134165473Y-52628444D01*
X134106458Y-52810072D01*
X134105768Y-52816633D01*
X134105768Y-52816635D01*
X134096257Y-52907128D01*
X134086496Y-53000000D01*
X132895904Y-53000000D01*
X133950500Y-51945405D01*
X134012812Y-51911379D01*
X134039595Y-51908500D01*
X134095487Y-51908500D01*
X134101939Y-51907128D01*
X134101944Y-51907128D01*
X134188888Y-51888647D01*
X134282288Y-51868794D01*
X134399440Y-51816635D01*
X134450722Y-51793803D01*
X134450724Y-51793802D01*
X134456752Y-51791118D01*
X134611253Y-51678866D01*
X134739040Y-51536944D01*
X134834527Y-51371556D01*
X134893542Y-51189928D01*
X134897958Y-51147918D01*
X134912814Y-51006565D01*
X134913504Y-51000000D01*
X134908790Y-50955151D01*
X145287296Y-50955151D01*
X145287520Y-50959817D01*
X145287520Y-50959822D01*
X145291824Y-51049425D01*
X145299480Y-51208798D01*
X145321077Y-51317373D01*
X145340294Y-51413981D01*
X145349021Y-51457857D01*
X145350600Y-51462255D01*
X145350602Y-51462262D01*
X145395022Y-51585980D01*
X145434831Y-51696858D01*
X145437048Y-51700984D01*
X145550097Y-51911379D01*
X145555025Y-51920551D01*
X145557820Y-51924294D01*
X145557822Y-51924297D01*
X145704171Y-52120282D01*
X145704176Y-52120288D01*
X145706963Y-52124020D01*
X145710272Y-52127300D01*
X145710277Y-52127306D01*
X145808859Y-52225031D01*
X145887307Y-52302797D01*
X145891069Y-52305555D01*
X145891072Y-52305558D01*
X145996764Y-52383054D01*
X146092094Y-52452953D01*
X146096229Y-52455129D01*
X146096233Y-52455131D01*
X146174574Y-52496348D01*
X146316827Y-52571191D01*
X146377701Y-52592449D01*
X146545701Y-52651117D01*
X146556568Y-52654912D01*
X146806050Y-52702278D01*
X146926532Y-52707011D01*
X147055125Y-52712064D01*
X147055130Y-52712064D01*
X147059793Y-52712247D01*
X147158774Y-52701407D01*
X147307569Y-52685112D01*
X147307575Y-52685111D01*
X147312222Y-52684602D01*
X147319276Y-52682745D01*
X147525523Y-52628444D01*
X147557793Y-52619948D01*
X147676353Y-52569011D01*
X147786807Y-52521557D01*
X147786810Y-52521555D01*
X147791110Y-52519708D01*
X147795090Y-52517245D01*
X147795094Y-52517243D01*
X148003064Y-52388547D01*
X148003066Y-52388545D01*
X148007047Y-52386082D01*
X148105428Y-52302797D01*
X148197289Y-52225031D01*
X148197291Y-52225029D01*
X148200862Y-52222006D01*
X148368295Y-52031084D01*
X148384067Y-52006565D01*
X148503141Y-51821442D01*
X148505669Y-51817512D01*
X148609967Y-51585980D01*
X148678896Y-51341575D01*
X148696382Y-51204126D01*
X148710545Y-51092798D01*
X148710545Y-51092792D01*
X148710943Y-51089667D01*
X148711166Y-51081177D01*
X148713208Y-51003160D01*
X148713291Y-51000000D01*
X148699177Y-50810072D01*
X148694818Y-50751411D01*
X148694817Y-50751407D01*
X148694472Y-50746759D01*
X148638428Y-50499082D01*
X148620138Y-50452050D01*
X148548084Y-50266762D01*
X148548083Y-50266760D01*
X148546391Y-50262409D01*
X148525866Y-50226498D01*
X148422702Y-50045997D01*
X148422700Y-50045995D01*
X148420383Y-50041940D01*
X148263171Y-49842517D01*
X148078209Y-49668523D01*
X148034483Y-49638189D01*
X147873393Y-49526437D01*
X147873390Y-49526435D01*
X147869561Y-49523779D01*
X147865384Y-49521719D01*
X147865377Y-49521715D01*
X147645996Y-49413528D01*
X147645992Y-49413527D01*
X147641810Y-49411464D01*
X147399960Y-49334047D01*
X147395355Y-49333297D01*
X147153935Y-49293980D01*
X147153934Y-49293980D01*
X147149323Y-49293229D01*
X147022365Y-49291567D01*
X146900083Y-49289966D01*
X146900080Y-49289966D01*
X146895406Y-49289905D01*
X146643787Y-49324149D01*
X146399993Y-49395208D01*
X146169380Y-49501522D01*
X146138581Y-49521715D01*
X145960928Y-49638189D01*
X145960923Y-49638193D01*
X145957015Y-49640755D01*
X145767562Y-49809848D01*
X145605183Y-50005087D01*
X145473447Y-50222182D01*
X145471638Y-50226496D01*
X145471637Y-50226498D01*
X145394877Y-50409551D01*
X145375246Y-50456365D01*
X145374095Y-50460897D01*
X145374094Y-50460900D01*
X145365874Y-50493268D01*
X145312738Y-50702490D01*
X145287296Y-50955151D01*
X134908790Y-50955151D01*
X134904489Y-50914228D01*
X134894232Y-50816635D01*
X134894232Y-50816633D01*
X134893542Y-50810072D01*
X134834527Y-50628444D01*
X134739040Y-50463056D01*
X134733016Y-50456365D01*
X134615675Y-50326045D01*
X134615674Y-50326044D01*
X134611253Y-50321134D01*
X134456752Y-50208882D01*
X134450724Y-50206198D01*
X134450722Y-50206197D01*
X134288319Y-50133891D01*
X134288318Y-50133891D01*
X134282288Y-50131206D01*
X134188887Y-50111353D01*
X134101944Y-50092872D01*
X134101939Y-50092872D01*
X134095487Y-50091500D01*
X134076823Y-50091500D01*
X134008702Y-50071498D01*
X133989658Y-50049520D01*
X133962135Y-50025671D01*
X133954452Y-50024000D01*
X131820115Y-50024000D01*
X131804876Y-50028475D01*
X131803671Y-50029865D01*
X131802000Y-50037548D01*
X131802000Y-50143637D01*
X131802285Y-50149613D01*
X131816132Y-50294745D01*
X131818391Y-50306480D01*
X131873188Y-50493268D01*
X131877621Y-50504351D01*
X131966751Y-50677406D01*
X131973207Y-50687461D01*
X132093449Y-50840537D01*
X132101689Y-50849190D01*
X132248701Y-50976760D01*
X132258433Y-50983702D01*
X132426924Y-51081177D01*
X132437785Y-51086150D01*
X132621674Y-51150007D01*
X132633275Y-51152835D01*
X132662252Y-51157036D01*
X132726798Y-51186605D01*
X132765111Y-51246376D01*
X132765027Y-51317373D01*
X132733268Y-51370827D01*
X131607747Y-52496348D01*
X131599461Y-52503888D01*
X131592982Y-52508000D01*
X131587557Y-52513777D01*
X131546357Y-52557651D01*
X131543602Y-52560493D01*
X131523865Y-52580230D01*
X131521385Y-52583427D01*
X131513682Y-52592447D01*
X131483414Y-52624679D01*
X131479595Y-52631625D01*
X131479593Y-52631628D01*
X131473652Y-52642434D01*
X131462801Y-52658953D01*
X131450386Y-52674959D01*
X131447241Y-52682228D01*
X131447238Y-52682232D01*
X131432826Y-52715537D01*
X131427609Y-52726187D01*
X131406305Y-52764940D01*
X131404334Y-52772615D01*
X131404334Y-52772616D01*
X131401267Y-52784562D01*
X131394863Y-52803266D01*
X131386819Y-52821855D01*
X131385580Y-52829678D01*
X131385577Y-52829688D01*
X131379901Y-52865524D01*
X131377495Y-52877144D01*
X131366500Y-52919970D01*
X131366500Y-52940224D01*
X131364949Y-52959934D01*
X131361780Y-52979943D01*
X131362526Y-52987835D01*
X131365941Y-53023961D01*
X131366500Y-53035819D01*
X131366500Y-55297476D01*
X131346498Y-55365597D01*
X131334142Y-55381779D01*
X131260960Y-55463056D01*
X131257659Y-55468774D01*
X131187526Y-55590248D01*
X131165473Y-55628444D01*
X131106458Y-55810072D01*
X131105768Y-55816633D01*
X131105768Y-55816635D01*
X131099617Y-55875156D01*
X131086496Y-56000000D01*
X124460000Y-56000000D01*
X124460000Y-51174143D01*
X124480002Y-51106022D01*
X124533658Y-51059529D01*
X124603932Y-51049425D01*
X124649095Y-51065079D01*
X124676918Y-51081175D01*
X124687785Y-51086150D01*
X124868962Y-51149065D01*
X124877007Y-51147918D01*
X124881000Y-51134349D01*
X124881000Y-51129686D01*
X125389000Y-51129686D01*
X125392973Y-51143217D01*
X125402399Y-51144572D01*
X125483361Y-51125060D01*
X125494656Y-51121171D01*
X125671863Y-51040600D01*
X125682205Y-51034653D01*
X125840987Y-50922021D01*
X125850016Y-50914228D01*
X125984631Y-50773607D01*
X125992035Y-50764232D01*
X126097620Y-50600708D01*
X126103121Y-50590094D01*
X126175883Y-50409551D01*
X126179275Y-50398102D01*
X126216866Y-50205609D01*
X126217936Y-50196799D01*
X126218000Y-50194172D01*
X126218000Y-50042115D01*
X126213525Y-50026876D01*
X126212135Y-50025671D01*
X126204452Y-50024000D01*
X125407115Y-50024000D01*
X125391876Y-50028475D01*
X125390671Y-50029865D01*
X125389000Y-50037548D01*
X125389000Y-51129686D01*
X124881000Y-51129686D01*
X124881000Y-49497885D01*
X125389000Y-49497885D01*
X125393475Y-49513124D01*
X125394865Y-49514329D01*
X125402548Y-49516000D01*
X126199885Y-49516000D01*
X126215124Y-49511525D01*
X126216329Y-49510135D01*
X126218000Y-49502452D01*
X126218000Y-49497885D01*
X131802000Y-49497885D01*
X131806475Y-49513124D01*
X131807865Y-49514329D01*
X131815548Y-49516000D01*
X132612885Y-49516000D01*
X132628124Y-49511525D01*
X132629329Y-49510135D01*
X132631000Y-49502452D01*
X132631000Y-49497885D01*
X133139000Y-49497885D01*
X133143475Y-49513124D01*
X133144865Y-49514329D01*
X133152548Y-49516000D01*
X133949885Y-49516000D01*
X133965124Y-49511525D01*
X133966329Y-49510135D01*
X133968000Y-49502452D01*
X133968000Y-49396363D01*
X133967715Y-49390387D01*
X133953868Y-49245255D01*
X133951609Y-49233520D01*
X133896812Y-49046732D01*
X133892379Y-49035649D01*
X133803249Y-48862594D01*
X133796793Y-48852539D01*
X133676551Y-48699463D01*
X133668311Y-48690810D01*
X133521299Y-48563240D01*
X133511567Y-48556298D01*
X133343076Y-48458823D01*
X133332215Y-48453850D01*
X133151038Y-48390935D01*
X133142993Y-48392082D01*
X133139000Y-48405651D01*
X133139000Y-49497885D01*
X132631000Y-49497885D01*
X132631000Y-48410314D01*
X132627027Y-48396783D01*
X132617601Y-48395428D01*
X132536639Y-48414940D01*
X132525344Y-48418829D01*
X132348137Y-48499400D01*
X132337795Y-48505347D01*
X132179013Y-48617979D01*
X132169984Y-48625772D01*
X132035369Y-48766393D01*
X132027965Y-48775768D01*
X131922380Y-48939292D01*
X131916879Y-48949906D01*
X131844117Y-49130449D01*
X131840725Y-49141898D01*
X131803134Y-49334391D01*
X131802064Y-49343201D01*
X131802000Y-49345828D01*
X131802000Y-49497885D01*
X126218000Y-49497885D01*
X126218000Y-49396363D01*
X126217715Y-49390387D01*
X126203868Y-49245255D01*
X126201609Y-49233520D01*
X126146812Y-49046732D01*
X126142379Y-49035649D01*
X126053249Y-48862594D01*
X126046793Y-48852539D01*
X125926551Y-48699463D01*
X125918311Y-48690810D01*
X125771299Y-48563240D01*
X125761567Y-48556298D01*
X125593076Y-48458823D01*
X125582215Y-48453850D01*
X125401038Y-48390935D01*
X125392993Y-48392082D01*
X125389000Y-48405651D01*
X125389000Y-49497885D01*
X124881000Y-49497885D01*
X124881000Y-48410314D01*
X124877027Y-48396783D01*
X124867601Y-48395428D01*
X124786639Y-48414940D01*
X124775344Y-48418829D01*
X124638151Y-48481207D01*
X124567860Y-48491193D01*
X124503329Y-48461593D01*
X124465045Y-48401803D01*
X124460000Y-48366506D01*
X124460000Y-47412717D01*
X124480002Y-47344596D01*
X124533658Y-47298103D01*
X124603932Y-47287999D01*
X124656276Y-47308136D01*
X124683937Y-47326723D01*
X124693731Y-47332107D01*
X124884996Y-47416067D01*
X124895588Y-47419632D01*
X125013385Y-47447912D01*
X125027470Y-47447207D01*
X125031000Y-47438328D01*
X125031000Y-47438226D01*
X125539000Y-47438226D01*
X125543106Y-47452210D01*
X125550670Y-47453384D01*
X125590996Y-47440978D01*
X125661986Y-47440066D01*
X125722201Y-47477678D01*
X125737164Y-47498408D01*
X125767658Y-47551226D01*
X125767660Y-47551229D01*
X125770960Y-47556944D01*
X125775378Y-47561851D01*
X125775379Y-47561852D01*
X125859519Y-47655299D01*
X125898747Y-47698866D01*
X126053248Y-47811118D01*
X126059276Y-47813802D01*
X126059278Y-47813803D01*
X126221681Y-47886109D01*
X126227712Y-47888794D01*
X126321113Y-47908647D01*
X126408056Y-47927128D01*
X126408061Y-47927128D01*
X126414513Y-47928500D01*
X126605487Y-47928500D01*
X126611939Y-47927128D01*
X126611944Y-47927128D01*
X126698888Y-47908647D01*
X126792288Y-47888794D01*
X126798319Y-47886109D01*
X126960722Y-47813803D01*
X126960724Y-47813802D01*
X126966752Y-47811118D01*
X127121253Y-47698866D01*
X127160481Y-47655299D01*
X127244621Y-47561852D01*
X127244622Y-47561851D01*
X127249040Y-47556944D01*
X127317582Y-47438226D01*
X127341223Y-47397279D01*
X127341224Y-47397278D01*
X127344527Y-47391556D01*
X127403542Y-47209928D01*
X127423504Y-47020000D01*
X130596496Y-47020000D01*
X130616458Y-47209928D01*
X130675473Y-47391556D01*
X130678776Y-47397278D01*
X130678777Y-47397279D01*
X130702418Y-47438226D01*
X130770960Y-47556944D01*
X130775378Y-47561851D01*
X130775379Y-47561852D01*
X130859519Y-47655299D01*
X130898747Y-47698866D01*
X131053248Y-47811118D01*
X131059276Y-47813802D01*
X131059278Y-47813803D01*
X131221681Y-47886109D01*
X131227712Y-47888794D01*
X131321113Y-47908647D01*
X131408056Y-47927128D01*
X131408061Y-47927128D01*
X131414513Y-47928500D01*
X131605487Y-47928500D01*
X131611939Y-47927128D01*
X131611944Y-47927128D01*
X131698888Y-47908647D01*
X131792288Y-47888794D01*
X131798319Y-47886109D01*
X131960722Y-47813803D01*
X131960724Y-47813802D01*
X131966752Y-47811118D01*
X132121253Y-47698866D01*
X132160481Y-47655299D01*
X132244621Y-47561852D01*
X132244622Y-47561851D01*
X132249040Y-47556944D01*
X132283377Y-47497471D01*
X132334759Y-47448479D01*
X132404473Y-47435044D01*
X132421910Y-47437955D01*
X132463382Y-47447912D01*
X132477470Y-47447207D01*
X132481000Y-47438328D01*
X132481000Y-47438226D01*
X132989000Y-47438226D01*
X132993106Y-47452210D01*
X133000670Y-47453384D01*
X133197400Y-47392862D01*
X133207744Y-47388641D01*
X133237352Y-47373359D01*
X145991386Y-47373359D01*
X146000099Y-47384879D01*
X146088586Y-47449760D01*
X146096505Y-47454708D01*
X146312877Y-47568547D01*
X146321451Y-47572275D01*
X146552282Y-47652885D01*
X146561291Y-47655299D01*
X146801518Y-47700908D01*
X146810775Y-47701962D01*
X147055107Y-47711563D01*
X147064420Y-47711237D01*
X147307478Y-47684618D01*
X147316655Y-47682917D01*
X147553107Y-47620665D01*
X147561926Y-47617628D01*
X147786584Y-47521107D01*
X147794856Y-47516800D01*
X148002777Y-47388135D01*
X148004620Y-47386796D01*
X148012038Y-47375541D01*
X148005974Y-47365184D01*
X147012812Y-46372022D01*
X146998868Y-46364408D01*
X146997035Y-46364539D01*
X146990420Y-46368790D01*
X145998044Y-47361166D01*
X145991386Y-47373359D01*
X133237352Y-47373359D01*
X133393362Y-47292836D01*
X133402793Y-47286851D01*
X133568517Y-47159686D01*
X133576734Y-47152130D01*
X133717318Y-46997631D01*
X133724072Y-46988732D01*
X133835069Y-46811789D01*
X133840146Y-46801823D01*
X133918050Y-46608031D01*
X133921285Y-46597316D01*
X133963843Y-46391814D01*
X133965046Y-46382678D01*
X133967895Y-46333265D01*
X133968000Y-46329618D01*
X133968000Y-46242115D01*
X133963525Y-46226876D01*
X133962135Y-46225671D01*
X133954452Y-46224000D01*
X133007115Y-46224000D01*
X132991876Y-46228475D01*
X132990671Y-46229865D01*
X132989000Y-46237548D01*
X132989000Y-47438226D01*
X132481000Y-47438226D01*
X132481000Y-46242115D01*
X132476525Y-46226876D01*
X132475135Y-46225671D01*
X132467452Y-46224000D01*
X131982570Y-46224000D01*
X131931322Y-46213107D01*
X131798323Y-46153892D01*
X131798315Y-46153889D01*
X131792288Y-46151206D01*
X131698888Y-46131353D01*
X131611944Y-46112872D01*
X131611939Y-46112872D01*
X131605487Y-46111500D01*
X131414513Y-46111500D01*
X131408061Y-46112872D01*
X131408056Y-46112872D01*
X131321112Y-46131353D01*
X131227712Y-46151206D01*
X131221682Y-46153891D01*
X131221681Y-46153891D01*
X131059278Y-46226197D01*
X131059276Y-46226198D01*
X131053248Y-46228882D01*
X130898747Y-46341134D01*
X130894326Y-46346044D01*
X130894325Y-46346045D01*
X130789813Y-46462118D01*
X130770960Y-46483056D01*
X130767659Y-46488774D01*
X130698806Y-46608031D01*
X130675473Y-46648444D01*
X130616458Y-46830072D01*
X130596496Y-47020000D01*
X127423504Y-47020000D01*
X127403542Y-46830072D01*
X127344527Y-46648444D01*
X127321195Y-46608031D01*
X127252341Y-46488774D01*
X127249040Y-46483056D01*
X127230188Y-46462118D01*
X127125675Y-46346045D01*
X127125674Y-46346044D01*
X127121253Y-46341134D01*
X126966752Y-46228882D01*
X126960724Y-46226198D01*
X126960722Y-46226197D01*
X126798319Y-46153891D01*
X126798318Y-46153891D01*
X126792288Y-46151206D01*
X126698888Y-46131353D01*
X126611944Y-46112872D01*
X126611939Y-46112872D01*
X126605487Y-46111500D01*
X126414513Y-46111500D01*
X126408061Y-46112872D01*
X126408056Y-46112872D01*
X126321112Y-46131353D01*
X126227712Y-46151206D01*
X126221685Y-46153889D01*
X126221677Y-46153892D01*
X126088678Y-46213107D01*
X126037430Y-46224000D01*
X125557115Y-46224000D01*
X125541876Y-46228475D01*
X125540671Y-46229865D01*
X125539000Y-46237548D01*
X125539000Y-47438226D01*
X125031000Y-47438226D01*
X125031000Y-45959835D01*
X145288022Y-45959835D01*
X145299754Y-46204064D01*
X145300891Y-46213324D01*
X145348593Y-46453143D01*
X145351082Y-46462118D01*
X145433708Y-46692250D01*
X145437505Y-46700778D01*
X145553234Y-46916160D01*
X145558245Y-46924027D01*
X145615173Y-47000263D01*
X145626431Y-47008712D01*
X145638850Y-47001940D01*
X146627978Y-46012812D01*
X146634356Y-46001132D01*
X147364408Y-46001132D01*
X147364539Y-46002965D01*
X147368790Y-46009580D01*
X148363732Y-47004522D01*
X148376112Y-47011282D01*
X148384453Y-47005038D01*
X148502700Y-46821202D01*
X148507147Y-46813011D01*
X148607572Y-46590076D01*
X148610767Y-46581298D01*
X148677135Y-46345973D01*
X148678993Y-46336844D01*
X148710044Y-46092770D01*
X148710525Y-46086483D01*
X148712706Y-46003160D01*
X148712555Y-45996851D01*
X148694321Y-45751486D01*
X148692944Y-45742280D01*
X148638979Y-45503786D01*
X148636255Y-45494875D01*
X148547633Y-45266983D01*
X148543619Y-45258567D01*
X148422284Y-45046276D01*
X148417074Y-45038553D01*
X148385787Y-44998865D01*
X148373863Y-44990395D01*
X148362328Y-44996882D01*
X147372022Y-45987188D01*
X147364408Y-46001132D01*
X146634356Y-46001132D01*
X146635592Y-45998868D01*
X146635461Y-45997035D01*
X146631210Y-45990420D01*
X145636828Y-44996038D01*
X145623520Y-44988771D01*
X145613481Y-44995893D01*
X145608581Y-45001784D01*
X145603168Y-45009373D01*
X145476322Y-45218409D01*
X145472084Y-45226726D01*
X145377529Y-45452214D01*
X145374572Y-45461052D01*
X145314384Y-45698042D01*
X145312763Y-45707232D01*
X145288267Y-45950510D01*
X145288022Y-45959835D01*
X125031000Y-45959835D01*
X125031000Y-45697885D01*
X125539000Y-45697885D01*
X125543475Y-45713124D01*
X125544865Y-45714329D01*
X125552548Y-45716000D01*
X126499885Y-45716000D01*
X126515124Y-45711525D01*
X126516329Y-45710135D01*
X126518000Y-45702452D01*
X126518000Y-45697885D01*
X131502000Y-45697885D01*
X131506475Y-45713124D01*
X131507865Y-45714329D01*
X131515548Y-45716000D01*
X132462885Y-45716000D01*
X132478124Y-45711525D01*
X132479329Y-45710135D01*
X132481000Y-45702452D01*
X132481000Y-45697885D01*
X132989000Y-45697885D01*
X132993475Y-45713124D01*
X132994865Y-45714329D01*
X133002548Y-45716000D01*
X133949885Y-45716000D01*
X133965124Y-45711525D01*
X133966329Y-45710135D01*
X133968000Y-45702452D01*
X133968000Y-45641959D01*
X133967751Y-45636364D01*
X133953917Y-45481367D01*
X133951935Y-45470353D01*
X133896820Y-45268884D01*
X133892926Y-45258411D01*
X133802999Y-45069877D01*
X133797313Y-45060262D01*
X133675424Y-44890635D01*
X133668116Y-44882169D01*
X133518117Y-44736809D01*
X133509435Y-44729779D01*
X133353385Y-44624917D01*
X145989330Y-44624917D01*
X145993903Y-44634693D01*
X146987188Y-45627978D01*
X147001132Y-45635592D01*
X147002965Y-45635461D01*
X147009580Y-45631210D01*
X148002488Y-44638302D01*
X148008872Y-44626612D01*
X147999460Y-44614502D01*
X147873144Y-44526873D01*
X147865116Y-44522145D01*
X147645810Y-44413995D01*
X147637177Y-44410507D01*
X147404288Y-44335958D01*
X147395238Y-44333785D01*
X147153891Y-44294480D01*
X147144602Y-44293668D01*
X146900114Y-44290467D01*
X146890803Y-44291037D01*
X146648522Y-44324010D01*
X146639403Y-44325948D01*
X146404668Y-44394367D01*
X146395915Y-44397639D01*
X146173869Y-44500004D01*
X146165714Y-44504524D01*
X145998468Y-44614175D01*
X145989330Y-44624917D01*
X133353385Y-44624917D01*
X133336055Y-44613272D01*
X133326269Y-44607893D01*
X133135004Y-44523933D01*
X133124412Y-44520368D01*
X133006615Y-44492088D01*
X132992530Y-44492793D01*
X132989000Y-44501672D01*
X132989000Y-45697885D01*
X132481000Y-45697885D01*
X132481000Y-44501774D01*
X132476894Y-44487790D01*
X132469330Y-44486616D01*
X132272600Y-44547138D01*
X132262256Y-44551359D01*
X132076638Y-44647164D01*
X132067207Y-44653149D01*
X131901483Y-44780314D01*
X131893266Y-44787870D01*
X131752682Y-44942369D01*
X131745928Y-44951268D01*
X131634931Y-45128211D01*
X131629854Y-45138177D01*
X131551950Y-45331969D01*
X131548715Y-45342684D01*
X131506157Y-45548186D01*
X131504954Y-45557322D01*
X131502105Y-45606735D01*
X131502000Y-45610382D01*
X131502000Y-45697885D01*
X126518000Y-45697885D01*
X126518000Y-45641959D01*
X126517751Y-45636364D01*
X126503917Y-45481367D01*
X126501935Y-45470353D01*
X126446820Y-45268884D01*
X126442926Y-45258411D01*
X126352999Y-45069877D01*
X126347313Y-45060262D01*
X126225424Y-44890635D01*
X126218116Y-44882169D01*
X126068117Y-44736809D01*
X126059435Y-44729779D01*
X125886055Y-44613272D01*
X125876269Y-44607893D01*
X125685004Y-44523933D01*
X125674412Y-44520368D01*
X125556615Y-44492088D01*
X125542530Y-44492793D01*
X125539000Y-44501672D01*
X125539000Y-45697885D01*
X125031000Y-45697885D01*
X125031000Y-44501774D01*
X125026894Y-44487790D01*
X125019330Y-44486616D01*
X124822600Y-44547138D01*
X124812255Y-44551359D01*
X124643790Y-44638311D01*
X124574083Y-44651780D01*
X124508159Y-44625425D01*
X124466950Y-44567612D01*
X124460000Y-44526345D01*
X124460000Y-44026000D01*
X124480002Y-43957879D01*
X124533658Y-43911386D01*
X124586000Y-43900000D01*
X149365500Y-43900000D01*
X149433621Y-43920002D01*
G37*
G04 #@! TD.AperFunction*
M02*
