G04 #@! TF.GenerationSoftware,KiCad,Pcbnew,(6.0.9)*
G04 #@! TF.CreationDate,2022-12-05T14:11:37+01:00*
G04 #@! TF.ProjectId,PP,50502e6b-6963-4616-945f-706362585858,rev?*
G04 #@! TF.SameCoordinates,Original*
G04 #@! TF.FileFunction,Soldermask,Bot*
G04 #@! TF.FilePolarity,Negative*
%FSLAX46Y46*%
G04 Gerber Fmt 4.6, Leading zero omitted, Abs format (unit mm)*
G04 Created by KiCad (PCBNEW (6.0.9)) date 2022-12-05 14:11:37*
%MOMM*%
%LPD*%
G01*
G04 APERTURE LIST*
%ADD10C,2.502000*%
%ADD11O,0.902000X0.902000*%
%ADD12O,1.552000X2.102000*%
%ADD13O,1.252000X1.902000*%
G04 APERTURE END LIST*
D10*
X147000000Y-63000000D03*
X147000000Y-68000000D03*
D11*
X126510000Y-47020000D03*
X131510000Y-47020000D03*
D12*
X125285000Y-45970000D03*
X132735000Y-45970000D03*
D13*
X125135000Y-49770000D03*
X132885000Y-49770000D03*
D10*
X147000000Y-46000000D03*
X147000000Y-51000000D03*
X145000000Y-81200000D03*
X145000000Y-76000000D03*
X147000000Y-55000000D03*
G36*
X132002022Y-46493843D02*
G01*
X132032566Y-46581552D01*
X132124584Y-46728812D01*
X132148575Y-46752971D01*
X132149086Y-46754904D01*
X132147667Y-46756314D01*
X132146107Y-46756083D01*
X132091762Y-46722603D01*
X132022516Y-46723922D01*
X131964977Y-46762468D01*
X131937399Y-46826031D01*
X131945031Y-46882448D01*
X131944272Y-46884298D01*
X131942290Y-46884566D01*
X131941228Y-46883544D01*
X131892150Y-46775604D01*
X131819994Y-46691862D01*
X131819621Y-46689897D01*
X131821136Y-46688591D01*
X131822727Y-46688969D01*
X131825937Y-46691432D01*
X131890811Y-46716513D01*
X131958658Y-46702597D01*
X132008210Y-46654210D01*
X132023774Y-46586551D01*
X132017979Y-46555894D01*
X131998231Y-46495119D01*
X131998647Y-46493163D01*
X132000549Y-46492545D01*
X132002022Y-46493843D01*
G37*
G36*
X126019981Y-46497578D02*
G01*
X126020351Y-46499482D01*
X126002071Y-46555741D01*
X126000084Y-46625269D01*
X126035849Y-46684580D01*
X126098000Y-46715138D01*
X126166976Y-46707225D01*
X126193932Y-46691533D01*
X126199469Y-46687284D01*
X126201452Y-46687023D01*
X126202670Y-46688610D01*
X126202186Y-46690195D01*
X126130862Y-46770954D01*
X126078763Y-46881922D01*
X126077122Y-46883065D01*
X126075312Y-46882215D01*
X126074964Y-46880858D01*
X126081576Y-46819351D01*
X126050577Y-46757421D01*
X125991014Y-46722080D01*
X125921768Y-46724552D01*
X125878045Y-46753169D01*
X125876048Y-46753281D01*
X125874953Y-46751608D01*
X125875551Y-46750067D01*
X125888603Y-46737286D01*
X125982668Y-46591325D01*
X126016570Y-46498180D01*
X126018102Y-46496894D01*
X126019981Y-46497578D01*
G37*
M02*
