G04 #@! TF.GenerationSoftware,KiCad,Pcbnew,(6.0.9)*
G04 #@! TF.CreationDate,2022-12-21T18:39:15+01:00*
G04 #@! TF.ProjectId,PP,50502e6b-6963-4616-945f-706362585858,rev?*
G04 #@! TF.SameCoordinates,Original*
G04 #@! TF.FileFunction,Soldermask,Bot*
G04 #@! TF.FilePolarity,Negative*
%FSLAX46Y46*%
G04 Gerber Fmt 4.6, Leading zero omitted, Abs format (unit mm)*
G04 Created by KiCad (PCBNEW (6.0.9)) date 2022-12-21 18:39:15*
%MOMM*%
%LPD*%
G01*
G04 APERTURE LIST*
G04 Aperture macros list*
%AMRoundRect*
0 Rectangle with rounded corners*
0 $1 Rounding radius*
0 $2 $3 $4 $5 $6 $7 $8 $9 X,Y pos of 4 corners*
0 Add a 4 corners polygon primitive as box body*
4,1,4,$2,$3,$4,$5,$6,$7,$8,$9,$2,$3,0*
0 Add four circle primitives for the rounded corners*
1,1,$1+$1,$2,$3*
1,1,$1+$1,$4,$5*
1,1,$1+$1,$6,$7*
1,1,$1+$1,$8,$9*
0 Add four rect primitives between the rounded corners*
20,1,$1+$1,$2,$3,$4,$5,0*
20,1,$1+$1,$4,$5,$6,$7,0*
20,1,$1+$1,$6,$7,$8,$9,0*
20,1,$1+$1,$8,$9,$2,$3,0*%
G04 Aperture macros list end*
%ADD10O,0.902000X0.902000*%
%ADD11O,1.552000X2.102000*%
%ADD12O,1.252000X1.902000*%
%ADD13C,2.702000*%
%ADD14RoundRect,0.051000X1.300000X-1.300000X1.300000X1.300000X-1.300000X1.300000X-1.300000X-1.300000X0*%
%ADD15RoundRect,0.051000X-1.300000X1.300000X-1.300000X-1.300000X1.300000X-1.300000X1.300000X1.300000X0*%
G04 APERTURE END LIST*
D10*
X126810000Y-47750000D03*
X131810000Y-47750000D03*
D11*
X125585000Y-48800000D03*
X133035000Y-48800000D03*
D12*
X125435000Y-45000000D03*
X133185000Y-45000000D03*
D13*
X141305000Y-53500000D03*
X141305000Y-58500000D03*
X141305000Y-63500000D03*
X141305000Y-68500000D03*
X141305000Y-73500000D03*
D14*
X141305000Y-78500000D03*
D15*
X82000000Y-52000000D03*
D13*
X82000000Y-57000000D03*
X82000000Y-62000000D03*
X82000000Y-67000000D03*
X82000000Y-72000000D03*
X82000000Y-77000000D03*
G36*
X82127603Y-75648379D02*
G01*
X82127930Y-75648410D01*
X82346643Y-75687369D01*
X82346960Y-75687453D01*
X82556375Y-75761611D01*
X82556674Y-75761745D01*
X82751165Y-75869109D01*
X82751438Y-75869290D01*
X82925782Y-76006980D01*
X82926021Y-76007204D01*
X83075536Y-76171518D01*
X83075736Y-76171778D01*
X83196407Y-76358306D01*
X83196562Y-76358595D01*
X83285147Y-76562329D01*
X83285253Y-76562639D01*
X83339374Y-76778101D01*
X83339427Y-76778424D01*
X83357926Y-77003440D01*
X83357932Y-77003653D01*
X83356490Y-77062685D01*
X83356474Y-77062897D01*
X83327004Y-77286741D01*
X83326935Y-77287061D01*
X83262353Y-77499625D01*
X83262232Y-77499930D01*
X83163800Y-77699091D01*
X83163631Y-77699372D01*
X83033992Y-77879784D01*
X83033780Y-77880034D01*
X82876419Y-78036847D01*
X82876168Y-78037058D01*
X82695302Y-78166068D01*
X82695021Y-78166236D01*
X82495523Y-78263970D01*
X82495218Y-78264090D01*
X82282429Y-78327929D01*
X82282108Y-78327997D01*
X82061748Y-78356225D01*
X82061421Y-78356240D01*
X81839417Y-78348101D01*
X81839091Y-78348062D01*
X81621390Y-78303770D01*
X81621076Y-78303678D01*
X81413534Y-78224425D01*
X81413238Y-78224284D01*
X81221430Y-78112201D01*
X81221161Y-78112013D01*
X81050232Y-77970103D01*
X81049998Y-77969873D01*
X80904542Y-77801955D01*
X80904349Y-77801691D01*
X80788273Y-77612272D01*
X80788125Y-77611979D01*
X80704544Y-77406143D01*
X80704446Y-77405831D01*
X80655606Y-77189109D01*
X80655560Y-77188784D01*
X80642770Y-76966991D01*
X80642772Y-76966928D01*
X80646781Y-76966928D01*
X80659551Y-77188390D01*
X80708318Y-77404790D01*
X80791775Y-77610318D01*
X80907679Y-77799457D01*
X81052917Y-77967125D01*
X81223596Y-78108824D01*
X81415123Y-78220743D01*
X81622346Y-78299875D01*
X81839725Y-78344101D01*
X82061405Y-78352229D01*
X82281432Y-78324043D01*
X82493908Y-78260297D01*
X82693116Y-78162707D01*
X82873703Y-78033896D01*
X83030838Y-77877308D01*
X83160282Y-77697168D01*
X83258566Y-77498304D01*
X83323053Y-77286053D01*
X83352016Y-77066062D01*
X83353628Y-77000059D01*
X83335448Y-76778920D01*
X83281405Y-76563771D01*
X83192953Y-76360344D01*
X83072463Y-76174094D01*
X82923172Y-76010026D01*
X82749081Y-75872538D01*
X82554879Y-75765332D01*
X82345778Y-75691285D01*
X82127388Y-75652384D01*
X81905576Y-75649674D01*
X81686300Y-75683228D01*
X81475449Y-75752145D01*
X81278686Y-75854573D01*
X81101296Y-75987761D01*
X80948036Y-76148139D01*
X80823032Y-76331389D01*
X80729634Y-76532597D01*
X80670354Y-76746352D01*
X80646781Y-76966928D01*
X80642772Y-76966928D01*
X80642778Y-76966663D01*
X80666386Y-76745767D01*
X80666448Y-76745446D01*
X80725817Y-76531363D01*
X80725930Y-76531055D01*
X80819466Y-76329552D01*
X80819628Y-76329267D01*
X80944818Y-76145746D01*
X80945024Y-76145491D01*
X81098511Y-75984876D01*
X81098756Y-75984659D01*
X81276415Y-75851268D01*
X81276693Y-75851093D01*
X81473742Y-75748516D01*
X81474044Y-75748389D01*
X81685213Y-75679369D01*
X81685531Y-75679293D01*
X81905133Y-75645689D01*
X81905460Y-75645666D01*
X82127603Y-75648379D01*
G37*
G36*
X141432603Y-72148379D02*
G01*
X141432930Y-72148410D01*
X141651643Y-72187369D01*
X141651960Y-72187453D01*
X141861375Y-72261611D01*
X141861674Y-72261745D01*
X142056165Y-72369109D01*
X142056438Y-72369290D01*
X142230782Y-72506980D01*
X142231021Y-72507204D01*
X142380536Y-72671518D01*
X142380736Y-72671778D01*
X142501407Y-72858306D01*
X142501562Y-72858595D01*
X142590147Y-73062329D01*
X142590253Y-73062639D01*
X142644374Y-73278101D01*
X142644427Y-73278424D01*
X142662926Y-73503440D01*
X142662932Y-73503653D01*
X142661490Y-73562685D01*
X142661474Y-73562897D01*
X142632004Y-73786741D01*
X142631935Y-73787061D01*
X142567353Y-73999625D01*
X142567232Y-73999930D01*
X142468800Y-74199091D01*
X142468631Y-74199372D01*
X142338992Y-74379784D01*
X142338780Y-74380034D01*
X142181419Y-74536847D01*
X142181168Y-74537058D01*
X142000302Y-74666068D01*
X142000021Y-74666236D01*
X141800523Y-74763970D01*
X141800218Y-74764090D01*
X141587429Y-74827929D01*
X141587108Y-74827997D01*
X141366748Y-74856225D01*
X141366421Y-74856240D01*
X141144417Y-74848101D01*
X141144091Y-74848062D01*
X140926390Y-74803770D01*
X140926076Y-74803678D01*
X140718534Y-74724425D01*
X140718238Y-74724284D01*
X140526430Y-74612201D01*
X140526161Y-74612013D01*
X140355232Y-74470103D01*
X140354998Y-74469873D01*
X140209542Y-74301955D01*
X140209349Y-74301691D01*
X140093273Y-74112272D01*
X140093125Y-74111979D01*
X140009544Y-73906143D01*
X140009446Y-73905831D01*
X139960606Y-73689109D01*
X139960560Y-73688784D01*
X139947770Y-73466991D01*
X139947772Y-73466928D01*
X139951781Y-73466928D01*
X139964551Y-73688390D01*
X140013318Y-73904790D01*
X140096775Y-74110318D01*
X140212679Y-74299457D01*
X140357917Y-74467125D01*
X140528596Y-74608824D01*
X140720123Y-74720743D01*
X140927346Y-74799875D01*
X141144725Y-74844101D01*
X141366405Y-74852229D01*
X141586432Y-74824043D01*
X141798908Y-74760297D01*
X141998116Y-74662707D01*
X142178703Y-74533896D01*
X142335838Y-74377308D01*
X142465282Y-74197168D01*
X142563566Y-73998304D01*
X142628053Y-73786053D01*
X142657016Y-73566062D01*
X142658628Y-73500059D01*
X142640448Y-73278920D01*
X142586405Y-73063771D01*
X142497953Y-72860344D01*
X142377463Y-72674094D01*
X142228172Y-72510026D01*
X142054081Y-72372538D01*
X141859879Y-72265332D01*
X141650778Y-72191285D01*
X141432388Y-72152384D01*
X141210576Y-72149674D01*
X140991300Y-72183228D01*
X140780449Y-72252145D01*
X140583686Y-72354573D01*
X140406296Y-72487761D01*
X140253036Y-72648139D01*
X140128032Y-72831389D01*
X140034634Y-73032597D01*
X139975354Y-73246352D01*
X139951781Y-73466928D01*
X139947772Y-73466928D01*
X139947778Y-73466663D01*
X139971386Y-73245767D01*
X139971448Y-73245446D01*
X140030817Y-73031363D01*
X140030930Y-73031055D01*
X140124466Y-72829552D01*
X140124628Y-72829267D01*
X140249818Y-72645746D01*
X140250024Y-72645491D01*
X140403511Y-72484876D01*
X140403756Y-72484659D01*
X140581415Y-72351268D01*
X140581693Y-72351093D01*
X140778742Y-72248516D01*
X140779044Y-72248389D01*
X140990213Y-72179369D01*
X140990531Y-72179293D01*
X141210133Y-72145689D01*
X141210460Y-72145666D01*
X141432603Y-72148379D01*
G37*
G36*
X82127603Y-70648379D02*
G01*
X82127930Y-70648410D01*
X82346643Y-70687369D01*
X82346960Y-70687453D01*
X82556375Y-70761611D01*
X82556674Y-70761745D01*
X82751165Y-70869109D01*
X82751438Y-70869290D01*
X82925782Y-71006980D01*
X82926021Y-71007204D01*
X83075536Y-71171518D01*
X83075736Y-71171778D01*
X83196407Y-71358306D01*
X83196562Y-71358595D01*
X83285147Y-71562329D01*
X83285253Y-71562639D01*
X83339374Y-71778101D01*
X83339427Y-71778424D01*
X83357926Y-72003440D01*
X83357932Y-72003653D01*
X83356490Y-72062685D01*
X83356474Y-72062897D01*
X83327004Y-72286741D01*
X83326935Y-72287061D01*
X83262353Y-72499625D01*
X83262232Y-72499930D01*
X83163800Y-72699091D01*
X83163631Y-72699372D01*
X83033992Y-72879784D01*
X83033780Y-72880034D01*
X82876419Y-73036847D01*
X82876168Y-73037058D01*
X82695302Y-73166068D01*
X82695021Y-73166236D01*
X82495523Y-73263970D01*
X82495218Y-73264090D01*
X82282429Y-73327929D01*
X82282108Y-73327997D01*
X82061748Y-73356225D01*
X82061421Y-73356240D01*
X81839417Y-73348101D01*
X81839091Y-73348062D01*
X81621390Y-73303770D01*
X81621076Y-73303678D01*
X81413534Y-73224425D01*
X81413238Y-73224284D01*
X81221430Y-73112201D01*
X81221161Y-73112013D01*
X81050232Y-72970103D01*
X81049998Y-72969873D01*
X80904542Y-72801955D01*
X80904349Y-72801691D01*
X80788273Y-72612272D01*
X80788125Y-72611979D01*
X80704544Y-72406143D01*
X80704446Y-72405831D01*
X80655606Y-72189109D01*
X80655560Y-72188784D01*
X80642770Y-71966991D01*
X80642772Y-71966928D01*
X80646781Y-71966928D01*
X80659551Y-72188390D01*
X80708318Y-72404790D01*
X80791775Y-72610318D01*
X80907679Y-72799457D01*
X81052917Y-72967125D01*
X81223596Y-73108824D01*
X81415123Y-73220743D01*
X81622346Y-73299875D01*
X81839725Y-73344101D01*
X82061405Y-73352229D01*
X82281432Y-73324043D01*
X82493908Y-73260297D01*
X82693116Y-73162707D01*
X82873703Y-73033896D01*
X83030838Y-72877308D01*
X83160282Y-72697168D01*
X83258566Y-72498304D01*
X83323053Y-72286053D01*
X83352016Y-72066062D01*
X83353628Y-72000059D01*
X83335448Y-71778920D01*
X83281405Y-71563771D01*
X83192953Y-71360344D01*
X83072463Y-71174094D01*
X82923172Y-71010026D01*
X82749081Y-70872538D01*
X82554879Y-70765332D01*
X82345778Y-70691285D01*
X82127388Y-70652384D01*
X81905576Y-70649674D01*
X81686300Y-70683228D01*
X81475449Y-70752145D01*
X81278686Y-70854573D01*
X81101296Y-70987761D01*
X80948036Y-71148139D01*
X80823032Y-71331389D01*
X80729634Y-71532597D01*
X80670354Y-71746352D01*
X80646781Y-71966928D01*
X80642772Y-71966928D01*
X80642778Y-71966663D01*
X80666386Y-71745767D01*
X80666448Y-71745446D01*
X80725817Y-71531363D01*
X80725930Y-71531055D01*
X80819466Y-71329552D01*
X80819628Y-71329267D01*
X80944818Y-71145746D01*
X80945024Y-71145491D01*
X81098511Y-70984876D01*
X81098756Y-70984659D01*
X81276415Y-70851268D01*
X81276693Y-70851093D01*
X81473742Y-70748516D01*
X81474044Y-70748389D01*
X81685213Y-70679369D01*
X81685531Y-70679293D01*
X81905133Y-70645689D01*
X81905460Y-70645666D01*
X82127603Y-70648379D01*
G37*
G36*
X141432603Y-67148379D02*
G01*
X141432930Y-67148410D01*
X141651643Y-67187369D01*
X141651960Y-67187453D01*
X141861375Y-67261611D01*
X141861674Y-67261745D01*
X142056165Y-67369109D01*
X142056438Y-67369290D01*
X142230782Y-67506980D01*
X142231021Y-67507204D01*
X142380536Y-67671518D01*
X142380736Y-67671778D01*
X142501407Y-67858306D01*
X142501562Y-67858595D01*
X142590147Y-68062329D01*
X142590253Y-68062639D01*
X142644374Y-68278101D01*
X142644427Y-68278424D01*
X142662926Y-68503440D01*
X142662932Y-68503653D01*
X142661490Y-68562685D01*
X142661474Y-68562897D01*
X142632004Y-68786741D01*
X142631935Y-68787061D01*
X142567353Y-68999625D01*
X142567232Y-68999930D01*
X142468800Y-69199091D01*
X142468631Y-69199372D01*
X142338992Y-69379784D01*
X142338780Y-69380034D01*
X142181419Y-69536847D01*
X142181168Y-69537058D01*
X142000302Y-69666068D01*
X142000021Y-69666236D01*
X141800523Y-69763970D01*
X141800218Y-69764090D01*
X141587429Y-69827929D01*
X141587108Y-69827997D01*
X141366748Y-69856225D01*
X141366421Y-69856240D01*
X141144417Y-69848101D01*
X141144091Y-69848062D01*
X140926390Y-69803770D01*
X140926076Y-69803678D01*
X140718534Y-69724425D01*
X140718238Y-69724284D01*
X140526430Y-69612201D01*
X140526161Y-69612013D01*
X140355232Y-69470103D01*
X140354998Y-69469873D01*
X140209542Y-69301955D01*
X140209349Y-69301691D01*
X140093273Y-69112272D01*
X140093125Y-69111979D01*
X140009544Y-68906143D01*
X140009446Y-68905831D01*
X139960606Y-68689109D01*
X139960560Y-68688784D01*
X139947770Y-68466991D01*
X139947772Y-68466928D01*
X139951781Y-68466928D01*
X139964551Y-68688390D01*
X140013318Y-68904790D01*
X140096775Y-69110318D01*
X140212679Y-69299457D01*
X140357917Y-69467125D01*
X140528596Y-69608824D01*
X140720123Y-69720743D01*
X140927346Y-69799875D01*
X141144725Y-69844101D01*
X141366405Y-69852229D01*
X141586432Y-69824043D01*
X141798908Y-69760297D01*
X141998116Y-69662707D01*
X142178703Y-69533896D01*
X142335838Y-69377308D01*
X142465282Y-69197168D01*
X142563566Y-68998304D01*
X142628053Y-68786053D01*
X142657016Y-68566062D01*
X142658628Y-68500059D01*
X142640448Y-68278920D01*
X142586405Y-68063771D01*
X142497953Y-67860344D01*
X142377463Y-67674094D01*
X142228172Y-67510026D01*
X142054081Y-67372538D01*
X141859879Y-67265332D01*
X141650778Y-67191285D01*
X141432388Y-67152384D01*
X141210576Y-67149674D01*
X140991300Y-67183228D01*
X140780449Y-67252145D01*
X140583686Y-67354573D01*
X140406296Y-67487761D01*
X140253036Y-67648139D01*
X140128032Y-67831389D01*
X140034634Y-68032597D01*
X139975354Y-68246352D01*
X139951781Y-68466928D01*
X139947772Y-68466928D01*
X139947778Y-68466663D01*
X139971386Y-68245767D01*
X139971448Y-68245446D01*
X140030817Y-68031363D01*
X140030930Y-68031055D01*
X140124466Y-67829552D01*
X140124628Y-67829267D01*
X140249818Y-67645746D01*
X140250024Y-67645491D01*
X140403511Y-67484876D01*
X140403756Y-67484659D01*
X140581415Y-67351268D01*
X140581693Y-67351093D01*
X140778742Y-67248516D01*
X140779044Y-67248389D01*
X140990213Y-67179369D01*
X140990531Y-67179293D01*
X141210133Y-67145689D01*
X141210460Y-67145666D01*
X141432603Y-67148379D01*
G37*
G36*
X82127603Y-65648379D02*
G01*
X82127930Y-65648410D01*
X82346643Y-65687369D01*
X82346960Y-65687453D01*
X82556375Y-65761611D01*
X82556674Y-65761745D01*
X82751165Y-65869109D01*
X82751438Y-65869290D01*
X82925782Y-66006980D01*
X82926021Y-66007204D01*
X83075536Y-66171518D01*
X83075736Y-66171778D01*
X83196407Y-66358306D01*
X83196562Y-66358595D01*
X83285147Y-66562329D01*
X83285253Y-66562639D01*
X83339374Y-66778101D01*
X83339427Y-66778424D01*
X83357926Y-67003440D01*
X83357932Y-67003653D01*
X83356490Y-67062685D01*
X83356474Y-67062897D01*
X83327004Y-67286741D01*
X83326935Y-67287061D01*
X83262353Y-67499625D01*
X83262232Y-67499930D01*
X83163800Y-67699091D01*
X83163631Y-67699372D01*
X83033992Y-67879784D01*
X83033780Y-67880034D01*
X82876419Y-68036847D01*
X82876168Y-68037058D01*
X82695302Y-68166068D01*
X82695021Y-68166236D01*
X82495523Y-68263970D01*
X82495218Y-68264090D01*
X82282429Y-68327929D01*
X82282108Y-68327997D01*
X82061748Y-68356225D01*
X82061421Y-68356240D01*
X81839417Y-68348101D01*
X81839091Y-68348062D01*
X81621390Y-68303770D01*
X81621076Y-68303678D01*
X81413534Y-68224425D01*
X81413238Y-68224284D01*
X81221430Y-68112201D01*
X81221161Y-68112013D01*
X81050232Y-67970103D01*
X81049998Y-67969873D01*
X80904542Y-67801955D01*
X80904349Y-67801691D01*
X80788273Y-67612272D01*
X80788125Y-67611979D01*
X80704544Y-67406143D01*
X80704446Y-67405831D01*
X80655606Y-67189109D01*
X80655560Y-67188784D01*
X80642770Y-66966991D01*
X80642772Y-66966928D01*
X80646781Y-66966928D01*
X80659551Y-67188390D01*
X80708318Y-67404790D01*
X80791775Y-67610318D01*
X80907679Y-67799457D01*
X81052917Y-67967125D01*
X81223596Y-68108824D01*
X81415123Y-68220743D01*
X81622346Y-68299875D01*
X81839725Y-68344101D01*
X82061405Y-68352229D01*
X82281432Y-68324043D01*
X82493908Y-68260297D01*
X82693116Y-68162707D01*
X82873703Y-68033896D01*
X83030838Y-67877308D01*
X83160282Y-67697168D01*
X83258566Y-67498304D01*
X83323053Y-67286053D01*
X83352016Y-67066062D01*
X83353628Y-67000059D01*
X83335448Y-66778920D01*
X83281405Y-66563771D01*
X83192953Y-66360344D01*
X83072463Y-66174094D01*
X82923172Y-66010026D01*
X82749081Y-65872538D01*
X82554879Y-65765332D01*
X82345778Y-65691285D01*
X82127388Y-65652384D01*
X81905576Y-65649674D01*
X81686300Y-65683228D01*
X81475449Y-65752145D01*
X81278686Y-65854573D01*
X81101296Y-65987761D01*
X80948036Y-66148139D01*
X80823032Y-66331389D01*
X80729634Y-66532597D01*
X80670354Y-66746352D01*
X80646781Y-66966928D01*
X80642772Y-66966928D01*
X80642778Y-66966663D01*
X80666386Y-66745767D01*
X80666448Y-66745446D01*
X80725817Y-66531363D01*
X80725930Y-66531055D01*
X80819466Y-66329552D01*
X80819628Y-66329267D01*
X80944818Y-66145746D01*
X80945024Y-66145491D01*
X81098511Y-65984876D01*
X81098756Y-65984659D01*
X81276415Y-65851268D01*
X81276693Y-65851093D01*
X81473742Y-65748516D01*
X81474044Y-65748389D01*
X81685213Y-65679369D01*
X81685531Y-65679293D01*
X81905133Y-65645689D01*
X81905460Y-65645666D01*
X82127603Y-65648379D01*
G37*
G36*
X141432603Y-62148379D02*
G01*
X141432930Y-62148410D01*
X141651643Y-62187369D01*
X141651960Y-62187453D01*
X141861375Y-62261611D01*
X141861674Y-62261745D01*
X142056165Y-62369109D01*
X142056438Y-62369290D01*
X142230782Y-62506980D01*
X142231021Y-62507204D01*
X142380536Y-62671518D01*
X142380736Y-62671778D01*
X142501407Y-62858306D01*
X142501562Y-62858595D01*
X142590147Y-63062329D01*
X142590253Y-63062639D01*
X142644374Y-63278101D01*
X142644427Y-63278424D01*
X142662926Y-63503440D01*
X142662932Y-63503653D01*
X142661490Y-63562685D01*
X142661474Y-63562897D01*
X142632004Y-63786741D01*
X142631935Y-63787061D01*
X142567353Y-63999625D01*
X142567232Y-63999930D01*
X142468800Y-64199091D01*
X142468631Y-64199372D01*
X142338992Y-64379784D01*
X142338780Y-64380034D01*
X142181419Y-64536847D01*
X142181168Y-64537058D01*
X142000302Y-64666068D01*
X142000021Y-64666236D01*
X141800523Y-64763970D01*
X141800218Y-64764090D01*
X141587429Y-64827929D01*
X141587108Y-64827997D01*
X141366748Y-64856225D01*
X141366421Y-64856240D01*
X141144417Y-64848101D01*
X141144091Y-64848062D01*
X140926390Y-64803770D01*
X140926076Y-64803678D01*
X140718534Y-64724425D01*
X140718238Y-64724284D01*
X140526430Y-64612201D01*
X140526161Y-64612013D01*
X140355232Y-64470103D01*
X140354998Y-64469873D01*
X140209542Y-64301955D01*
X140209349Y-64301691D01*
X140093273Y-64112272D01*
X140093125Y-64111979D01*
X140009544Y-63906143D01*
X140009446Y-63905831D01*
X139960606Y-63689109D01*
X139960560Y-63688784D01*
X139947770Y-63466991D01*
X139947772Y-63466928D01*
X139951781Y-63466928D01*
X139964551Y-63688390D01*
X140013318Y-63904790D01*
X140096775Y-64110318D01*
X140212679Y-64299457D01*
X140357917Y-64467125D01*
X140528596Y-64608824D01*
X140720123Y-64720743D01*
X140927346Y-64799875D01*
X141144725Y-64844101D01*
X141366405Y-64852229D01*
X141586432Y-64824043D01*
X141798908Y-64760297D01*
X141998116Y-64662707D01*
X142178703Y-64533896D01*
X142335838Y-64377308D01*
X142465282Y-64197168D01*
X142563566Y-63998304D01*
X142628053Y-63786053D01*
X142657016Y-63566062D01*
X142658628Y-63500059D01*
X142640448Y-63278920D01*
X142586405Y-63063771D01*
X142497953Y-62860344D01*
X142377463Y-62674094D01*
X142228172Y-62510026D01*
X142054081Y-62372538D01*
X141859879Y-62265332D01*
X141650778Y-62191285D01*
X141432388Y-62152384D01*
X141210576Y-62149674D01*
X140991300Y-62183228D01*
X140780449Y-62252145D01*
X140583686Y-62354573D01*
X140406296Y-62487761D01*
X140253036Y-62648139D01*
X140128032Y-62831389D01*
X140034634Y-63032597D01*
X139975354Y-63246352D01*
X139951781Y-63466928D01*
X139947772Y-63466928D01*
X139947778Y-63466663D01*
X139971386Y-63245767D01*
X139971448Y-63245446D01*
X140030817Y-63031363D01*
X140030930Y-63031055D01*
X140124466Y-62829552D01*
X140124628Y-62829267D01*
X140249818Y-62645746D01*
X140250024Y-62645491D01*
X140403511Y-62484876D01*
X140403756Y-62484659D01*
X140581415Y-62351268D01*
X140581693Y-62351093D01*
X140778742Y-62248516D01*
X140779044Y-62248389D01*
X140990213Y-62179369D01*
X140990531Y-62179293D01*
X141210133Y-62145689D01*
X141210460Y-62145666D01*
X141432603Y-62148379D01*
G37*
G36*
X82127603Y-60648379D02*
G01*
X82127930Y-60648410D01*
X82346643Y-60687369D01*
X82346960Y-60687453D01*
X82556375Y-60761611D01*
X82556674Y-60761745D01*
X82751165Y-60869109D01*
X82751438Y-60869290D01*
X82925782Y-61006980D01*
X82926021Y-61007204D01*
X83075536Y-61171518D01*
X83075736Y-61171778D01*
X83196407Y-61358306D01*
X83196562Y-61358595D01*
X83285147Y-61562329D01*
X83285253Y-61562639D01*
X83339374Y-61778101D01*
X83339427Y-61778424D01*
X83357926Y-62003440D01*
X83357932Y-62003653D01*
X83356490Y-62062685D01*
X83356474Y-62062897D01*
X83327004Y-62286741D01*
X83326935Y-62287061D01*
X83262353Y-62499625D01*
X83262232Y-62499930D01*
X83163800Y-62699091D01*
X83163631Y-62699372D01*
X83033992Y-62879784D01*
X83033780Y-62880034D01*
X82876419Y-63036847D01*
X82876168Y-63037058D01*
X82695302Y-63166068D01*
X82695021Y-63166236D01*
X82495523Y-63263970D01*
X82495218Y-63264090D01*
X82282429Y-63327929D01*
X82282108Y-63327997D01*
X82061748Y-63356225D01*
X82061421Y-63356240D01*
X81839417Y-63348101D01*
X81839091Y-63348062D01*
X81621390Y-63303770D01*
X81621076Y-63303678D01*
X81413534Y-63224425D01*
X81413238Y-63224284D01*
X81221430Y-63112201D01*
X81221161Y-63112013D01*
X81050232Y-62970103D01*
X81049998Y-62969873D01*
X80904542Y-62801955D01*
X80904349Y-62801691D01*
X80788273Y-62612272D01*
X80788125Y-62611979D01*
X80704544Y-62406143D01*
X80704446Y-62405831D01*
X80655606Y-62189109D01*
X80655560Y-62188784D01*
X80642770Y-61966991D01*
X80642772Y-61966928D01*
X80646781Y-61966928D01*
X80659551Y-62188390D01*
X80708318Y-62404790D01*
X80791775Y-62610318D01*
X80907679Y-62799457D01*
X81052917Y-62967125D01*
X81223596Y-63108824D01*
X81415123Y-63220743D01*
X81622346Y-63299875D01*
X81839725Y-63344101D01*
X82061405Y-63352229D01*
X82281432Y-63324043D01*
X82493908Y-63260297D01*
X82693116Y-63162707D01*
X82873703Y-63033896D01*
X83030838Y-62877308D01*
X83160282Y-62697168D01*
X83258566Y-62498304D01*
X83323053Y-62286053D01*
X83352016Y-62066062D01*
X83353628Y-62000059D01*
X83335448Y-61778920D01*
X83281405Y-61563771D01*
X83192953Y-61360344D01*
X83072463Y-61174094D01*
X82923172Y-61010026D01*
X82749081Y-60872538D01*
X82554879Y-60765332D01*
X82345778Y-60691285D01*
X82127388Y-60652384D01*
X81905576Y-60649674D01*
X81686300Y-60683228D01*
X81475449Y-60752145D01*
X81278686Y-60854573D01*
X81101296Y-60987761D01*
X80948036Y-61148139D01*
X80823032Y-61331389D01*
X80729634Y-61532597D01*
X80670354Y-61746352D01*
X80646781Y-61966928D01*
X80642772Y-61966928D01*
X80642778Y-61966663D01*
X80666386Y-61745767D01*
X80666448Y-61745446D01*
X80725817Y-61531363D01*
X80725930Y-61531055D01*
X80819466Y-61329552D01*
X80819628Y-61329267D01*
X80944818Y-61145746D01*
X80945024Y-61145491D01*
X81098511Y-60984876D01*
X81098756Y-60984659D01*
X81276415Y-60851268D01*
X81276693Y-60851093D01*
X81473742Y-60748516D01*
X81474044Y-60748389D01*
X81685213Y-60679369D01*
X81685531Y-60679293D01*
X81905133Y-60645689D01*
X81905460Y-60645666D01*
X82127603Y-60648379D01*
G37*
G36*
X141432603Y-57148379D02*
G01*
X141432930Y-57148410D01*
X141651643Y-57187369D01*
X141651960Y-57187453D01*
X141861375Y-57261611D01*
X141861674Y-57261745D01*
X142056165Y-57369109D01*
X142056438Y-57369290D01*
X142230782Y-57506980D01*
X142231021Y-57507204D01*
X142380536Y-57671518D01*
X142380736Y-57671778D01*
X142501407Y-57858306D01*
X142501562Y-57858595D01*
X142590147Y-58062329D01*
X142590253Y-58062639D01*
X142644374Y-58278101D01*
X142644427Y-58278424D01*
X142662926Y-58503440D01*
X142662932Y-58503653D01*
X142661490Y-58562685D01*
X142661474Y-58562897D01*
X142632004Y-58786741D01*
X142631935Y-58787061D01*
X142567353Y-58999625D01*
X142567232Y-58999930D01*
X142468800Y-59199091D01*
X142468631Y-59199372D01*
X142338992Y-59379784D01*
X142338780Y-59380034D01*
X142181419Y-59536847D01*
X142181168Y-59537058D01*
X142000302Y-59666068D01*
X142000021Y-59666236D01*
X141800523Y-59763970D01*
X141800218Y-59764090D01*
X141587429Y-59827929D01*
X141587108Y-59827997D01*
X141366748Y-59856225D01*
X141366421Y-59856240D01*
X141144417Y-59848101D01*
X141144091Y-59848062D01*
X140926390Y-59803770D01*
X140926076Y-59803678D01*
X140718534Y-59724425D01*
X140718238Y-59724284D01*
X140526430Y-59612201D01*
X140526161Y-59612013D01*
X140355232Y-59470103D01*
X140354998Y-59469873D01*
X140209542Y-59301955D01*
X140209349Y-59301691D01*
X140093273Y-59112272D01*
X140093125Y-59111979D01*
X140009544Y-58906143D01*
X140009446Y-58905831D01*
X139960606Y-58689109D01*
X139960560Y-58688784D01*
X139947770Y-58466991D01*
X139947772Y-58466928D01*
X139951781Y-58466928D01*
X139964551Y-58688390D01*
X140013318Y-58904790D01*
X140096775Y-59110318D01*
X140212679Y-59299457D01*
X140357917Y-59467125D01*
X140528596Y-59608824D01*
X140720123Y-59720743D01*
X140927346Y-59799875D01*
X141144725Y-59844101D01*
X141366405Y-59852229D01*
X141586432Y-59824043D01*
X141798908Y-59760297D01*
X141998116Y-59662707D01*
X142178703Y-59533896D01*
X142335838Y-59377308D01*
X142465282Y-59197168D01*
X142563566Y-58998304D01*
X142628053Y-58786053D01*
X142657016Y-58566062D01*
X142658628Y-58500059D01*
X142640448Y-58278920D01*
X142586405Y-58063771D01*
X142497953Y-57860344D01*
X142377463Y-57674094D01*
X142228172Y-57510026D01*
X142054081Y-57372538D01*
X141859879Y-57265332D01*
X141650778Y-57191285D01*
X141432388Y-57152384D01*
X141210576Y-57149674D01*
X140991300Y-57183228D01*
X140780449Y-57252145D01*
X140583686Y-57354573D01*
X140406296Y-57487761D01*
X140253036Y-57648139D01*
X140128032Y-57831389D01*
X140034634Y-58032597D01*
X139975354Y-58246352D01*
X139951781Y-58466928D01*
X139947772Y-58466928D01*
X139947778Y-58466663D01*
X139971386Y-58245767D01*
X139971448Y-58245446D01*
X140030817Y-58031363D01*
X140030930Y-58031055D01*
X140124466Y-57829552D01*
X140124628Y-57829267D01*
X140249818Y-57645746D01*
X140250024Y-57645491D01*
X140403511Y-57484876D01*
X140403756Y-57484659D01*
X140581415Y-57351268D01*
X140581693Y-57351093D01*
X140778742Y-57248516D01*
X140779044Y-57248389D01*
X140990213Y-57179369D01*
X140990531Y-57179293D01*
X141210133Y-57145689D01*
X141210460Y-57145666D01*
X141432603Y-57148379D01*
G37*
G36*
X82127603Y-55648379D02*
G01*
X82127930Y-55648410D01*
X82346643Y-55687369D01*
X82346960Y-55687453D01*
X82556375Y-55761611D01*
X82556674Y-55761745D01*
X82751165Y-55869109D01*
X82751438Y-55869290D01*
X82925782Y-56006980D01*
X82926021Y-56007204D01*
X83075536Y-56171518D01*
X83075736Y-56171778D01*
X83196407Y-56358306D01*
X83196562Y-56358595D01*
X83285147Y-56562329D01*
X83285253Y-56562639D01*
X83339374Y-56778101D01*
X83339427Y-56778424D01*
X83357926Y-57003440D01*
X83357932Y-57003653D01*
X83356490Y-57062685D01*
X83356474Y-57062897D01*
X83327004Y-57286741D01*
X83326935Y-57287061D01*
X83262353Y-57499625D01*
X83262232Y-57499930D01*
X83163800Y-57699091D01*
X83163631Y-57699372D01*
X83033992Y-57879784D01*
X83033780Y-57880034D01*
X82876419Y-58036847D01*
X82876168Y-58037058D01*
X82695302Y-58166068D01*
X82695021Y-58166236D01*
X82495523Y-58263970D01*
X82495218Y-58264090D01*
X82282429Y-58327929D01*
X82282108Y-58327997D01*
X82061748Y-58356225D01*
X82061421Y-58356240D01*
X81839417Y-58348101D01*
X81839091Y-58348062D01*
X81621390Y-58303770D01*
X81621076Y-58303678D01*
X81413534Y-58224425D01*
X81413238Y-58224284D01*
X81221430Y-58112201D01*
X81221161Y-58112013D01*
X81050232Y-57970103D01*
X81049998Y-57969873D01*
X80904542Y-57801955D01*
X80904349Y-57801691D01*
X80788273Y-57612272D01*
X80788125Y-57611979D01*
X80704544Y-57406143D01*
X80704446Y-57405831D01*
X80655606Y-57189109D01*
X80655560Y-57188784D01*
X80642770Y-56966991D01*
X80642772Y-56966928D01*
X80646781Y-56966928D01*
X80659551Y-57188390D01*
X80708318Y-57404790D01*
X80791775Y-57610318D01*
X80907679Y-57799457D01*
X81052917Y-57967125D01*
X81223596Y-58108824D01*
X81415123Y-58220743D01*
X81622346Y-58299875D01*
X81839725Y-58344101D01*
X82061405Y-58352229D01*
X82281432Y-58324043D01*
X82493908Y-58260297D01*
X82693116Y-58162707D01*
X82873703Y-58033896D01*
X83030838Y-57877308D01*
X83160282Y-57697168D01*
X83258566Y-57498304D01*
X83323053Y-57286053D01*
X83352016Y-57066062D01*
X83353628Y-57000059D01*
X83335448Y-56778920D01*
X83281405Y-56563771D01*
X83192953Y-56360344D01*
X83072463Y-56174094D01*
X82923172Y-56010026D01*
X82749081Y-55872538D01*
X82554879Y-55765332D01*
X82345778Y-55691285D01*
X82127388Y-55652384D01*
X81905576Y-55649674D01*
X81686300Y-55683228D01*
X81475449Y-55752145D01*
X81278686Y-55854573D01*
X81101296Y-55987761D01*
X80948036Y-56148139D01*
X80823032Y-56331389D01*
X80729634Y-56532597D01*
X80670354Y-56746352D01*
X80646781Y-56966928D01*
X80642772Y-56966928D01*
X80642778Y-56966663D01*
X80666386Y-56745767D01*
X80666448Y-56745446D01*
X80725817Y-56531363D01*
X80725930Y-56531055D01*
X80819466Y-56329552D01*
X80819628Y-56329267D01*
X80944818Y-56145746D01*
X80945024Y-56145491D01*
X81098511Y-55984876D01*
X81098756Y-55984659D01*
X81276415Y-55851268D01*
X81276693Y-55851093D01*
X81473742Y-55748516D01*
X81474044Y-55748389D01*
X81685213Y-55679369D01*
X81685531Y-55679293D01*
X81905133Y-55645689D01*
X81905460Y-55645666D01*
X82127603Y-55648379D01*
G37*
G36*
X141432603Y-52148379D02*
G01*
X141432930Y-52148410D01*
X141651643Y-52187369D01*
X141651960Y-52187453D01*
X141861375Y-52261611D01*
X141861674Y-52261745D01*
X142056165Y-52369109D01*
X142056438Y-52369290D01*
X142230782Y-52506980D01*
X142231021Y-52507204D01*
X142380536Y-52671518D01*
X142380736Y-52671778D01*
X142501407Y-52858306D01*
X142501562Y-52858595D01*
X142590147Y-53062329D01*
X142590253Y-53062639D01*
X142644374Y-53278101D01*
X142644427Y-53278424D01*
X142662926Y-53503440D01*
X142662932Y-53503653D01*
X142661490Y-53562685D01*
X142661474Y-53562897D01*
X142632004Y-53786741D01*
X142631935Y-53787061D01*
X142567353Y-53999625D01*
X142567232Y-53999930D01*
X142468800Y-54199091D01*
X142468631Y-54199372D01*
X142338992Y-54379784D01*
X142338780Y-54380034D01*
X142181419Y-54536847D01*
X142181168Y-54537058D01*
X142000302Y-54666068D01*
X142000021Y-54666236D01*
X141800523Y-54763970D01*
X141800218Y-54764090D01*
X141587429Y-54827929D01*
X141587108Y-54827997D01*
X141366748Y-54856225D01*
X141366421Y-54856240D01*
X141144417Y-54848101D01*
X141144091Y-54848062D01*
X140926390Y-54803770D01*
X140926076Y-54803678D01*
X140718534Y-54724425D01*
X140718238Y-54724284D01*
X140526430Y-54612201D01*
X140526161Y-54612013D01*
X140355232Y-54470103D01*
X140354998Y-54469873D01*
X140209542Y-54301955D01*
X140209349Y-54301691D01*
X140093273Y-54112272D01*
X140093125Y-54111979D01*
X140009544Y-53906143D01*
X140009446Y-53905831D01*
X139960606Y-53689109D01*
X139960560Y-53688784D01*
X139947770Y-53466991D01*
X139947772Y-53466928D01*
X139951781Y-53466928D01*
X139964551Y-53688390D01*
X140013318Y-53904790D01*
X140096775Y-54110318D01*
X140212679Y-54299457D01*
X140357917Y-54467125D01*
X140528596Y-54608824D01*
X140720123Y-54720743D01*
X140927346Y-54799875D01*
X141144725Y-54844101D01*
X141366405Y-54852229D01*
X141586432Y-54824043D01*
X141798908Y-54760297D01*
X141998116Y-54662707D01*
X142178703Y-54533896D01*
X142335838Y-54377308D01*
X142465282Y-54197168D01*
X142563566Y-53998304D01*
X142628053Y-53786053D01*
X142657016Y-53566062D01*
X142658628Y-53500059D01*
X142640448Y-53278920D01*
X142586405Y-53063771D01*
X142497953Y-52860344D01*
X142377463Y-52674094D01*
X142228172Y-52510026D01*
X142054081Y-52372538D01*
X141859879Y-52265332D01*
X141650778Y-52191285D01*
X141432388Y-52152384D01*
X141210576Y-52149674D01*
X140991300Y-52183228D01*
X140780449Y-52252145D01*
X140583686Y-52354573D01*
X140406296Y-52487761D01*
X140253036Y-52648139D01*
X140128032Y-52831389D01*
X140034634Y-53032597D01*
X139975354Y-53246352D01*
X139951781Y-53466928D01*
X139947772Y-53466928D01*
X139947778Y-53466663D01*
X139971386Y-53245767D01*
X139971448Y-53245446D01*
X140030817Y-53031363D01*
X140030930Y-53031055D01*
X140124466Y-52829552D01*
X140124628Y-52829267D01*
X140249818Y-52645746D01*
X140250024Y-52645491D01*
X140403511Y-52484876D01*
X140403756Y-52484659D01*
X140581415Y-52351268D01*
X140581693Y-52351093D01*
X140778742Y-52248516D01*
X140779044Y-52248389D01*
X140990213Y-52179369D01*
X140990531Y-52179293D01*
X141210133Y-52145689D01*
X141210460Y-52145666D01*
X141432603Y-52148379D01*
G37*
G36*
X126393871Y-47907809D02*
G01*
X126428829Y-47987258D01*
X126500007Y-48071935D01*
X126500356Y-48073904D01*
X126498825Y-48075191D01*
X126497258Y-48074809D01*
X126484463Y-48064991D01*
X126419588Y-48039910D01*
X126351742Y-48053826D01*
X126302190Y-48102213D01*
X126286626Y-48169872D01*
X126292421Y-48200528D01*
X126316268Y-48273922D01*
X126315852Y-48275878D01*
X126313950Y-48276496D01*
X126312477Y-48275198D01*
X126283006Y-48190569D01*
X126191651Y-48044371D01*
X126191581Y-48042372D01*
X126193277Y-48041312D01*
X126194396Y-48041608D01*
X126243774Y-48072028D01*
X126313019Y-48070709D01*
X126370559Y-48032163D01*
X126398137Y-47968600D01*
X126390058Y-47908882D01*
X126390817Y-47907032D01*
X126392799Y-47906764D01*
X126393871Y-47907809D01*
G37*
G36*
X132229358Y-47910655D02*
G01*
X132229692Y-47911992D01*
X132222888Y-47975281D01*
X132253888Y-48037210D01*
X132313451Y-48072551D01*
X132382696Y-48070078D01*
X132427445Y-48040790D01*
X132429442Y-48040678D01*
X132430537Y-48042351D01*
X132430221Y-48043546D01*
X132341730Y-48180858D01*
X132308589Y-48271912D01*
X132307057Y-48273198D01*
X132305178Y-48272514D01*
X132304808Y-48270610D01*
X132327529Y-48200680D01*
X132329515Y-48131153D01*
X132293750Y-48071842D01*
X132231599Y-48041285D01*
X132162623Y-48049199D01*
X132135663Y-48064893D01*
X132116463Y-48079625D01*
X132114481Y-48079886D01*
X132113263Y-48078299D01*
X132113763Y-48076696D01*
X132182221Y-48001066D01*
X132225903Y-47910906D01*
X132227558Y-47909783D01*
X132229358Y-47910655D01*
G37*
M02*
