G04 #@! TF.GenerationSoftware,KiCad,Pcbnew,(6.0.9)*
G04 #@! TF.CreationDate,2022-12-05T14:11:37+01:00*
G04 #@! TF.ProjectId,PP,50502e6b-6963-4616-945f-706362585858,rev?*
G04 #@! TF.SameCoordinates,Original*
G04 #@! TF.FileFunction,Copper,L1,Top*
G04 #@! TF.FilePolarity,Positive*
%FSLAX46Y46*%
G04 Gerber Fmt 4.6, Leading zero omitted, Abs format (unit mm)*
G04 Created by KiCad (PCBNEW (6.0.9)) date 2022-12-05 14:11:37*
%MOMM*%
%LPD*%
G01*
G04 APERTURE LIST*
G04 Aperture macros list*
%AMRoundRect*
0 Rectangle with rounded corners*
0 $1 Rounding radius*
0 $2 $3 $4 $5 $6 $7 $8 $9 X,Y pos of 4 corners*
0 Add a 4 corners polygon primitive as box body*
4,1,4,$2,$3,$4,$5,$6,$7,$8,$9,$2,$3,0*
0 Add four circle primitives for the rounded corners*
1,1,$1+$1,$2,$3*
1,1,$1+$1,$4,$5*
1,1,$1+$1,$6,$7*
1,1,$1+$1,$8,$9*
0 Add four rect primitives between the rounded corners*
20,1,$1+$1,$2,$3,$4,$5,0*
20,1,$1+$1,$4,$5,$6,$7,0*
20,1,$1+$1,$6,$7,$8,$9,0*
20,1,$1+$1,$8,$9,$2,$3,0*%
G04 Aperture macros list end*
G04 #@! TA.AperFunction,SMDPad,CuDef*
%ADD10RoundRect,0.100000X-0.687500X-0.100000X0.687500X-0.100000X0.687500X0.100000X-0.687500X0.100000X0*%
G04 #@! TD*
G04 #@! TA.AperFunction,ComponentPad*
%ADD11C,0.500000*%
G04 #@! TD*
G04 #@! TA.AperFunction,SMDPad,CuDef*
%ADD12R,3.400000X5.000000*%
G04 #@! TD*
G04 #@! TA.AperFunction,SMDPad,CuDef*
%ADD13R,1.500000X0.900000*%
G04 #@! TD*
G04 #@! TA.AperFunction,SMDPad,CuDef*
%ADD14R,0.900000X1.500000*%
G04 #@! TD*
G04 #@! TA.AperFunction,ComponentPad*
%ADD15C,0.475000*%
G04 #@! TD*
G04 #@! TA.AperFunction,SMDPad,CuDef*
%ADD16R,1.050000X1.050000*%
G04 #@! TD*
G04 #@! TA.AperFunction,SMDPad,CuDef*
%ADD17R,4.200000X4.200000*%
G04 #@! TD*
G04 #@! TA.AperFunction,SMDPad,CuDef*
%ADD18R,2.000000X1.500000*%
G04 #@! TD*
G04 #@! TA.AperFunction,SMDPad,CuDef*
%ADD19R,2.000000X3.800000*%
G04 #@! TD*
G04 #@! TA.AperFunction,SMDPad,CuDef*
%ADD20RoundRect,0.175000X-0.425000X-0.175000X0.425000X-0.175000X0.425000X0.175000X-0.425000X0.175000X0*%
G04 #@! TD*
G04 #@! TA.AperFunction,SMDPad,CuDef*
%ADD21RoundRect,0.225000X0.250000X-0.225000X0.250000X0.225000X-0.250000X0.225000X-0.250000X-0.225000X0*%
G04 #@! TD*
G04 #@! TA.AperFunction,SMDPad,CuDef*
%ADD22RoundRect,0.200000X-0.250000X-0.200000X0.250000X-0.200000X0.250000X0.200000X-0.250000X0.200000X0*%
G04 #@! TD*
G04 #@! TA.AperFunction,SMDPad,CuDef*
%ADD23RoundRect,0.150000X-0.725000X-0.150000X0.725000X-0.150000X0.725000X0.150000X-0.725000X0.150000X0*%
G04 #@! TD*
G04 #@! TA.AperFunction,ComponentPad*
%ADD24C,2.400000*%
G04 #@! TD*
G04 #@! TA.AperFunction,SMDPad,CuDef*
%ADD25R,0.450000X1.300000*%
G04 #@! TD*
G04 #@! TA.AperFunction,ComponentPad*
%ADD26O,1.450000X2.000000*%
G04 #@! TD*
G04 #@! TA.AperFunction,ComponentPad*
%ADD27O,1.150000X1.800000*%
G04 #@! TD*
G04 #@! TA.AperFunction,SMDPad,CuDef*
%ADD28RoundRect,0.225000X-0.225000X-0.250000X0.225000X-0.250000X0.225000X0.250000X-0.225000X0.250000X0*%
G04 #@! TD*
G04 #@! TA.AperFunction,ViaPad*
%ADD29C,0.800000*%
G04 #@! TD*
G04 #@! TA.AperFunction,Conductor*
%ADD30C,0.250000*%
G04 #@! TD*
G04 APERTURE END LIST*
D10*
X135707500Y-54240000D03*
X135707500Y-54890000D03*
X135707500Y-55540000D03*
X135707500Y-56190000D03*
X135707500Y-56840000D03*
X135707500Y-57490000D03*
X135707500Y-58140000D03*
X135707500Y-58790000D03*
X141432500Y-58790000D03*
X141432500Y-58140000D03*
X141432500Y-57490000D03*
X141432500Y-56840000D03*
X141432500Y-56190000D03*
X141432500Y-55540000D03*
X141432500Y-54890000D03*
X141432500Y-54240000D03*
D11*
X137820000Y-55015000D03*
X137820000Y-58015000D03*
D12*
X138570000Y-56515000D03*
D11*
X139320000Y-55015000D03*
X137820000Y-56515000D03*
X139320000Y-58015000D03*
X139320000Y-56515000D03*
D13*
X100135000Y-57230000D03*
X100135000Y-58500000D03*
X100135000Y-59770000D03*
X100135000Y-61040000D03*
X100135000Y-62310000D03*
X100135000Y-63580000D03*
X100135000Y-64850000D03*
X100135000Y-66120000D03*
X100135000Y-67390000D03*
X100135000Y-68660000D03*
X100135000Y-69930000D03*
X100135000Y-71200000D03*
X100135000Y-72470000D03*
X100135000Y-73740000D03*
D14*
X103175000Y-74990000D03*
X104445000Y-74990000D03*
X105715000Y-74990000D03*
X106985000Y-74990000D03*
X108255000Y-74990000D03*
X109525000Y-74990000D03*
X110795000Y-74990000D03*
X112065000Y-74990000D03*
X113335000Y-74990000D03*
X114605000Y-74990000D03*
D13*
X117635000Y-73740000D03*
X117635000Y-72470000D03*
X117635000Y-71200000D03*
X117635000Y-69930000D03*
X117635000Y-68660000D03*
X117635000Y-67390000D03*
X117635000Y-66120000D03*
X117635000Y-64850000D03*
X117635000Y-63580000D03*
X117635000Y-62310000D03*
X117635000Y-61040000D03*
X117635000Y-59770000D03*
X117635000Y-58500000D03*
X117635000Y-57230000D03*
D15*
X106680000Y-63807500D03*
X108967500Y-66095000D03*
D16*
X106680000Y-63045000D03*
D15*
X108967500Y-63045000D03*
X106680000Y-65332500D03*
D16*
X109730000Y-66095000D03*
X108205000Y-66095000D03*
D15*
X107442500Y-66095000D03*
X107442500Y-63045000D03*
X109730000Y-63807500D03*
X108205000Y-65332500D03*
D16*
X109730000Y-64570000D03*
X106680000Y-64570000D03*
X106680000Y-66095000D03*
X109730000Y-63045000D03*
D15*
X108967500Y-64570000D03*
D16*
X108205000Y-63045000D03*
D15*
X107442500Y-64570000D03*
D17*
X108205000Y-64570000D03*
D15*
X109730000Y-65332500D03*
D16*
X108205000Y-64570000D03*
D15*
X108205000Y-63807500D03*
D18*
X125320000Y-62640000D03*
D19*
X131620000Y-64940000D03*
D18*
X125320000Y-64940000D03*
X125320000Y-67240000D03*
D20*
X96800000Y-82250000D03*
X105200000Y-82250000D03*
X96800000Y-77750000D03*
X105200000Y-77750000D03*
X109800000Y-82250000D03*
X118200000Y-82250000D03*
X109800000Y-77750000D03*
X118200000Y-77750000D03*
D21*
X107000000Y-80775000D03*
X107000000Y-79225000D03*
X109000000Y-80775000D03*
X109000000Y-79225000D03*
D22*
X120605000Y-77925000D03*
X120605000Y-79825000D03*
X122605000Y-78875000D03*
D23*
X134585000Y-74295000D03*
X134585000Y-75565000D03*
X134585000Y-76835000D03*
X134585000Y-78105000D03*
X139735000Y-78105000D03*
X139735000Y-76835000D03*
X139735000Y-75565000D03*
X139735000Y-74295000D03*
D22*
X141240000Y-67630000D03*
X141240000Y-69530000D03*
X143240000Y-68580000D03*
D23*
X125330000Y-70520000D03*
X125330000Y-71790000D03*
X125330000Y-73060000D03*
X125330000Y-74330000D03*
X130480000Y-74330000D03*
X130480000Y-73060000D03*
X130480000Y-71790000D03*
X130480000Y-70520000D03*
D24*
X147000000Y-63000000D03*
X147000000Y-68000000D03*
D25*
X127710000Y-45920000D03*
X128360000Y-45920000D03*
X129010000Y-45920000D03*
X129660000Y-45920000D03*
X130310000Y-45920000D03*
D26*
X125285000Y-45970000D03*
X132735000Y-45970000D03*
D27*
X125135000Y-49770000D03*
X132885000Y-49770000D03*
D24*
X147000000Y-46000000D03*
X147000000Y-51000000D03*
D28*
X139675000Y-61090000D03*
X141225000Y-61090000D03*
X133495000Y-70320000D03*
X135045000Y-70320000D03*
X139675000Y-63600000D03*
X141225000Y-63600000D03*
X125195000Y-77040000D03*
X126745000Y-77040000D03*
D24*
X145000000Y-81200000D03*
X145000000Y-76000000D03*
X147000000Y-55000000D03*
D29*
X142000000Y-61000000D03*
X144000000Y-66000000D03*
X146000000Y-66000000D03*
X104000000Y-59224500D03*
X137725500Y-68000000D03*
X144000000Y-67000000D03*
X144000000Y-63000000D03*
X142000000Y-63000000D03*
X134000000Y-51000000D03*
X132000000Y-56000000D03*
X127948792Y-67051208D03*
X129000000Y-63000000D03*
X143000000Y-55000000D03*
X123000000Y-74000000D03*
X133000000Y-72000000D03*
X144000000Y-72000000D03*
X133000000Y-62000000D03*
X133000000Y-69000000D03*
X133858399Y-66141601D03*
X135000000Y-61000000D03*
X119000000Y-70000000D03*
X110987701Y-76987701D03*
X110000000Y-70000000D03*
X112000000Y-77000000D03*
X111000000Y-73000000D03*
X108000000Y-82000000D03*
X119000000Y-74000000D03*
X119000000Y-76000000D03*
X127000000Y-63000000D03*
X142000000Y-73000000D03*
X137000000Y-78000000D03*
X140000000Y-80000000D03*
X140000000Y-70000000D03*
X137000000Y-70000000D03*
X140000000Y-65000000D03*
X119000000Y-80000000D03*
X103000000Y-61000000D03*
X120000000Y-58000000D03*
X135000000Y-53000000D03*
X144000000Y-52000000D03*
X121000000Y-76000000D03*
X121000000Y-73000000D03*
X120000000Y-65000000D03*
X114000000Y-65000000D03*
X115947812Y-57198005D03*
X102096189Y-57248101D03*
X103000000Y-73000000D03*
D30*
X141315000Y-61000000D02*
X141225000Y-61090000D01*
X142000000Y-61000000D02*
X141315000Y-61000000D01*
X144000000Y-66000000D02*
X146000000Y-66000000D01*
X104224500Y-59224500D02*
X104000000Y-59224500D01*
X104224500Y-59224500D02*
X107885000Y-62885000D01*
X107885000Y-64725000D02*
X107885000Y-62885000D01*
X138810000Y-56190000D02*
X139000000Y-56000000D01*
X138810000Y-56190000D02*
X137945000Y-56190000D01*
X139000000Y-56000000D02*
X139000000Y-55000000D01*
X141432500Y-56190000D02*
X138810000Y-56190000D01*
X135707500Y-55540000D02*
X137295000Y-55540000D01*
X137945000Y-56190000D02*
X137295000Y-55540000D01*
X145000000Y-68000000D02*
X147000000Y-68000000D01*
X134275000Y-56883959D02*
X134275000Y-64549500D01*
X144000000Y-67000000D02*
X145000000Y-68000000D01*
X134968959Y-56190000D02*
X134275000Y-56883959D01*
X134275000Y-64549500D02*
X137725500Y-68000000D01*
X135707500Y-56190000D02*
X134968959Y-56190000D01*
X141400000Y-63600000D02*
X142000000Y-63000000D01*
X141225000Y-63600000D02*
X141400000Y-63600000D01*
X142171041Y-55540000D02*
X144000000Y-57368959D01*
X144000000Y-57368959D02*
X144000000Y-63000000D01*
X141432500Y-55540000D02*
X142171041Y-55540000D01*
X126155000Y-78000000D02*
X125195000Y-77040000D01*
X129636396Y-78000000D02*
X126155000Y-78000000D01*
X133341396Y-74295000D02*
X129636396Y-78000000D01*
X134585000Y-74295000D02*
X133341396Y-74295000D01*
X122847462Y-77925000D02*
X120605000Y-77925000D01*
X123922462Y-79000000D02*
X122847462Y-77925000D01*
X134585000Y-78105000D02*
X133690000Y-79000000D01*
X133690000Y-79000000D02*
X123922462Y-79000000D01*
X137840000Y-80000000D02*
X139735000Y-78105000D01*
X122605000Y-78875000D02*
X123730000Y-80000000D01*
X123730000Y-80000000D02*
X137840000Y-80000000D01*
X148525000Y-61475000D02*
X147000000Y-63000000D01*
X148525000Y-50368324D02*
X148525000Y-61475000D01*
X147631676Y-49475000D02*
X148525000Y-50368324D01*
X135525000Y-49475000D02*
X147631676Y-49475000D01*
X134000000Y-51000000D02*
X135525000Y-49475000D01*
X133110000Y-54890000D02*
X132000000Y-56000000D01*
X135707500Y-54890000D02*
X133110000Y-54890000D01*
X131396396Y-54240000D02*
X135707500Y-54240000D01*
X131000000Y-54636396D02*
X131396396Y-54240000D01*
X131000000Y-61275000D02*
X131000000Y-54636396D01*
X133300305Y-61275000D02*
X131000000Y-61275000D01*
X133725000Y-61699695D02*
X133300305Y-61275000D01*
X133725000Y-62300305D02*
X133725000Y-61699695D01*
X133495000Y-62530305D02*
X133725000Y-62300305D01*
X133495000Y-64753604D02*
X133495000Y-62530305D01*
X135075000Y-66333604D02*
X133495000Y-64753604D01*
X135075000Y-66706396D02*
X135075000Y-66333604D01*
X133781396Y-68000000D02*
X135075000Y-66706396D01*
X129922183Y-68000000D02*
X133781396Y-68000000D01*
X127937183Y-66015000D02*
X129922183Y-68000000D01*
X124145000Y-66015000D02*
X127937183Y-66015000D01*
X121725000Y-68435000D02*
X124145000Y-66015000D01*
X120699695Y-73725000D02*
X121300305Y-73725000D01*
X121300305Y-73725000D02*
X121725000Y-73300305D01*
X118174695Y-71200000D02*
X120699695Y-73725000D01*
X117635000Y-71200000D02*
X118174695Y-71200000D01*
X121725000Y-73300305D02*
X121725000Y-68435000D01*
X129000000Y-58000000D02*
X120000000Y-58000000D01*
X130000000Y-57000000D02*
X129000000Y-58000000D01*
X132000000Y-53000000D02*
X130000000Y-55000000D01*
X135000000Y-53000000D02*
X132000000Y-53000000D01*
X130000000Y-55000000D02*
X130000000Y-57000000D01*
X127760000Y-67240000D02*
X125320000Y-67240000D01*
X127948792Y-67051208D02*
X127760000Y-67240000D01*
X127000000Y-61000000D02*
X129000000Y-63000000D01*
X121974695Y-61000000D02*
X127000000Y-61000000D01*
X119275000Y-57699695D02*
X119275000Y-58300305D01*
X119699695Y-57275000D02*
X119275000Y-57699695D01*
X120575305Y-57550000D02*
X120300305Y-57275000D01*
X120300305Y-57275000D02*
X119699695Y-57275000D01*
X119275000Y-58300305D02*
X121974695Y-61000000D01*
X127710000Y-57550000D02*
X120575305Y-57550000D01*
X127710000Y-45920000D02*
X127710000Y-57550000D01*
X142206396Y-56840000D02*
X143000000Y-57633604D01*
X138900000Y-67900000D02*
X138900000Y-61865000D01*
X141432500Y-56840000D02*
X142206396Y-56840000D01*
X143000000Y-63800000D02*
X138900000Y-67900000D01*
X138900000Y-69980000D02*
X138900000Y-67900000D01*
X143000000Y-57633604D02*
X143000000Y-63800000D01*
X141542500Y-55000000D02*
X141432500Y-54890000D01*
X143000000Y-55000000D02*
X141542500Y-55000000D01*
X145000000Y-54000000D02*
X141672500Y-54000000D01*
X145000000Y-63870000D02*
X145000000Y-54000000D01*
X141240000Y-67630000D02*
X145000000Y-63870000D01*
X141672500Y-54000000D02*
X141432500Y-54240000D01*
X123330000Y-74330000D02*
X123000000Y-74000000D01*
X125330000Y-74330000D02*
X123330000Y-74330000D01*
X133000000Y-72086751D02*
X130756751Y-74330000D01*
X133000000Y-72000000D02*
X133000000Y-72086751D01*
X130756751Y-74330000D02*
X130480000Y-74330000D01*
X143240000Y-71240000D02*
X144000000Y-72000000D01*
X143240000Y-68580000D02*
X143240000Y-71240000D01*
X133045000Y-62045000D02*
X133000000Y-62000000D01*
X133045000Y-64940000D02*
X133045000Y-62045000D01*
X133000000Y-69825000D02*
X133495000Y-70320000D01*
X133000000Y-69000000D02*
X133000000Y-69825000D01*
X133045000Y-64940000D02*
X133045000Y-65328202D01*
X133045000Y-65328202D02*
X133858399Y-66141601D01*
X135210000Y-58790000D02*
X135707500Y-58790000D01*
X135000000Y-59000000D02*
X135210000Y-58790000D01*
X135000000Y-61000000D02*
X135000000Y-59000000D01*
X118930000Y-69930000D02*
X119000000Y-70000000D01*
X117635000Y-69930000D02*
X118930000Y-69930000D01*
X110225402Y-77750000D02*
X110987701Y-76987701D01*
X109800000Y-77750000D02*
X110225402Y-77750000D01*
X103175000Y-75825000D02*
X103175000Y-74990000D01*
X101250000Y-77750000D02*
X103175000Y-75825000D01*
X96800000Y-77750000D02*
X101250000Y-77750000D01*
X104750000Y-77750000D02*
X103175000Y-76175000D01*
X105200000Y-77750000D02*
X104750000Y-77750000D01*
X118200000Y-79200000D02*
X118200000Y-77750000D01*
X119000000Y-80000000D02*
X118200000Y-79200000D01*
X102795305Y-59770000D02*
X100135000Y-59770000D01*
X105000000Y-61974695D02*
X102795305Y-59770000D01*
X105000000Y-68000000D02*
X105000000Y-61974695D01*
X108000000Y-68000000D02*
X105000000Y-68000000D01*
X110000000Y-70000000D02*
X108000000Y-68000000D01*
X109775000Y-79225000D02*
X112000000Y-77000000D01*
X109000000Y-79225000D02*
X109775000Y-79225000D01*
X111000000Y-73000000D02*
X111000000Y-68000000D01*
X107000000Y-81000000D02*
X108000000Y-82000000D01*
X111000000Y-68000000D02*
X114000000Y-65000000D01*
X107000000Y-80775000D02*
X107000000Y-81000000D01*
X107000000Y-80775000D02*
X109000000Y-80775000D01*
X109800000Y-82250000D02*
X109800000Y-80025000D01*
X109800000Y-80025000D02*
X109000000Y-79225000D01*
X109800000Y-82250000D02*
X118200000Y-82250000D01*
X105200000Y-82250000D02*
X96800000Y-82250000D01*
X119000000Y-74000000D02*
X117895000Y-74000000D01*
X117895000Y-74000000D02*
X117635000Y-73740000D01*
X118935000Y-76065000D02*
X119000000Y-76000000D01*
X110160000Y-76065000D02*
X118935000Y-76065000D01*
X107000000Y-79225000D02*
X110160000Y-76065000D01*
X105200000Y-81025000D02*
X107000000Y-79225000D01*
X105200000Y-82250000D02*
X105200000Y-81025000D01*
X103175000Y-76175000D02*
X103175000Y-74990000D01*
X126640000Y-62640000D02*
X127000000Y-63000000D01*
X125320000Y-62640000D02*
X126640000Y-62640000D01*
X126530000Y-73983249D02*
X125606751Y-73060000D01*
X125606751Y-73060000D02*
X125330000Y-73060000D01*
X126530000Y-75470000D02*
X126530000Y-73983249D01*
X125195000Y-76805000D02*
X126530000Y-75470000D01*
X125195000Y-77040000D02*
X125195000Y-76805000D01*
X125330000Y-73060000D02*
X125320000Y-73050000D01*
X125320000Y-73050000D02*
X125320000Y-67240000D01*
X142220000Y-57490000D02*
X141432500Y-57490000D01*
X142545000Y-57815000D02*
X142220000Y-57490000D01*
X142545000Y-59066041D02*
X142545000Y-57815000D01*
X139222183Y-60290000D02*
X141321041Y-60290000D01*
X137255305Y-70770000D02*
X138450000Y-69575305D01*
X138450000Y-69575305D02*
X138450000Y-61062183D01*
X136230000Y-70770000D02*
X137255305Y-70770000D01*
X129960000Y-77040000D02*
X136230000Y-70770000D01*
X138450000Y-61062183D02*
X139222183Y-60290000D01*
X141321041Y-60290000D02*
X142545000Y-59066041D01*
X126745000Y-77040000D02*
X129960000Y-77040000D01*
X138900000Y-61865000D02*
X139675000Y-61090000D01*
X134585000Y-74295000D02*
X138900000Y-69980000D01*
X142015000Y-68405000D02*
X141240000Y-67630000D01*
X142000000Y-73000000D02*
X142015000Y-72985000D01*
X142015000Y-72985000D02*
X142015000Y-68405000D01*
X134690000Y-78000000D02*
X134585000Y-78105000D01*
X145000000Y-80000000D02*
X140000000Y-80000000D01*
X137000000Y-78000000D02*
X134690000Y-78000000D01*
X148525000Y-64525000D02*
X147000000Y-63000000D01*
X148525000Y-69591751D02*
X148525000Y-64525000D01*
X140011751Y-78105000D02*
X148525000Y-69591751D01*
X139735000Y-78105000D02*
X140011751Y-78105000D01*
X140470000Y-69530000D02*
X140000000Y-70000000D01*
X141240000Y-69530000D02*
X140470000Y-69530000D01*
X136680000Y-70320000D02*
X137000000Y-70000000D01*
X135045000Y-70320000D02*
X136680000Y-70320000D01*
X139675000Y-64675000D02*
X140000000Y-65000000D01*
X139675000Y-63600000D02*
X139675000Y-64675000D01*
X141225000Y-62050000D02*
X139675000Y-63600000D01*
X141225000Y-61090000D02*
X141225000Y-62050000D01*
X143820000Y-68000000D02*
X143240000Y-68580000D01*
X147000000Y-68000000D02*
X143820000Y-68000000D01*
X119175000Y-79825000D02*
X119000000Y-80000000D01*
X120605000Y-79825000D02*
X119175000Y-79825000D01*
X102960000Y-61040000D02*
X100135000Y-61040000D01*
X103000000Y-61000000D02*
X102960000Y-61040000D01*
X145000000Y-51000000D02*
X144000000Y-52000000D01*
X147000000Y-51000000D02*
X145000000Y-51000000D01*
X133045000Y-64940000D02*
X131620000Y-64940000D01*
X121000000Y-77530000D02*
X120605000Y-77925000D01*
X121000000Y-76000000D02*
X121000000Y-77530000D01*
X121000000Y-69000000D02*
X121000000Y-73000000D01*
X119390000Y-67390000D02*
X121000000Y-69000000D01*
X117635000Y-67390000D02*
X119390000Y-67390000D01*
X124660000Y-75000000D02*
X125330000Y-74330000D01*
X116000000Y-75000000D02*
X124660000Y-75000000D01*
X116635000Y-63580000D02*
X116000000Y-64215000D01*
X116000000Y-64215000D02*
X116000000Y-75000000D01*
X117635000Y-63580000D02*
X116635000Y-63580000D01*
X112000000Y-59000000D02*
X111500000Y-58500000D01*
X111500000Y-58500000D02*
X100135000Y-58500000D01*
X112000000Y-63000000D02*
X112000000Y-59000000D01*
X114000000Y-65000000D02*
X112000000Y-63000000D01*
X120060000Y-64940000D02*
X120000000Y-65000000D01*
X125320000Y-64940000D02*
X120060000Y-64940000D01*
X131620000Y-64940000D02*
X125320000Y-64940000D01*
X130310000Y-45920000D02*
X132685000Y-45920000D01*
X132685000Y-45920000D02*
X132735000Y-45970000D01*
X132885000Y-46120000D02*
X132735000Y-45970000D01*
X132885000Y-49770000D02*
X132885000Y-46120000D01*
X125285000Y-49620000D02*
X125135000Y-49770000D01*
X125285000Y-45970000D02*
X125285000Y-49620000D01*
X115979807Y-57230000D02*
X115947812Y-57198005D01*
X117635000Y-57230000D02*
X115979807Y-57230000D01*
X102078088Y-57230000D02*
X102096189Y-57248101D01*
X100135000Y-57230000D02*
X102078088Y-57230000D01*
X103175000Y-73175000D02*
X103000000Y-73000000D01*
X103175000Y-74990000D02*
X103175000Y-73175000D01*
M02*
