G04 #@! TF.GenerationSoftware,KiCad,Pcbnew,(6.0.9)*
G04 #@! TF.CreationDate,2022-12-05T14:11:37+01:00*
G04 #@! TF.ProjectId,PP,50502e6b-6963-4616-945f-706362585858,rev?*
G04 #@! TF.SameCoordinates,Original*
G04 #@! TF.FileFunction,Paste,Top*
G04 #@! TF.FilePolarity,Positive*
%FSLAX46Y46*%
G04 Gerber Fmt 4.6, Leading zero omitted, Abs format (unit mm)*
G04 Created by KiCad (PCBNEW (6.0.9)) date 2022-12-05 14:11:37*
%MOMM*%
%LPD*%
G01*
G04 APERTURE LIST*
G04 Aperture macros list*
%AMRoundRect*
0 Rectangle with rounded corners*
0 $1 Rounding radius*
0 $2 $3 $4 $5 $6 $7 $8 $9 X,Y pos of 4 corners*
0 Add a 4 corners polygon primitive as box body*
4,1,4,$2,$3,$4,$5,$6,$7,$8,$9,$2,$3,0*
0 Add four circle primitives for the rounded corners*
1,1,$1+$1,$2,$3*
1,1,$1+$1,$4,$5*
1,1,$1+$1,$6,$7*
1,1,$1+$1,$8,$9*
0 Add four rect primitives between the rounded corners*
20,1,$1+$1,$2,$3,$4,$5,0*
20,1,$1+$1,$4,$5,$6,$7,0*
20,1,$1+$1,$6,$7,$8,$9,0*
20,1,$1+$1,$8,$9,$2,$3,0*%
G04 Aperture macros list end*
%ADD10RoundRect,0.232500X-0.757500X-0.232500X0.757500X-0.232500X0.757500X0.232500X-0.757500X0.232500X0*%
%ADD11RoundRect,0.100000X-0.687500X-0.100000X0.687500X-0.100000X0.687500X0.100000X-0.687500X0.100000X0*%
%ADD12R,1.500000X0.900000*%
%ADD13R,0.900000X1.500000*%
%ADD14R,1.050000X1.050000*%
%ADD15R,2.000000X1.500000*%
%ADD16R,2.000000X3.800000*%
%ADD17RoundRect,0.175000X-0.425000X-0.175000X0.425000X-0.175000X0.425000X0.175000X-0.425000X0.175000X0*%
%ADD18RoundRect,0.225000X0.250000X-0.225000X0.250000X0.225000X-0.250000X0.225000X-0.250000X-0.225000X0*%
%ADD19RoundRect,0.200000X-0.250000X-0.200000X0.250000X-0.200000X0.250000X0.200000X-0.250000X0.200000X0*%
%ADD20RoundRect,0.150000X-0.725000X-0.150000X0.725000X-0.150000X0.725000X0.150000X-0.725000X0.150000X0*%
%ADD21R,0.450000X1.300000*%
%ADD22RoundRect,0.225000X-0.225000X-0.250000X0.225000X-0.250000X0.225000X0.250000X-0.225000X0.250000X0*%
G04 APERTURE END LIST*
D10*
X138570000Y-57095000D03*
X138570000Y-55935000D03*
D11*
X135707500Y-54240000D03*
X135707500Y-54890000D03*
X135707500Y-55540000D03*
X135707500Y-56190000D03*
X135707500Y-56840000D03*
X135707500Y-57490000D03*
X135707500Y-58140000D03*
X135707500Y-58790000D03*
X141432500Y-58790000D03*
X141432500Y-58140000D03*
X141432500Y-57490000D03*
X141432500Y-56840000D03*
X141432500Y-56190000D03*
X141432500Y-55540000D03*
X141432500Y-54890000D03*
X141432500Y-54240000D03*
D12*
X100135000Y-57230000D03*
X100135000Y-58500000D03*
X100135000Y-59770000D03*
X100135000Y-61040000D03*
X100135000Y-62310000D03*
X100135000Y-63580000D03*
X100135000Y-64850000D03*
X100135000Y-66120000D03*
X100135000Y-67390000D03*
X100135000Y-68660000D03*
X100135000Y-69930000D03*
X100135000Y-71200000D03*
X100135000Y-72470000D03*
X100135000Y-73740000D03*
D13*
X103175000Y-74990000D03*
X104445000Y-74990000D03*
X105715000Y-74990000D03*
X106985000Y-74990000D03*
X108255000Y-74990000D03*
X109525000Y-74990000D03*
X110795000Y-74990000D03*
X112065000Y-74990000D03*
X113335000Y-74990000D03*
X114605000Y-74990000D03*
D12*
X117635000Y-73740000D03*
X117635000Y-72470000D03*
X117635000Y-71200000D03*
X117635000Y-69930000D03*
X117635000Y-68660000D03*
X117635000Y-67390000D03*
X117635000Y-66120000D03*
X117635000Y-64850000D03*
X117635000Y-63580000D03*
X117635000Y-62310000D03*
X117635000Y-61040000D03*
X117635000Y-59770000D03*
X117635000Y-58500000D03*
X117635000Y-57230000D03*
D14*
X106680000Y-63045000D03*
X109730000Y-66095000D03*
X108205000Y-66095000D03*
X109730000Y-64570000D03*
X106680000Y-64570000D03*
X106680000Y-66095000D03*
X109730000Y-63045000D03*
X108205000Y-63045000D03*
X108205000Y-64570000D03*
D15*
X125320000Y-62640000D03*
D16*
X131620000Y-64940000D03*
D15*
X125320000Y-64940000D03*
X125320000Y-67240000D03*
D17*
X96800000Y-82250000D03*
X105200000Y-82250000D03*
X96800000Y-77750000D03*
X105200000Y-77750000D03*
X109800000Y-82250000D03*
X118200000Y-82250000D03*
X109800000Y-77750000D03*
X118200000Y-77750000D03*
D18*
X107000000Y-80775000D03*
X107000000Y-79225000D03*
X109000000Y-80775000D03*
X109000000Y-79225000D03*
D19*
X120605000Y-77925000D03*
X120605000Y-79825000D03*
X122605000Y-78875000D03*
D20*
X134585000Y-74295000D03*
X134585000Y-75565000D03*
X134585000Y-76835000D03*
X134585000Y-78105000D03*
X139735000Y-78105000D03*
X139735000Y-76835000D03*
X139735000Y-75565000D03*
X139735000Y-74295000D03*
D19*
X141240000Y-67630000D03*
X141240000Y-69530000D03*
X143240000Y-68580000D03*
D20*
X125330000Y-70520000D03*
X125330000Y-71790000D03*
X125330000Y-73060000D03*
X125330000Y-74330000D03*
X130480000Y-74330000D03*
X130480000Y-73060000D03*
X130480000Y-71790000D03*
X130480000Y-70520000D03*
D21*
X127710000Y-45920000D03*
X128360000Y-45920000D03*
X129010000Y-45920000D03*
X129660000Y-45920000D03*
X130310000Y-45920000D03*
D22*
X139675000Y-61090000D03*
X141225000Y-61090000D03*
X133495000Y-70320000D03*
X135045000Y-70320000D03*
X139675000Y-63600000D03*
X141225000Y-63600000D03*
X125195000Y-77040000D03*
X126745000Y-77040000D03*
M02*
