G04 #@! TF.GenerationSoftware,KiCad,Pcbnew,(6.0.9)*
G04 #@! TF.CreationDate,2022-12-21T18:39:15+01:00*
G04 #@! TF.ProjectId,PP,50502e6b-6963-4616-945f-706362585858,rev?*
G04 #@! TF.SameCoordinates,Original*
G04 #@! TF.FileFunction,Legend,Top*
G04 #@! TF.FilePolarity,Positive*
%FSLAX46Y46*%
G04 Gerber Fmt 4.6, Leading zero omitted, Abs format (unit mm)*
G04 Created by KiCad (PCBNEW (6.0.9)) date 2022-12-21 18:39:15*
%MOMM*%
%LPD*%
G01*
G04 APERTURE LIST*
%ADD10C,0.120000*%
%ADD11C,0.150000*%
%ADD12C,0.200000*%
G04 APERTURE END LIST*
D10*
X145250000Y-84750000D02*
X145250000Y-81750000D01*
X97250000Y-84750000D02*
X145250000Y-84750000D01*
X95000000Y-84000000D02*
X97250000Y-84750000D01*
X88750000Y-49500000D02*
X87500000Y-49750000D01*
D11*
X92857142Y-73452380D02*
X92523809Y-72976190D01*
X92285714Y-73452380D02*
X92285714Y-72452380D01*
X92666666Y-72452380D01*
X92761904Y-72500000D01*
X92809523Y-72547619D01*
X92857142Y-72642857D01*
X92857142Y-72785714D01*
X92809523Y-72880952D01*
X92761904Y-72928571D01*
X92666666Y-72976190D01*
X92285714Y-72976190D01*
X93190476Y-72452380D02*
X93857142Y-73452380D01*
X93857142Y-72452380D02*
X93190476Y-73452380D01*
X94428571Y-72452380D02*
X94523809Y-72452380D01*
X94619047Y-72500000D01*
X94666666Y-72547619D01*
X94714285Y-72642857D01*
X94761904Y-72833333D01*
X94761904Y-73071428D01*
X94714285Y-73261904D01*
X94666666Y-73357142D01*
X94619047Y-73404761D01*
X94523809Y-73452380D01*
X94428571Y-73452380D01*
X94333333Y-73404761D01*
X94285714Y-73357142D01*
X94238095Y-73261904D01*
X94190476Y-73071428D01*
X94190476Y-72833333D01*
X94238095Y-72642857D01*
X94285714Y-72547619D01*
X94333333Y-72500000D01*
X94428571Y-72452380D01*
X92011904Y-74452380D02*
X92583333Y-74452380D01*
X92297619Y-75452380D02*
X92297619Y-74452380D01*
X92821428Y-74452380D02*
X93488095Y-75452380D01*
X93488095Y-74452380D02*
X92821428Y-75452380D01*
X94059523Y-74452380D02*
X94154761Y-74452380D01*
X94250000Y-74500000D01*
X94297619Y-74547619D01*
X94345238Y-74642857D01*
X94392857Y-74833333D01*
X94392857Y-75071428D01*
X94345238Y-75261904D01*
X94297619Y-75357142D01*
X94250000Y-75404761D01*
X94154761Y-75452380D01*
X94059523Y-75452380D01*
X93964285Y-75404761D01*
X93916666Y-75357142D01*
X93869047Y-75261904D01*
X93821428Y-75071428D01*
X93821428Y-74833333D01*
X93869047Y-74642857D01*
X93916666Y-74547619D01*
X93964285Y-74500000D01*
X94059523Y-74452380D01*
X92452380Y-78452380D02*
X92642857Y-78452380D01*
X92738095Y-78500000D01*
X92833333Y-78595238D01*
X92880952Y-78785714D01*
X92880952Y-79119047D01*
X92833333Y-79309523D01*
X92738095Y-79404761D01*
X92642857Y-79452380D01*
X92452380Y-79452380D01*
X92357142Y-79404761D01*
X92261904Y-79309523D01*
X92214285Y-79119047D01*
X92214285Y-78785714D01*
X92261904Y-78595238D01*
X92357142Y-78500000D01*
X92452380Y-78452380D01*
X93833333Y-79452380D02*
X93261904Y-79452380D01*
X93547619Y-79452380D02*
X93547619Y-78452380D01*
X93452380Y-78595238D01*
X93357142Y-78690476D01*
X93261904Y-78738095D01*
X94404761Y-78880952D02*
X94309523Y-78833333D01*
X94261904Y-78785714D01*
X94214285Y-78690476D01*
X94214285Y-78642857D01*
X94261904Y-78547619D01*
X94309523Y-78500000D01*
X94404761Y-78452380D01*
X94595238Y-78452380D01*
X94690476Y-78500000D01*
X94738095Y-78547619D01*
X94785714Y-78642857D01*
X94785714Y-78690476D01*
X94738095Y-78785714D01*
X94690476Y-78833333D01*
X94595238Y-78880952D01*
X94404761Y-78880952D01*
X94309523Y-78928571D01*
X94261904Y-78976190D01*
X94214285Y-79071428D01*
X94214285Y-79261904D01*
X94261904Y-79357142D01*
X94309523Y-79404761D01*
X94404761Y-79452380D01*
X94595238Y-79452380D01*
X94690476Y-79404761D01*
X94738095Y-79357142D01*
X94785714Y-79261904D01*
X94785714Y-79071428D01*
X94738095Y-78976190D01*
X94690476Y-78928571D01*
X94595238Y-78880952D01*
X92136904Y-83452380D02*
X92136904Y-82452380D01*
X92470238Y-83166666D01*
X92803571Y-82452380D01*
X92803571Y-83452380D01*
X93470238Y-82452380D02*
X93660714Y-82452380D01*
X93755952Y-82500000D01*
X93851190Y-82595238D01*
X93898809Y-82785714D01*
X93898809Y-83119047D01*
X93851190Y-83309523D01*
X93755952Y-83404761D01*
X93660714Y-83452380D01*
X93470238Y-83452380D01*
X93375000Y-83404761D01*
X93279761Y-83309523D01*
X93232142Y-83119047D01*
X93232142Y-82785714D01*
X93279761Y-82595238D01*
X93375000Y-82500000D01*
X93470238Y-82452380D01*
X94184523Y-82452380D02*
X94755952Y-82452380D01*
X94470238Y-83452380D02*
X94470238Y-82452380D01*
X92202380Y-76452380D02*
X92392857Y-76452380D01*
X92488095Y-76500000D01*
X92583333Y-76595238D01*
X92630952Y-76785714D01*
X92630952Y-77119047D01*
X92583333Y-77309523D01*
X92488095Y-77404761D01*
X92392857Y-77452380D01*
X92202380Y-77452380D01*
X92107142Y-77404761D01*
X92011904Y-77309523D01*
X91964285Y-77119047D01*
X91964285Y-76785714D01*
X92011904Y-76595238D01*
X92107142Y-76500000D01*
X92202380Y-76452380D01*
X93011904Y-76547619D02*
X93059523Y-76500000D01*
X93154761Y-76452380D01*
X93392857Y-76452380D01*
X93488095Y-76500000D01*
X93535714Y-76547619D01*
X93583333Y-76642857D01*
X93583333Y-76738095D01*
X93535714Y-76880952D01*
X92964285Y-77452380D01*
X93583333Y-77452380D01*
X94535714Y-77452380D02*
X93964285Y-77452380D01*
X94250000Y-77452380D02*
X94250000Y-76452380D01*
X94154761Y-76595238D01*
X94059523Y-76690476D01*
X93964285Y-76738095D01*
X92136904Y-81452380D02*
X92136904Y-80452380D01*
X92470238Y-81166666D01*
X92803571Y-80452380D01*
X92803571Y-81452380D01*
X93470238Y-80452380D02*
X93660714Y-80452380D01*
X93755952Y-80500000D01*
X93851190Y-80595238D01*
X93898809Y-80785714D01*
X93898809Y-81119047D01*
X93851190Y-81309523D01*
X93755952Y-81404761D01*
X93660714Y-81452380D01*
X93470238Y-81452380D01*
X93375000Y-81404761D01*
X93279761Y-81309523D01*
X93232142Y-81119047D01*
X93232142Y-80785714D01*
X93279761Y-80595238D01*
X93375000Y-80500000D01*
X93470238Y-80452380D01*
X94184523Y-80452380D02*
X94755952Y-80452380D01*
X94470238Y-81452380D02*
X94470238Y-80452380D01*
D10*
X91750000Y-74000000D02*
X95000000Y-74000000D01*
X95000000Y-74000000D02*
X95000000Y-76000000D01*
X95000000Y-76000000D02*
X91750000Y-76000000D01*
X91750000Y-76000000D02*
X91750000Y-74000000D01*
X91750000Y-82000000D02*
X95000000Y-82000000D01*
X95000000Y-82000000D02*
X95000000Y-84000000D01*
X95000000Y-84000000D02*
X91750000Y-84000000D01*
X91750000Y-84000000D02*
X91750000Y-82000000D01*
X91750000Y-76000000D02*
X95000000Y-76000000D01*
X95000000Y-76000000D02*
X95000000Y-78000000D01*
X95000000Y-78000000D02*
X91750000Y-78000000D01*
X91750000Y-78000000D02*
X91750000Y-76000000D01*
X91750000Y-78000000D02*
X95000000Y-78000000D01*
X95000000Y-78000000D02*
X95000000Y-80000000D01*
X95000000Y-80000000D02*
X91750000Y-80000000D01*
X91750000Y-80000000D02*
X91750000Y-78000000D01*
X91750000Y-80000000D02*
X95000000Y-80000000D01*
X95000000Y-80000000D02*
X95000000Y-82000000D01*
X95000000Y-82000000D02*
X91750000Y-82000000D01*
X91750000Y-82000000D02*
X91750000Y-80000000D01*
X91750000Y-72000000D02*
X95000000Y-72000000D01*
X95000000Y-72000000D02*
X95000000Y-74000000D01*
X95000000Y-74000000D02*
X91750000Y-74000000D01*
X91750000Y-74000000D02*
X91750000Y-72000000D01*
X88750000Y-54500000D02*
X92000000Y-54500000D01*
X92000000Y-54500000D02*
X92000000Y-56500000D01*
X92000000Y-56500000D02*
X88750000Y-56500000D01*
X88750000Y-56500000D02*
X88750000Y-54500000D01*
X88750000Y-52500000D02*
X92000000Y-52500000D01*
X92000000Y-52500000D02*
X92000000Y-54500000D01*
X92000000Y-54500000D02*
X88750000Y-54500000D01*
X88750000Y-54500000D02*
X88750000Y-52500000D01*
X88750000Y-50500000D02*
X92000000Y-50500000D01*
X92000000Y-50500000D02*
X92000000Y-52500000D01*
X92000000Y-52500000D02*
X88750000Y-52500000D01*
X88750000Y-52500000D02*
X88750000Y-50500000D01*
X88750000Y-48500000D02*
X92000000Y-48500000D01*
X92000000Y-48500000D02*
X92000000Y-50500000D01*
X92000000Y-50500000D02*
X88750000Y-50500000D01*
X88750000Y-50500000D02*
X88750000Y-48500000D01*
X88750000Y-46500000D02*
X92000000Y-46500000D01*
X92000000Y-46500000D02*
X92000000Y-48500000D01*
X92000000Y-48500000D02*
X88750000Y-48500000D01*
X88750000Y-48500000D02*
X88750000Y-46500000D01*
X88750000Y-44500000D02*
X92000000Y-44500000D01*
X92000000Y-44500000D02*
X92000000Y-46500000D01*
X92000000Y-46500000D02*
X88750000Y-46500000D01*
X88750000Y-46500000D02*
X88750000Y-44500000D01*
D11*
X89613095Y-55000000D02*
X89517857Y-54952380D01*
X89375000Y-54952380D01*
X89232142Y-55000000D01*
X89136904Y-55095238D01*
X89089285Y-55190476D01*
X89041666Y-55380952D01*
X89041666Y-55523809D01*
X89089285Y-55714285D01*
X89136904Y-55809523D01*
X89232142Y-55904761D01*
X89375000Y-55952380D01*
X89470238Y-55952380D01*
X89613095Y-55904761D01*
X89660714Y-55857142D01*
X89660714Y-55523809D01*
X89470238Y-55523809D01*
X90089285Y-55952380D02*
X90089285Y-54952380D01*
X90660714Y-55952380D01*
X90660714Y-54952380D01*
X91136904Y-55952380D02*
X91136904Y-54952380D01*
X91375000Y-54952380D01*
X91517857Y-55000000D01*
X91613095Y-55095238D01*
X91660714Y-55190476D01*
X91708333Y-55380952D01*
X91708333Y-55523809D01*
X91660714Y-55714285D01*
X91613095Y-55809523D01*
X91517857Y-55904761D01*
X91375000Y-55952380D01*
X91136904Y-55952380D01*
X89684523Y-53952380D02*
X89208333Y-53952380D01*
X89208333Y-52952380D01*
X90017857Y-52952380D02*
X90017857Y-53761904D01*
X90065476Y-53857142D01*
X90113095Y-53904761D01*
X90208333Y-53952380D01*
X90398809Y-53952380D01*
X90494047Y-53904761D01*
X90541666Y-53857142D01*
X90589285Y-53761904D01*
X90589285Y-52952380D01*
X90970238Y-52952380D02*
X91636904Y-53952380D01*
X91636904Y-52952380D02*
X90970238Y-53952380D01*
X89166666Y-50952380D02*
X89500000Y-51952380D01*
X89833333Y-50952380D01*
X90738095Y-51857142D02*
X90690476Y-51904761D01*
X90547619Y-51952380D01*
X90452380Y-51952380D01*
X90309523Y-51904761D01*
X90214285Y-51809523D01*
X90166666Y-51714285D01*
X90119047Y-51523809D01*
X90119047Y-51380952D01*
X90166666Y-51190476D01*
X90214285Y-51095238D01*
X90309523Y-51000000D01*
X90452380Y-50952380D01*
X90547619Y-50952380D01*
X90690476Y-51000000D01*
X90738095Y-51047619D01*
X91738095Y-51857142D02*
X91690476Y-51904761D01*
X91547619Y-51952380D01*
X91452380Y-51952380D01*
X91309523Y-51904761D01*
X91214285Y-51809523D01*
X91166666Y-51714285D01*
X91119047Y-51523809D01*
X91119047Y-51380952D01*
X91166666Y-51190476D01*
X91214285Y-51095238D01*
X91309523Y-51000000D01*
X91452380Y-50952380D01*
X91547619Y-50952380D01*
X91690476Y-51000000D01*
X91738095Y-51047619D01*
X89488095Y-49000000D02*
X89392857Y-48952380D01*
X89250000Y-48952380D01*
X89107142Y-49000000D01*
X89011904Y-49095238D01*
X88964285Y-49190476D01*
X88916666Y-49380952D01*
X88916666Y-49523809D01*
X88964285Y-49714285D01*
X89011904Y-49809523D01*
X89107142Y-49904761D01*
X89250000Y-49952380D01*
X89345238Y-49952380D01*
X89488095Y-49904761D01*
X89535714Y-49857142D01*
X89535714Y-49523809D01*
X89345238Y-49523809D01*
X89964285Y-49952380D02*
X89964285Y-48952380D01*
X90535714Y-49952380D01*
X90535714Y-48952380D01*
X91011904Y-49952380D02*
X91011904Y-48952380D01*
X91250000Y-48952380D01*
X91392857Y-49000000D01*
X91488095Y-49095238D01*
X91535714Y-49190476D01*
X91583333Y-49380952D01*
X91583333Y-49523809D01*
X91535714Y-49714285D01*
X91488095Y-49809523D01*
X91392857Y-49904761D01*
X91250000Y-49952380D01*
X91011904Y-49952380D01*
X88916666Y-46952380D02*
X89250000Y-47952380D01*
X89583333Y-46952380D01*
X90488095Y-47857142D02*
X90440476Y-47904761D01*
X90297619Y-47952380D01*
X90202380Y-47952380D01*
X90059523Y-47904761D01*
X89964285Y-47809523D01*
X89916666Y-47714285D01*
X89869047Y-47523809D01*
X89869047Y-47380952D01*
X89916666Y-47190476D01*
X89964285Y-47095238D01*
X90059523Y-47000000D01*
X90202380Y-46952380D01*
X90297619Y-46952380D01*
X90440476Y-47000000D01*
X90488095Y-47047619D01*
X91488095Y-47857142D02*
X91440476Y-47904761D01*
X91297619Y-47952380D01*
X91202380Y-47952380D01*
X91059523Y-47904761D01*
X90964285Y-47809523D01*
X90916666Y-47714285D01*
X90869047Y-47523809D01*
X90869047Y-47380952D01*
X90916666Y-47190476D01*
X90964285Y-47095238D01*
X91059523Y-47000000D01*
X91202380Y-46952380D01*
X91297619Y-46952380D01*
X91440476Y-47000000D01*
X91488095Y-47047619D01*
X89809523Y-45202380D02*
X89333333Y-45202380D01*
X89285714Y-45678571D01*
X89333333Y-45630952D01*
X89428571Y-45583333D01*
X89666666Y-45583333D01*
X89761904Y-45630952D01*
X89809523Y-45678571D01*
X89857142Y-45773809D01*
X89857142Y-46011904D01*
X89809523Y-46107142D01*
X89761904Y-46154761D01*
X89666666Y-46202380D01*
X89428571Y-46202380D01*
X89333333Y-46154761D01*
X89285714Y-46107142D01*
X90142857Y-45202380D02*
X90476190Y-46202380D01*
X90809523Y-45202380D01*
X93088095Y-56952380D02*
X93088095Y-57761904D01*
X93135714Y-57857142D01*
X93183333Y-57904761D01*
X93278571Y-57952380D01*
X93469047Y-57952380D01*
X93564285Y-57904761D01*
X93611904Y-57857142D01*
X93659523Y-57761904D01*
X93659523Y-56952380D01*
X94040476Y-56952380D02*
X94659523Y-56952380D01*
X94326190Y-57333333D01*
X94469047Y-57333333D01*
X94564285Y-57380952D01*
X94611904Y-57428571D01*
X94659523Y-57523809D01*
X94659523Y-57761904D01*
X94611904Y-57857142D01*
X94564285Y-57904761D01*
X94469047Y-57952380D01*
X94183333Y-57952380D01*
X94088095Y-57904761D01*
X94040476Y-57857142D01*
X127238095Y-57002380D02*
X127238095Y-57811904D01*
X127285714Y-57907142D01*
X127333333Y-57954761D01*
X127428571Y-58002380D01*
X127619047Y-58002380D01*
X127714285Y-57954761D01*
X127761904Y-57907142D01*
X127809523Y-57811904D01*
X127809523Y-57002380D01*
X128238095Y-57097619D02*
X128285714Y-57050000D01*
X128380952Y-57002380D01*
X128619047Y-57002380D01*
X128714285Y-57050000D01*
X128761904Y-57097619D01*
X128809523Y-57192857D01*
X128809523Y-57288095D01*
X128761904Y-57430952D01*
X128190476Y-58002380D01*
X128809523Y-58002380D01*
X132904761Y-76047619D02*
X132809523Y-76000000D01*
X132714285Y-75904761D01*
X132571428Y-75761904D01*
X132476190Y-75714285D01*
X132380952Y-75714285D01*
X132428571Y-75952380D02*
X132333333Y-75904761D01*
X132238095Y-75809523D01*
X132190476Y-75619047D01*
X132190476Y-75285714D01*
X132238095Y-75095238D01*
X132333333Y-75000000D01*
X132428571Y-74952380D01*
X132619047Y-74952380D01*
X132714285Y-75000000D01*
X132809523Y-75095238D01*
X132857142Y-75285714D01*
X132857142Y-75619047D01*
X132809523Y-75809523D01*
X132714285Y-75904761D01*
X132619047Y-75952380D01*
X132428571Y-75952380D01*
X133714285Y-75285714D02*
X133714285Y-75952380D01*
X133476190Y-74904761D02*
X133238095Y-75619047D01*
X133857142Y-75619047D01*
X124904761Y-78047619D02*
X124809523Y-78000000D01*
X124714285Y-77904761D01*
X124571428Y-77761904D01*
X124476190Y-77714285D01*
X124380952Y-77714285D01*
X124428571Y-77952380D02*
X124333333Y-77904761D01*
X124238095Y-77809523D01*
X124190476Y-77619047D01*
X124190476Y-77285714D01*
X124238095Y-77095238D01*
X124333333Y-77000000D01*
X124428571Y-76952380D01*
X124619047Y-76952380D01*
X124714285Y-77000000D01*
X124809523Y-77095238D01*
X124857142Y-77285714D01*
X124857142Y-77619047D01*
X124809523Y-77809523D01*
X124714285Y-77904761D01*
X124619047Y-77952380D01*
X124428571Y-77952380D01*
X125190476Y-76952380D02*
X125809523Y-76952380D01*
X125476190Y-77333333D01*
X125619047Y-77333333D01*
X125714285Y-77380952D01*
X125761904Y-77428571D01*
X125809523Y-77523809D01*
X125809523Y-77761904D01*
X125761904Y-77857142D01*
X125714285Y-77904761D01*
X125619047Y-77952380D01*
X125333333Y-77952380D01*
X125238095Y-77904761D01*
X125190476Y-77857142D01*
X132904761Y-68547619D02*
X132809523Y-68500000D01*
X132714285Y-68404761D01*
X132571428Y-68261904D01*
X132476190Y-68214285D01*
X132380952Y-68214285D01*
X132428571Y-68452380D02*
X132333333Y-68404761D01*
X132238095Y-68309523D01*
X132190476Y-68119047D01*
X132190476Y-67785714D01*
X132238095Y-67595238D01*
X132333333Y-67500000D01*
X132428571Y-67452380D01*
X132619047Y-67452380D01*
X132714285Y-67500000D01*
X132809523Y-67595238D01*
X132857142Y-67785714D01*
X132857142Y-68119047D01*
X132809523Y-68309523D01*
X132714285Y-68404761D01*
X132619047Y-68452380D01*
X132428571Y-68452380D01*
X133238095Y-67547619D02*
X133285714Y-67500000D01*
X133380952Y-67452380D01*
X133619047Y-67452380D01*
X133714285Y-67500000D01*
X133761904Y-67547619D01*
X133809523Y-67642857D01*
X133809523Y-67738095D01*
X133761904Y-67880952D01*
X133190476Y-68452380D01*
X133809523Y-68452380D01*
X124904761Y-69047619D02*
X124809523Y-69000000D01*
X124714285Y-68904761D01*
X124571428Y-68761904D01*
X124476190Y-68714285D01*
X124380952Y-68714285D01*
X124428571Y-68952380D02*
X124333333Y-68904761D01*
X124238095Y-68809523D01*
X124190476Y-68619047D01*
X124190476Y-68285714D01*
X124238095Y-68095238D01*
X124333333Y-68000000D01*
X124428571Y-67952380D01*
X124619047Y-67952380D01*
X124714285Y-68000000D01*
X124809523Y-68095238D01*
X124857142Y-68285714D01*
X124857142Y-68619047D01*
X124809523Y-68809523D01*
X124714285Y-68904761D01*
X124619047Y-68952380D01*
X124428571Y-68952380D01*
X125809523Y-68952380D02*
X125238095Y-68952380D01*
X125523809Y-68952380D02*
X125523809Y-67952380D01*
X125428571Y-68095238D01*
X125333333Y-68190476D01*
X125238095Y-68238095D01*
X128333333Y-51867619D02*
X128333333Y-51153333D01*
X128380952Y-51010476D01*
X128476190Y-50915238D01*
X128619047Y-50867619D01*
X128714285Y-50867619D01*
X127333333Y-50867619D02*
X127904761Y-50867619D01*
X127619047Y-50867619D02*
X127619047Y-51867619D01*
X127714285Y-51724761D01*
X127809523Y-51629523D01*
X127904761Y-51581904D01*
X91058333Y-66927142D02*
X91010714Y-66974761D01*
X90867857Y-67022380D01*
X90772619Y-67022380D01*
X90629761Y-66974761D01*
X90534523Y-66879523D01*
X90486904Y-66784285D01*
X90439285Y-66593809D01*
X90439285Y-66450952D01*
X90486904Y-66260476D01*
X90534523Y-66165238D01*
X90629761Y-66070000D01*
X90772619Y-66022380D01*
X90867857Y-66022380D01*
X91010714Y-66070000D01*
X91058333Y-66117619D01*
X91915476Y-66355714D02*
X91915476Y-67022380D01*
X91677380Y-65974761D02*
X91439285Y-66689047D01*
X92058333Y-66689047D01*
X131198913Y-67107142D02*
X131151294Y-67154761D01*
X131008437Y-67202380D01*
X130913199Y-67202380D01*
X130770341Y-67154761D01*
X130675103Y-67059523D01*
X130627484Y-66964285D01*
X130579865Y-66773809D01*
X130579865Y-66630952D01*
X130627484Y-66440476D01*
X130675103Y-66345238D01*
X130770341Y-66250000D01*
X130913199Y-66202380D01*
X131008437Y-66202380D01*
X131151294Y-66250000D01*
X131198913Y-66297619D01*
X131579865Y-66297619D02*
X131627484Y-66250000D01*
X131722722Y-66202380D01*
X131960818Y-66202380D01*
X132056056Y-66250000D01*
X132103675Y-66297619D01*
X132151294Y-66392857D01*
X132151294Y-66488095D01*
X132103675Y-66630952D01*
X131532246Y-67202380D01*
X132151294Y-67202380D01*
X134497380Y-66333333D02*
X135211666Y-66333333D01*
X135354523Y-66380952D01*
X135449761Y-66476190D01*
X135497380Y-66619047D01*
X135497380Y-66714285D01*
X134497380Y-65952380D02*
X134497380Y-65333333D01*
X134878333Y-65666666D01*
X134878333Y-65523809D01*
X134925952Y-65428571D01*
X134973571Y-65380952D01*
X135068809Y-65333333D01*
X135306904Y-65333333D01*
X135402142Y-65380952D01*
X135449761Y-65428571D01*
X135497380Y-65523809D01*
X135497380Y-65809523D01*
X135449761Y-65904761D01*
X135402142Y-65952380D01*
X87712380Y-64833333D02*
X88426666Y-64833333D01*
X88569523Y-64880952D01*
X88664761Y-64976190D01*
X88712380Y-65119047D01*
X88712380Y-65214285D01*
X87807619Y-64404761D02*
X87760000Y-64357142D01*
X87712380Y-64261904D01*
X87712380Y-64023809D01*
X87760000Y-63928571D01*
X87807619Y-63880952D01*
X87902857Y-63833333D01*
X87998095Y-63833333D01*
X88140952Y-63880952D01*
X88712380Y-64452380D01*
X88712380Y-63833333D01*
X98904761Y-84404761D02*
X99047619Y-84452380D01*
X99285714Y-84452380D01*
X99380952Y-84404761D01*
X99428571Y-84357142D01*
X99476190Y-84261904D01*
X99476190Y-84166666D01*
X99428571Y-84071428D01*
X99380952Y-84023809D01*
X99285714Y-83976190D01*
X99095238Y-83928571D01*
X99000000Y-83880952D01*
X98952380Y-83833333D01*
X98904761Y-83738095D01*
X98904761Y-83642857D01*
X98952380Y-83547619D01*
X99000000Y-83500000D01*
X99095238Y-83452380D01*
X99333333Y-83452380D01*
X99476190Y-83500000D01*
X99809523Y-83452380D02*
X100047619Y-84452380D01*
X100238095Y-83738095D01*
X100428571Y-84452380D01*
X100666666Y-83452380D01*
X101047619Y-84452380D02*
X101047619Y-83452380D01*
X101714285Y-83452380D02*
X101904761Y-83452380D01*
X102000000Y-83500000D01*
X102095238Y-83595238D01*
X102142857Y-83785714D01*
X102142857Y-84119047D01*
X102095238Y-84309523D01*
X102000000Y-84404761D01*
X101904761Y-84452380D01*
X101714285Y-84452380D01*
X101619047Y-84404761D01*
X101523809Y-84309523D01*
X101476190Y-84119047D01*
X101476190Y-83785714D01*
X101523809Y-83595238D01*
X101619047Y-83500000D01*
X101714285Y-83452380D01*
X103095238Y-84452380D02*
X102523809Y-84452380D01*
X102809523Y-84452380D02*
X102809523Y-83452380D01*
X102714285Y-83595238D01*
X102619047Y-83690476D01*
X102523809Y-83738095D01*
X94833333Y-69787142D02*
X94785714Y-69834761D01*
X94642857Y-69882380D01*
X94547619Y-69882380D01*
X94404761Y-69834761D01*
X94309523Y-69739523D01*
X94261904Y-69644285D01*
X94214285Y-69453809D01*
X94214285Y-69310952D01*
X94261904Y-69120476D01*
X94309523Y-69025238D01*
X94404761Y-68930000D01*
X94547619Y-68882380D01*
X94642857Y-68882380D01*
X94785714Y-68930000D01*
X94833333Y-68977619D01*
X95166666Y-68882380D02*
X95785714Y-68882380D01*
X95452380Y-69263333D01*
X95595238Y-69263333D01*
X95690476Y-69310952D01*
X95738095Y-69358571D01*
X95785714Y-69453809D01*
X95785714Y-69691904D01*
X95738095Y-69787142D01*
X95690476Y-69834761D01*
X95595238Y-69882380D01*
X95309523Y-69882380D01*
X95214285Y-69834761D01*
X95166666Y-69787142D01*
X108702380Y-83416666D02*
X108226190Y-83750000D01*
X108702380Y-83988095D02*
X107702380Y-83988095D01*
X107702380Y-83607142D01*
X107750000Y-83511904D01*
X107797619Y-83464285D01*
X107892857Y-83416666D01*
X108035714Y-83416666D01*
X108130952Y-83464285D01*
X108178571Y-83511904D01*
X108226190Y-83607142D01*
X108226190Y-83988095D01*
X108702380Y-82464285D02*
X108702380Y-83035714D01*
X108702380Y-82750000D02*
X107702380Y-82750000D01*
X107845238Y-82845238D01*
X107940476Y-82940476D01*
X107988095Y-83035714D01*
X106022380Y-80166666D02*
X105546190Y-80500000D01*
X106022380Y-80738095D02*
X105022380Y-80738095D01*
X105022380Y-80357142D01*
X105070000Y-80261904D01*
X105117619Y-80214285D01*
X105212857Y-80166666D01*
X105355714Y-80166666D01*
X105450952Y-80214285D01*
X105498571Y-80261904D01*
X105546190Y-80357142D01*
X105546190Y-80738095D01*
X105117619Y-79785714D02*
X105070000Y-79738095D01*
X105022380Y-79642857D01*
X105022380Y-79404761D01*
X105070000Y-79309523D01*
X105117619Y-79261904D01*
X105212857Y-79214285D01*
X105308095Y-79214285D01*
X105450952Y-79261904D01*
X106022380Y-79833333D01*
X106022380Y-79214285D01*
X135607142Y-59416666D02*
X135654761Y-59464285D01*
X135702380Y-59607142D01*
X135702380Y-59702380D01*
X135654761Y-59845238D01*
X135559523Y-59940476D01*
X135464285Y-59988095D01*
X135273809Y-60035714D01*
X135130952Y-60035714D01*
X134940476Y-59988095D01*
X134845238Y-59940476D01*
X134750000Y-59845238D01*
X134702380Y-59702380D01*
X134702380Y-59607142D01*
X134750000Y-59464285D01*
X134797619Y-59416666D01*
X135702380Y-58464285D02*
X135702380Y-59035714D01*
X135702380Y-58750000D02*
X134702380Y-58750000D01*
X134845238Y-58845238D01*
X134940476Y-58940476D01*
X134988095Y-59035714D01*
X112071428Y-84452380D02*
X111738095Y-83976190D01*
X111500000Y-84452380D02*
X111500000Y-83452380D01*
X111880952Y-83452380D01*
X111976190Y-83500000D01*
X112023809Y-83547619D01*
X112071428Y-83642857D01*
X112071428Y-83785714D01*
X112023809Y-83880952D01*
X111976190Y-83928571D01*
X111880952Y-83976190D01*
X111500000Y-83976190D01*
X112500000Y-83928571D02*
X112833333Y-83928571D01*
X112976190Y-84452380D02*
X112500000Y-84452380D01*
X112500000Y-83452380D01*
X112976190Y-83452380D01*
X113357142Y-84404761D02*
X113500000Y-84452380D01*
X113738095Y-84452380D01*
X113833333Y-84404761D01*
X113880952Y-84357142D01*
X113928571Y-84261904D01*
X113928571Y-84166666D01*
X113880952Y-84071428D01*
X113833333Y-84023809D01*
X113738095Y-83976190D01*
X113547619Y-83928571D01*
X113452380Y-83880952D01*
X113404761Y-83833333D01*
X113357142Y-83738095D01*
X113357142Y-83642857D01*
X113404761Y-83547619D01*
X113452380Y-83500000D01*
X113547619Y-83452380D01*
X113785714Y-83452380D01*
X113928571Y-83500000D01*
X114357142Y-83928571D02*
X114690476Y-83928571D01*
X114833333Y-84452380D02*
X114357142Y-84452380D01*
X114357142Y-83452380D01*
X114833333Y-83452380D01*
X115119047Y-83452380D02*
X115690476Y-83452380D01*
X115404761Y-84452380D02*
X115404761Y-83452380D01*
X116547619Y-84452380D02*
X115976190Y-84452380D01*
X116261904Y-84452380D02*
X116261904Y-83452380D01*
X116166666Y-83595238D01*
X116071428Y-83690476D01*
X115976190Y-83738095D01*
X97727380Y-74671904D02*
X98536904Y-74671904D01*
X98632142Y-74624285D01*
X98679761Y-74576666D01*
X98727380Y-74481428D01*
X98727380Y-74290952D01*
X98679761Y-74195714D01*
X98632142Y-74148095D01*
X98536904Y-74100476D01*
X97727380Y-74100476D01*
X98727380Y-73100476D02*
X98727380Y-73671904D01*
X98727380Y-73386190D02*
X97727380Y-73386190D01*
X97870238Y-73481428D01*
X97965476Y-73576666D01*
X98013095Y-73671904D01*
D10*
X89750000Y-58590000D02*
X95760000Y-58590000D01*
X92000000Y-65410000D02*
X95760000Y-65410000D01*
X95760000Y-65410000D02*
X95760000Y-64150000D01*
X95760000Y-58590000D02*
X95760000Y-59850000D01*
X128000000Y-63760000D02*
X125800000Y-63760000D01*
X128000000Y-58240000D02*
X130200000Y-58240000D01*
X128000000Y-63760000D02*
X130200000Y-63760000D01*
X128000000Y-58240000D02*
X124350000Y-58240000D01*
X131200000Y-79800000D02*
X134800000Y-79800000D01*
X131200000Y-76200000D02*
X131200000Y-79800000D01*
X134800000Y-79800000D02*
X134800000Y-76200000D01*
X134800000Y-76200000D02*
X131200000Y-76200000D01*
X121200000Y-83800000D02*
X128800000Y-83800000D01*
X128800000Y-78200000D02*
X121700000Y-78200000D01*
X121200000Y-78700000D02*
X121200000Y-83800000D01*
X128800000Y-83800000D02*
X128800000Y-78200000D01*
D12*
X121463500Y-78400000D02*
G75*
G03*
X121463500Y-78400000I-63500J0D01*
G01*
D10*
X131200000Y-72800000D02*
X134800000Y-72800000D01*
X131200000Y-69200000D02*
X131200000Y-72800000D01*
X134800000Y-72800000D02*
X134800000Y-69200000D01*
X134800000Y-69200000D02*
X131200000Y-69200000D01*
X121200000Y-74800000D02*
X128800000Y-74800000D01*
X128800000Y-69200000D02*
X121700000Y-69200000D01*
X121200000Y-69700000D02*
X121200000Y-74800000D01*
X128800000Y-74800000D02*
X128800000Y-69200000D01*
D12*
X121463500Y-69400000D02*
G75*
G03*
X121463500Y-69400000I-63500J0D01*
G01*
D11*
X125160000Y-43650000D02*
X125160000Y-43800000D01*
X133460000Y-43800000D02*
X133460000Y-43650000D01*
X131110000Y-49350000D02*
X132110000Y-49350000D01*
X133460000Y-47600000D02*
X133460000Y-46200000D01*
X125460000Y-43650000D02*
X125160000Y-43650000D01*
X133160000Y-43650000D02*
X133160000Y-43200000D01*
X125460000Y-43200000D02*
X125460000Y-43650000D01*
X133460000Y-43650000D02*
X133160000Y-43650000D01*
X131110000Y-49775000D02*
X131110000Y-49350000D01*
X125160000Y-46200000D02*
X125160000Y-47600000D01*
X130385000Y-49775000D02*
X131110000Y-49775000D01*
X127510000Y-49350000D02*
X126510000Y-49350000D01*
D10*
X91084420Y-68510000D02*
X91365580Y-68510000D01*
X91084420Y-67490000D02*
X91365580Y-67490000D01*
X131084420Y-65510000D02*
X131365580Y-65510000D01*
X131084420Y-64490000D02*
X131365580Y-64490000D01*
X142985000Y-53500000D02*
G75*
G03*
X142985000Y-53500000I-1680000J0D01*
G01*
X142985000Y-58500000D02*
G75*
G03*
X142985000Y-58500000I-1680000J0D01*
G01*
X142985000Y-63500000D02*
G75*
G03*
X142985000Y-63500000I-1680000J0D01*
G01*
X142985000Y-68500000D02*
G75*
G03*
X142985000Y-68500000I-1680000J0D01*
G01*
X142985000Y-73500000D02*
G75*
G03*
X142985000Y-73500000I-1680000J0D01*
G01*
X141989000Y-76964999D02*
G75*
G03*
X140621958Y-76964573I-684000J-1535001D01*
G01*
X142840000Y-79184000D02*
G75*
G03*
X142985253Y-78471195I-1535001J683999D01*
G01*
X142985000Y-78500000D02*
G75*
G03*
X142839756Y-77816682I-1680000J0D01*
G01*
X140621000Y-80035000D02*
G75*
G03*
X141988042Y-80035427I684001J1534993D01*
G01*
X139770000Y-77816000D02*
G75*
G03*
X139769573Y-79183042I1534993J-684001D01*
G01*
X140236000Y-67225000D02*
X140282000Y-67272000D01*
X140236000Y-57225000D02*
X140282000Y-57272000D01*
X140030000Y-62430000D02*
X140066000Y-62465000D01*
X143905000Y-81060000D02*
X143905000Y-50940000D01*
X142544000Y-74534000D02*
X142579000Y-74569000D01*
X142328000Y-64727000D02*
X142374000Y-64774000D01*
X136044000Y-81060000D02*
X136044000Y-50940000D01*
X145465000Y-81300000D02*
X146205000Y-81300000D01*
X136044000Y-50940000D02*
X145965000Y-50940000D01*
X142328000Y-74727000D02*
X142374000Y-74774000D01*
X142328000Y-69727000D02*
X142374000Y-69774000D01*
X140030000Y-72430000D02*
X140066000Y-72465000D01*
X139004000Y-81060000D02*
X139004000Y-50940000D01*
X142544000Y-54534000D02*
X142579000Y-54569000D01*
X140030000Y-67430000D02*
X140066000Y-67465000D01*
X140236000Y-62225000D02*
X140282000Y-62272000D01*
X140030000Y-52430000D02*
X140066000Y-52465000D01*
X140030000Y-57430000D02*
X140066000Y-57465000D01*
X142544000Y-69534000D02*
X142579000Y-69569000D01*
X146205000Y-81300000D02*
X146205000Y-80800000D01*
X142544000Y-59534000D02*
X142579000Y-59569000D01*
X140236000Y-52225000D02*
X140282000Y-52272000D01*
X145965000Y-81060000D02*
X145965000Y-50940000D01*
X136044000Y-81060000D02*
X145965000Y-81060000D01*
X142544000Y-64534000D02*
X142579000Y-64569000D01*
X142328000Y-59727000D02*
X142374000Y-59774000D01*
X145405000Y-81060000D02*
X145405000Y-50940000D01*
X142328000Y-54727000D02*
X142374000Y-54774000D01*
X140236000Y-72225000D02*
X140282000Y-72272000D01*
X83069000Y-58275000D02*
X83023000Y-58228000D01*
X80977000Y-75773000D02*
X80931000Y-75726000D01*
X77900000Y-49440000D02*
X77900000Y-79560000D01*
X80977000Y-70773000D02*
X80931000Y-70726000D01*
X80761000Y-65966000D02*
X80726000Y-65931000D01*
X87261000Y-49440000D02*
X77340000Y-49440000D01*
X77340000Y-49440000D02*
X77340000Y-79560000D01*
X83069000Y-78275000D02*
X83023000Y-78228000D01*
X80761000Y-70966000D02*
X80726000Y-70931000D01*
X77100000Y-49200000D02*
X77100000Y-49700000D01*
X80761000Y-60966000D02*
X80726000Y-60931000D01*
X83275000Y-73070000D02*
X83239000Y-73035000D01*
X83275000Y-78070000D02*
X83239000Y-78035000D01*
X83069000Y-68275000D02*
X83023000Y-68228000D01*
X83275000Y-63070000D02*
X83239000Y-63035000D01*
X80761000Y-75966000D02*
X80726000Y-75931000D01*
X84301000Y-49440000D02*
X84301000Y-79560000D01*
X83275000Y-58070000D02*
X83239000Y-58035000D01*
X80977000Y-60773000D02*
X80931000Y-60726000D01*
X80977000Y-55773000D02*
X80931000Y-55726000D01*
X87261000Y-79560000D02*
X77340000Y-79560000D01*
X77840000Y-49200000D02*
X77100000Y-49200000D01*
X87261000Y-49440000D02*
X87261000Y-79560000D01*
X80977000Y-65773000D02*
X80931000Y-65726000D01*
X80761000Y-55966000D02*
X80726000Y-55931000D01*
X79400000Y-49440000D02*
X79400000Y-79560000D01*
X83275000Y-68070000D02*
X83239000Y-68035000D01*
X83069000Y-73275000D02*
X83023000Y-73228000D01*
X83069000Y-63275000D02*
X83023000Y-63228000D01*
X83535000Y-52684000D02*
G75*
G03*
X83535427Y-51316958I-1534993J684001D01*
G01*
X82684000Y-50465000D02*
G75*
G03*
X81316958Y-50464573I-684001J-1534993D01*
G01*
X80320000Y-52000000D02*
G75*
G03*
X80465244Y-52683318I1680000J0D01*
G01*
X80465000Y-51316000D02*
G75*
G03*
X80319747Y-52028805I1535001J-683999D01*
G01*
X81316000Y-53535001D02*
G75*
G03*
X82683042Y-53535427I684000J1535001D01*
G01*
X83680000Y-57000000D02*
G75*
G03*
X83680000Y-57000000I-1680000J0D01*
G01*
X83680000Y-62000000D02*
G75*
G03*
X83680000Y-62000000I-1680000J0D01*
G01*
X83680000Y-67000000D02*
G75*
G03*
X83680000Y-67000000I-1680000J0D01*
G01*
X83680000Y-72000000D02*
G75*
G03*
X83680000Y-72000000I-1680000J0D01*
G01*
X83680000Y-77000000D02*
G75*
G03*
X83680000Y-77000000I-1680000J0D01*
G01*
X97900000Y-76750000D02*
X104100000Y-76750000D01*
X104100000Y-76750000D02*
X104100000Y-83250000D01*
X104100000Y-83250000D02*
X97900000Y-83250000D01*
X97900000Y-83250000D02*
X97900000Y-76750000D01*
X95140580Y-67490000D02*
X94859420Y-67490000D01*
X95140580Y-68510000D02*
X94859420Y-68510000D01*
X109510000Y-80140580D02*
X109510000Y-79859420D01*
X108490000Y-80140580D02*
X108490000Y-79859420D01*
X106490000Y-80140580D02*
X106490000Y-79859420D01*
X107510000Y-80140580D02*
X107510000Y-79859420D01*
X133490000Y-60084420D02*
X133490000Y-60365580D01*
X134510000Y-60084420D02*
X134510000Y-60365580D01*
X110900000Y-76750000D02*
X117100000Y-76750000D01*
X117100000Y-76750000D02*
X117100000Y-83250000D01*
X117100000Y-83250000D02*
X110900000Y-83250000D01*
X110900000Y-83250000D02*
X110900000Y-76750000D01*
X99765000Y-74580000D02*
X99765000Y-75360000D01*
X118005000Y-74580000D02*
X118005000Y-75360000D01*
X99765000Y-49620000D02*
X118005000Y-49620000D01*
X99765000Y-56035000D02*
X99385000Y-56035000D01*
X118005000Y-75360000D02*
X117005000Y-75360000D01*
X99765000Y-49620000D02*
X99765000Y-56035000D01*
X118005000Y-49620000D02*
X118005000Y-56035000D01*
X99765000Y-75360000D02*
X100765000Y-75360000D01*
M02*
