G04 #@! TF.GenerationSoftware,KiCad,Pcbnew,(6.0.9)*
G04 #@! TF.CreationDate,2022-12-21T18:39:15+01:00*
G04 #@! TF.ProjectId,PP,50502e6b-6963-4616-945f-706362585858,rev?*
G04 #@! TF.SameCoordinates,Original*
G04 #@! TF.FileFunction,Paste,Top*
G04 #@! TF.FilePolarity,Positive*
%FSLAX46Y46*%
G04 Gerber Fmt 4.6, Leading zero omitted, Abs format (unit mm)*
G04 Created by KiCad (PCBNEW (6.0.9)) date 2022-12-21 18:39:15*
%MOMM*%
%LPD*%
G01*
G04 APERTURE LIST*
G04 Aperture macros list*
%AMRoundRect*
0 Rectangle with rounded corners*
0 $1 Rounding radius*
0 $2 $3 $4 $5 $6 $7 $8 $9 X,Y pos of 4 corners*
0 Add a 4 corners polygon primitive as box body*
4,1,4,$2,$3,$4,$5,$6,$7,$8,$9,$2,$3,0*
0 Add four circle primitives for the rounded corners*
1,1,$1+$1,$2,$3*
1,1,$1+$1,$4,$5*
1,1,$1+$1,$6,$7*
1,1,$1+$1,$8,$9*
0 Add four rect primitives between the rounded corners*
20,1,$1+$1,$2,$3,$4,$5,0*
20,1,$1+$1,$4,$5,$6,$7,0*
20,1,$1+$1,$6,$7,$8,$9,0*
20,1,$1+$1,$8,$9,$2,$3,0*%
G04 Aperture macros list end*
%ADD10R,2.000000X1.500000*%
%ADD11R,2.000000X3.800000*%
%ADD12RoundRect,0.232500X-0.757500X-0.232500X0.757500X-0.232500X0.757500X0.232500X-0.757500X0.232500X0*%
%ADD13RoundRect,0.100000X-0.687500X-0.100000X0.687500X-0.100000X0.687500X0.100000X-0.687500X0.100000X0*%
%ADD14RoundRect,0.200000X-0.250000X-0.200000X0.250000X-0.200000X0.250000X0.200000X-0.250000X0.200000X0*%
%ADD15RoundRect,0.150000X-0.725000X-0.150000X0.725000X-0.150000X0.725000X0.150000X-0.725000X0.150000X0*%
%ADD16R,0.450000X1.300000*%
%ADD17RoundRect,0.225000X-0.225000X-0.250000X0.225000X-0.250000X0.225000X0.250000X-0.225000X0.250000X0*%
%ADD18RoundRect,0.175000X-0.425000X-0.175000X0.425000X-0.175000X0.425000X0.175000X-0.425000X0.175000X0*%
%ADD19RoundRect,0.225000X0.225000X0.250000X-0.225000X0.250000X-0.225000X-0.250000X0.225000X-0.250000X0*%
%ADD20RoundRect,0.225000X0.250000X-0.225000X0.250000X0.225000X-0.250000X0.225000X-0.250000X-0.225000X0*%
%ADD21RoundRect,0.225000X-0.250000X0.225000X-0.250000X-0.225000X0.250000X-0.225000X0.250000X0.225000X0*%
%ADD22R,1.500000X0.900000*%
%ADD23R,0.900000X1.500000*%
%ADD24R,1.050000X1.050000*%
G04 APERTURE END LIST*
D10*
X90700000Y-59700000D03*
D11*
X97000000Y-62000000D03*
D10*
X90700000Y-62000000D03*
X90700000Y-64300000D03*
D12*
X128000000Y-61580000D03*
X128000000Y-60420000D03*
D13*
X125137500Y-58725000D03*
X125137500Y-59375000D03*
X125137500Y-60025000D03*
X125137500Y-60675000D03*
X125137500Y-61325000D03*
X125137500Y-61975000D03*
X125137500Y-62625000D03*
X125137500Y-63275000D03*
X130862500Y-63275000D03*
X130862500Y-62625000D03*
X130862500Y-61975000D03*
X130862500Y-61325000D03*
X130862500Y-60675000D03*
X130862500Y-60025000D03*
X130862500Y-59375000D03*
X130862500Y-58725000D03*
D14*
X132000000Y-77050000D03*
X132000000Y-78950000D03*
X134000000Y-78000000D03*
D15*
X122425000Y-79095000D03*
X122425000Y-80365000D03*
X122425000Y-81635000D03*
X122425000Y-82905000D03*
X127575000Y-82905000D03*
X127575000Y-81635000D03*
X127575000Y-80365000D03*
X127575000Y-79095000D03*
D14*
X132000000Y-70050000D03*
X132000000Y-71950000D03*
X134000000Y-71000000D03*
D15*
X122425000Y-70095000D03*
X122425000Y-71365000D03*
X122425000Y-72635000D03*
X122425000Y-73905000D03*
X127575000Y-73905000D03*
X127575000Y-72635000D03*
X127575000Y-71365000D03*
X127575000Y-70095000D03*
D16*
X130610000Y-48850000D03*
X129960000Y-48850000D03*
X129310000Y-48850000D03*
X128660000Y-48850000D03*
X128010000Y-48850000D03*
D17*
X90450000Y-68000000D03*
X92000000Y-68000000D03*
X130450000Y-65000000D03*
X132000000Y-65000000D03*
D18*
X96800000Y-77750000D03*
X105200000Y-77750000D03*
X96800000Y-82250000D03*
X105200000Y-82250000D03*
D19*
X95775000Y-68000000D03*
X94225000Y-68000000D03*
D20*
X109000000Y-80775000D03*
X109000000Y-79225000D03*
X107000000Y-80775000D03*
X107000000Y-79225000D03*
D21*
X134000000Y-59450000D03*
X134000000Y-61000000D03*
D18*
X109800000Y-77750000D03*
X118200000Y-77750000D03*
X109800000Y-82250000D03*
X118200000Y-82250000D03*
D22*
X100135000Y-57230000D03*
X100135000Y-58500000D03*
X100135000Y-59770000D03*
X100135000Y-61040000D03*
X100135000Y-62310000D03*
X100135000Y-63580000D03*
X100135000Y-64850000D03*
X100135000Y-66120000D03*
X100135000Y-67390000D03*
X100135000Y-68660000D03*
X100135000Y-69930000D03*
X100135000Y-71200000D03*
X100135000Y-72470000D03*
X100135000Y-73740000D03*
D23*
X103175000Y-74990000D03*
X104445000Y-74990000D03*
X105715000Y-74990000D03*
X106985000Y-74990000D03*
X108255000Y-74990000D03*
X109525000Y-74990000D03*
X110795000Y-74990000D03*
X112065000Y-74990000D03*
X113335000Y-74990000D03*
X114605000Y-74990000D03*
D22*
X117635000Y-73740000D03*
X117635000Y-72470000D03*
X117635000Y-71200000D03*
X117635000Y-69930000D03*
X117635000Y-68660000D03*
X117635000Y-67390000D03*
X117635000Y-66120000D03*
X117635000Y-64850000D03*
X117635000Y-63580000D03*
X117635000Y-62310000D03*
X117635000Y-61040000D03*
X117635000Y-59770000D03*
X117635000Y-58500000D03*
X117635000Y-57230000D03*
D24*
X106680000Y-63045000D03*
X108205000Y-66095000D03*
X108205000Y-63045000D03*
X109730000Y-64570000D03*
X106680000Y-64570000D03*
X109730000Y-66095000D03*
X106680000Y-66095000D03*
X108205000Y-64570000D03*
X109730000Y-63045000D03*
M02*
