G04 #@! TF.GenerationSoftware,KiCad,Pcbnew,(5.1.0)-1*
G04 #@! TF.CreationDate,2019-07-09T21:44:28+02:00*
G04 #@! TF.ProjectId,PP,50502e6b-6963-4616-945f-706362585858,rev?*
G04 #@! TF.SameCoordinates,Original*
G04 #@! TF.FileFunction,Copper,L1,Top*
G04 #@! TF.FilePolarity,Positive*
%FSLAX46Y46*%
G04 Gerber Fmt 4.6, Leading zero omitted, Abs format (unit mm)*
G04 Created by KiCad (PCBNEW (5.1.0)-1) date 2019-07-09 21:44:28*
%MOMM*%
%LPD*%
G04 APERTURE LIST*
%ADD10C,0.100000*%
%ADD11C,0.875000*%
%ADD12C,2.400000*%
%ADD13C,0.950000*%
%ADD14O,1.700000X1.700000*%
%ADD15R,1.700000X1.700000*%
%ADD16R,0.900000X0.800000*%
%ADD17C,1.000000*%
%ADD18C,2.500000*%
%ADD19C,2.000000*%
%ADD20C,0.800000*%
%ADD21C,0.250000*%
G04 APERTURE END LIST*
D10*
G36*
X93432691Y-32546053D02*
G01*
X93453926Y-32549203D01*
X93474750Y-32554419D01*
X93494962Y-32561651D01*
X93514368Y-32570830D01*
X93532781Y-32581866D01*
X93550024Y-32594654D01*
X93565930Y-32609070D01*
X93580346Y-32624976D01*
X93593134Y-32642219D01*
X93604170Y-32660632D01*
X93613349Y-32680038D01*
X93620581Y-32700250D01*
X93625797Y-32721074D01*
X93628947Y-32742309D01*
X93630000Y-32763750D01*
X93630000Y-33276250D01*
X93628947Y-33297691D01*
X93625797Y-33318926D01*
X93620581Y-33339750D01*
X93613349Y-33359962D01*
X93604170Y-33379368D01*
X93593134Y-33397781D01*
X93580346Y-33415024D01*
X93565930Y-33430930D01*
X93550024Y-33445346D01*
X93532781Y-33458134D01*
X93514368Y-33469170D01*
X93494962Y-33478349D01*
X93474750Y-33485581D01*
X93453926Y-33490797D01*
X93432691Y-33493947D01*
X93411250Y-33495000D01*
X92973750Y-33495000D01*
X92952309Y-33493947D01*
X92931074Y-33490797D01*
X92910250Y-33485581D01*
X92890038Y-33478349D01*
X92870632Y-33469170D01*
X92852219Y-33458134D01*
X92834976Y-33445346D01*
X92819070Y-33430930D01*
X92804654Y-33415024D01*
X92791866Y-33397781D01*
X92780830Y-33379368D01*
X92771651Y-33359962D01*
X92764419Y-33339750D01*
X92759203Y-33318926D01*
X92756053Y-33297691D01*
X92755000Y-33276250D01*
X92755000Y-32763750D01*
X92756053Y-32742309D01*
X92759203Y-32721074D01*
X92764419Y-32700250D01*
X92771651Y-32680038D01*
X92780830Y-32660632D01*
X92791866Y-32642219D01*
X92804654Y-32624976D01*
X92819070Y-32609070D01*
X92834976Y-32594654D01*
X92852219Y-32581866D01*
X92870632Y-32570830D01*
X92890038Y-32561651D01*
X92910250Y-32554419D01*
X92931074Y-32549203D01*
X92952309Y-32546053D01*
X92973750Y-32545000D01*
X93411250Y-32545000D01*
X93432691Y-32546053D01*
X93432691Y-32546053D01*
G37*
D11*
X93192500Y-33020000D03*
D10*
G36*
X95007691Y-32546053D02*
G01*
X95028926Y-32549203D01*
X95049750Y-32554419D01*
X95069962Y-32561651D01*
X95089368Y-32570830D01*
X95107781Y-32581866D01*
X95125024Y-32594654D01*
X95140930Y-32609070D01*
X95155346Y-32624976D01*
X95168134Y-32642219D01*
X95179170Y-32660632D01*
X95188349Y-32680038D01*
X95195581Y-32700250D01*
X95200797Y-32721074D01*
X95203947Y-32742309D01*
X95205000Y-32763750D01*
X95205000Y-33276250D01*
X95203947Y-33297691D01*
X95200797Y-33318926D01*
X95195581Y-33339750D01*
X95188349Y-33359962D01*
X95179170Y-33379368D01*
X95168134Y-33397781D01*
X95155346Y-33415024D01*
X95140930Y-33430930D01*
X95125024Y-33445346D01*
X95107781Y-33458134D01*
X95089368Y-33469170D01*
X95069962Y-33478349D01*
X95049750Y-33485581D01*
X95028926Y-33490797D01*
X95007691Y-33493947D01*
X94986250Y-33495000D01*
X94548750Y-33495000D01*
X94527309Y-33493947D01*
X94506074Y-33490797D01*
X94485250Y-33485581D01*
X94465038Y-33478349D01*
X94445632Y-33469170D01*
X94427219Y-33458134D01*
X94409976Y-33445346D01*
X94394070Y-33430930D01*
X94379654Y-33415024D01*
X94366866Y-33397781D01*
X94355830Y-33379368D01*
X94346651Y-33359962D01*
X94339419Y-33339750D01*
X94334203Y-33318926D01*
X94331053Y-33297691D01*
X94330000Y-33276250D01*
X94330000Y-32763750D01*
X94331053Y-32742309D01*
X94334203Y-32721074D01*
X94339419Y-32700250D01*
X94346651Y-32680038D01*
X94355830Y-32660632D01*
X94366866Y-32642219D01*
X94379654Y-32624976D01*
X94394070Y-32609070D01*
X94409976Y-32594654D01*
X94427219Y-32581866D01*
X94445632Y-32570830D01*
X94465038Y-32561651D01*
X94485250Y-32554419D01*
X94506074Y-32549203D01*
X94527309Y-32546053D01*
X94548750Y-32545000D01*
X94986250Y-32545000D01*
X95007691Y-32546053D01*
X95007691Y-32546053D01*
G37*
D11*
X94767500Y-33020000D03*
D12*
X111760000Y-48290000D03*
X111760000Y-53340000D03*
D10*
G36*
X92625779Y-65566144D02*
G01*
X92648834Y-65569563D01*
X92671443Y-65575227D01*
X92693387Y-65583079D01*
X92714457Y-65593044D01*
X92734448Y-65605026D01*
X92753168Y-65618910D01*
X92770438Y-65634562D01*
X92786090Y-65651832D01*
X92799974Y-65670552D01*
X92811956Y-65690543D01*
X92821921Y-65711613D01*
X92829773Y-65733557D01*
X92835437Y-65756166D01*
X92838856Y-65779221D01*
X92840000Y-65802500D01*
X92840000Y-66277500D01*
X92838856Y-66300779D01*
X92835437Y-66323834D01*
X92829773Y-66346443D01*
X92821921Y-66368387D01*
X92811956Y-66389457D01*
X92799974Y-66409448D01*
X92786090Y-66428168D01*
X92770438Y-66445438D01*
X92753168Y-66461090D01*
X92734448Y-66474974D01*
X92714457Y-66486956D01*
X92693387Y-66496921D01*
X92671443Y-66504773D01*
X92648834Y-66510437D01*
X92625779Y-66513856D01*
X92602500Y-66515000D01*
X92027500Y-66515000D01*
X92004221Y-66513856D01*
X91981166Y-66510437D01*
X91958557Y-66504773D01*
X91936613Y-66496921D01*
X91915543Y-66486956D01*
X91895552Y-66474974D01*
X91876832Y-66461090D01*
X91859562Y-66445438D01*
X91843910Y-66428168D01*
X91830026Y-66409448D01*
X91818044Y-66389457D01*
X91808079Y-66368387D01*
X91800227Y-66346443D01*
X91794563Y-66323834D01*
X91791144Y-66300779D01*
X91790000Y-66277500D01*
X91790000Y-65802500D01*
X91791144Y-65779221D01*
X91794563Y-65756166D01*
X91800227Y-65733557D01*
X91808079Y-65711613D01*
X91818044Y-65690543D01*
X91830026Y-65670552D01*
X91843910Y-65651832D01*
X91859562Y-65634562D01*
X91876832Y-65618910D01*
X91895552Y-65605026D01*
X91915543Y-65593044D01*
X91936613Y-65583079D01*
X91958557Y-65575227D01*
X91981166Y-65569563D01*
X92004221Y-65566144D01*
X92027500Y-65565000D01*
X92602500Y-65565000D01*
X92625779Y-65566144D01*
X92625779Y-65566144D01*
G37*
D13*
X92315000Y-66040000D03*
D10*
G36*
X90875779Y-65566144D02*
G01*
X90898834Y-65569563D01*
X90921443Y-65575227D01*
X90943387Y-65583079D01*
X90964457Y-65593044D01*
X90984448Y-65605026D01*
X91003168Y-65618910D01*
X91020438Y-65634562D01*
X91036090Y-65651832D01*
X91049974Y-65670552D01*
X91061956Y-65690543D01*
X91071921Y-65711613D01*
X91079773Y-65733557D01*
X91085437Y-65756166D01*
X91088856Y-65779221D01*
X91090000Y-65802500D01*
X91090000Y-66277500D01*
X91088856Y-66300779D01*
X91085437Y-66323834D01*
X91079773Y-66346443D01*
X91071921Y-66368387D01*
X91061956Y-66389457D01*
X91049974Y-66409448D01*
X91036090Y-66428168D01*
X91020438Y-66445438D01*
X91003168Y-66461090D01*
X90984448Y-66474974D01*
X90964457Y-66486956D01*
X90943387Y-66496921D01*
X90921443Y-66504773D01*
X90898834Y-66510437D01*
X90875779Y-66513856D01*
X90852500Y-66515000D01*
X90277500Y-66515000D01*
X90254221Y-66513856D01*
X90231166Y-66510437D01*
X90208557Y-66504773D01*
X90186613Y-66496921D01*
X90165543Y-66486956D01*
X90145552Y-66474974D01*
X90126832Y-66461090D01*
X90109562Y-66445438D01*
X90093910Y-66428168D01*
X90080026Y-66409448D01*
X90068044Y-66389457D01*
X90058079Y-66368387D01*
X90050227Y-66346443D01*
X90044563Y-66323834D01*
X90041144Y-66300779D01*
X90040000Y-66277500D01*
X90040000Y-65802500D01*
X90041144Y-65779221D01*
X90044563Y-65756166D01*
X90050227Y-65733557D01*
X90058079Y-65711613D01*
X90068044Y-65690543D01*
X90080026Y-65670552D01*
X90093910Y-65651832D01*
X90109562Y-65634562D01*
X90126832Y-65618910D01*
X90145552Y-65605026D01*
X90165543Y-65593044D01*
X90186613Y-65583079D01*
X90208557Y-65575227D01*
X90231166Y-65569563D01*
X90254221Y-65566144D01*
X90277500Y-65565000D01*
X90852500Y-65565000D01*
X90875779Y-65566144D01*
X90875779Y-65566144D01*
G37*
D13*
X90565000Y-66040000D03*
D12*
X86360000Y-22860000D03*
X99060000Y-71120000D03*
D10*
G36*
X117867691Y-31276053D02*
G01*
X117888926Y-31279203D01*
X117909750Y-31284419D01*
X117929962Y-31291651D01*
X117949368Y-31300830D01*
X117967781Y-31311866D01*
X117985024Y-31324654D01*
X118000930Y-31339070D01*
X118015346Y-31354976D01*
X118028134Y-31372219D01*
X118039170Y-31390632D01*
X118048349Y-31410038D01*
X118055581Y-31430250D01*
X118060797Y-31451074D01*
X118063947Y-31472309D01*
X118065000Y-31493750D01*
X118065000Y-32006250D01*
X118063947Y-32027691D01*
X118060797Y-32048926D01*
X118055581Y-32069750D01*
X118048349Y-32089962D01*
X118039170Y-32109368D01*
X118028134Y-32127781D01*
X118015346Y-32145024D01*
X118000930Y-32160930D01*
X117985024Y-32175346D01*
X117967781Y-32188134D01*
X117949368Y-32199170D01*
X117929962Y-32208349D01*
X117909750Y-32215581D01*
X117888926Y-32220797D01*
X117867691Y-32223947D01*
X117846250Y-32225000D01*
X117408750Y-32225000D01*
X117387309Y-32223947D01*
X117366074Y-32220797D01*
X117345250Y-32215581D01*
X117325038Y-32208349D01*
X117305632Y-32199170D01*
X117287219Y-32188134D01*
X117269976Y-32175346D01*
X117254070Y-32160930D01*
X117239654Y-32145024D01*
X117226866Y-32127781D01*
X117215830Y-32109368D01*
X117206651Y-32089962D01*
X117199419Y-32069750D01*
X117194203Y-32048926D01*
X117191053Y-32027691D01*
X117190000Y-32006250D01*
X117190000Y-31493750D01*
X117191053Y-31472309D01*
X117194203Y-31451074D01*
X117199419Y-31430250D01*
X117206651Y-31410038D01*
X117215830Y-31390632D01*
X117226866Y-31372219D01*
X117239654Y-31354976D01*
X117254070Y-31339070D01*
X117269976Y-31324654D01*
X117287219Y-31311866D01*
X117305632Y-31300830D01*
X117325038Y-31291651D01*
X117345250Y-31284419D01*
X117366074Y-31279203D01*
X117387309Y-31276053D01*
X117408750Y-31275000D01*
X117846250Y-31275000D01*
X117867691Y-31276053D01*
X117867691Y-31276053D01*
G37*
D11*
X117627500Y-31750000D03*
D10*
G36*
X116292691Y-31276053D02*
G01*
X116313926Y-31279203D01*
X116334750Y-31284419D01*
X116354962Y-31291651D01*
X116374368Y-31300830D01*
X116392781Y-31311866D01*
X116410024Y-31324654D01*
X116425930Y-31339070D01*
X116440346Y-31354976D01*
X116453134Y-31372219D01*
X116464170Y-31390632D01*
X116473349Y-31410038D01*
X116480581Y-31430250D01*
X116485797Y-31451074D01*
X116488947Y-31472309D01*
X116490000Y-31493750D01*
X116490000Y-32006250D01*
X116488947Y-32027691D01*
X116485797Y-32048926D01*
X116480581Y-32069750D01*
X116473349Y-32089962D01*
X116464170Y-32109368D01*
X116453134Y-32127781D01*
X116440346Y-32145024D01*
X116425930Y-32160930D01*
X116410024Y-32175346D01*
X116392781Y-32188134D01*
X116374368Y-32199170D01*
X116354962Y-32208349D01*
X116334750Y-32215581D01*
X116313926Y-32220797D01*
X116292691Y-32223947D01*
X116271250Y-32225000D01*
X115833750Y-32225000D01*
X115812309Y-32223947D01*
X115791074Y-32220797D01*
X115770250Y-32215581D01*
X115750038Y-32208349D01*
X115730632Y-32199170D01*
X115712219Y-32188134D01*
X115694976Y-32175346D01*
X115679070Y-32160930D01*
X115664654Y-32145024D01*
X115651866Y-32127781D01*
X115640830Y-32109368D01*
X115631651Y-32089962D01*
X115624419Y-32069750D01*
X115619203Y-32048926D01*
X115616053Y-32027691D01*
X115615000Y-32006250D01*
X115615000Y-31493750D01*
X115616053Y-31472309D01*
X115619203Y-31451074D01*
X115624419Y-31430250D01*
X115631651Y-31410038D01*
X115640830Y-31390632D01*
X115651866Y-31372219D01*
X115664654Y-31354976D01*
X115679070Y-31339070D01*
X115694976Y-31324654D01*
X115712219Y-31311866D01*
X115730632Y-31300830D01*
X115750038Y-31291651D01*
X115770250Y-31284419D01*
X115791074Y-31279203D01*
X115812309Y-31276053D01*
X115833750Y-31275000D01*
X116271250Y-31275000D01*
X116292691Y-31276053D01*
X116292691Y-31276053D01*
G37*
D11*
X116052500Y-31750000D03*
D14*
X55224999Y-65340000D03*
X55224999Y-62800000D03*
X55224999Y-60260000D03*
X55224999Y-57720000D03*
X55224999Y-55180000D03*
X55224999Y-52640000D03*
X55224999Y-50100000D03*
X55224999Y-47560000D03*
X55224999Y-45020000D03*
X55224999Y-42480000D03*
X55224999Y-39940000D03*
X55224999Y-37400000D03*
X55224999Y-34860000D03*
X55224999Y-32320000D03*
D15*
X55224999Y-29780000D03*
X55224999Y-29780000D03*
D14*
X55224999Y-32320000D03*
X55224999Y-34860000D03*
X55224999Y-37400000D03*
X55224999Y-39940000D03*
X55224999Y-42480000D03*
X55224999Y-45020000D03*
X55224999Y-47560000D03*
X55224999Y-50100000D03*
X55224999Y-52640000D03*
X55224999Y-55180000D03*
X55224999Y-57720000D03*
X55224999Y-60260000D03*
X55224999Y-62800000D03*
X55224999Y-65340000D03*
X80924999Y-65240000D03*
X80924999Y-62700000D03*
X80924999Y-60160000D03*
X80924999Y-57620000D03*
X80924999Y-55080000D03*
X80924999Y-52540000D03*
X80924999Y-50000000D03*
X80924999Y-47460000D03*
X80924999Y-44920000D03*
X80924999Y-42380000D03*
X80924999Y-39840000D03*
X80924999Y-37300000D03*
X80924999Y-34760000D03*
X80924999Y-32220000D03*
D15*
X80924999Y-29680000D03*
X80924999Y-29680000D03*
D14*
X80924999Y-32220000D03*
X80924999Y-34760000D03*
X80924999Y-37300000D03*
X80924999Y-39840000D03*
X80924999Y-42380000D03*
X80924999Y-44920000D03*
X80924999Y-47460000D03*
X80924999Y-50000000D03*
X80924999Y-52540000D03*
X80924999Y-55080000D03*
X80924999Y-57620000D03*
X80924999Y-60160000D03*
X80924999Y-62700000D03*
X80924999Y-65240000D03*
D12*
X133350000Y-57150000D03*
X132080000Y-26670000D03*
X128270000Y-74930000D03*
X127000000Y-44450000D03*
X128270000Y-57150000D03*
X127000000Y-26670000D03*
D10*
G36*
X92625779Y-68106144D02*
G01*
X92648834Y-68109563D01*
X92671443Y-68115227D01*
X92693387Y-68123079D01*
X92714457Y-68133044D01*
X92734448Y-68145026D01*
X92753168Y-68158910D01*
X92770438Y-68174562D01*
X92786090Y-68191832D01*
X92799974Y-68210552D01*
X92811956Y-68230543D01*
X92821921Y-68251613D01*
X92829773Y-68273557D01*
X92835437Y-68296166D01*
X92838856Y-68319221D01*
X92840000Y-68342500D01*
X92840000Y-68817500D01*
X92838856Y-68840779D01*
X92835437Y-68863834D01*
X92829773Y-68886443D01*
X92821921Y-68908387D01*
X92811956Y-68929457D01*
X92799974Y-68949448D01*
X92786090Y-68968168D01*
X92770438Y-68985438D01*
X92753168Y-69001090D01*
X92734448Y-69014974D01*
X92714457Y-69026956D01*
X92693387Y-69036921D01*
X92671443Y-69044773D01*
X92648834Y-69050437D01*
X92625779Y-69053856D01*
X92602500Y-69055000D01*
X92027500Y-69055000D01*
X92004221Y-69053856D01*
X91981166Y-69050437D01*
X91958557Y-69044773D01*
X91936613Y-69036921D01*
X91915543Y-69026956D01*
X91895552Y-69014974D01*
X91876832Y-69001090D01*
X91859562Y-68985438D01*
X91843910Y-68968168D01*
X91830026Y-68949448D01*
X91818044Y-68929457D01*
X91808079Y-68908387D01*
X91800227Y-68886443D01*
X91794563Y-68863834D01*
X91791144Y-68840779D01*
X91790000Y-68817500D01*
X91790000Y-68342500D01*
X91791144Y-68319221D01*
X91794563Y-68296166D01*
X91800227Y-68273557D01*
X91808079Y-68251613D01*
X91818044Y-68230543D01*
X91830026Y-68210552D01*
X91843910Y-68191832D01*
X91859562Y-68174562D01*
X91876832Y-68158910D01*
X91895552Y-68145026D01*
X91915543Y-68133044D01*
X91936613Y-68123079D01*
X91958557Y-68115227D01*
X91981166Y-68109563D01*
X92004221Y-68106144D01*
X92027500Y-68105000D01*
X92602500Y-68105000D01*
X92625779Y-68106144D01*
X92625779Y-68106144D01*
G37*
D13*
X92315000Y-68580000D03*
D10*
G36*
X90875779Y-68106144D02*
G01*
X90898834Y-68109563D01*
X90921443Y-68115227D01*
X90943387Y-68123079D01*
X90964457Y-68133044D01*
X90984448Y-68145026D01*
X91003168Y-68158910D01*
X91020438Y-68174562D01*
X91036090Y-68191832D01*
X91049974Y-68210552D01*
X91061956Y-68230543D01*
X91071921Y-68251613D01*
X91079773Y-68273557D01*
X91085437Y-68296166D01*
X91088856Y-68319221D01*
X91090000Y-68342500D01*
X91090000Y-68817500D01*
X91088856Y-68840779D01*
X91085437Y-68863834D01*
X91079773Y-68886443D01*
X91071921Y-68908387D01*
X91061956Y-68929457D01*
X91049974Y-68949448D01*
X91036090Y-68968168D01*
X91020438Y-68985438D01*
X91003168Y-69001090D01*
X90984448Y-69014974D01*
X90964457Y-69026956D01*
X90943387Y-69036921D01*
X90921443Y-69044773D01*
X90898834Y-69050437D01*
X90875779Y-69053856D01*
X90852500Y-69055000D01*
X90277500Y-69055000D01*
X90254221Y-69053856D01*
X90231166Y-69050437D01*
X90208557Y-69044773D01*
X90186613Y-69036921D01*
X90165543Y-69026956D01*
X90145552Y-69014974D01*
X90126832Y-69001090D01*
X90109562Y-68985438D01*
X90093910Y-68968168D01*
X90080026Y-68949448D01*
X90068044Y-68929457D01*
X90058079Y-68908387D01*
X90050227Y-68886443D01*
X90044563Y-68863834D01*
X90041144Y-68840779D01*
X90040000Y-68817500D01*
X90040000Y-68342500D01*
X90041144Y-68319221D01*
X90044563Y-68296166D01*
X90050227Y-68273557D01*
X90058079Y-68251613D01*
X90068044Y-68230543D01*
X90080026Y-68210552D01*
X90093910Y-68191832D01*
X90109562Y-68174562D01*
X90126832Y-68158910D01*
X90145552Y-68145026D01*
X90165543Y-68133044D01*
X90186613Y-68123079D01*
X90208557Y-68115227D01*
X90231166Y-68109563D01*
X90254221Y-68106144D01*
X90277500Y-68105000D01*
X90852500Y-68105000D01*
X90875779Y-68106144D01*
X90875779Y-68106144D01*
G37*
D13*
X90565000Y-68580000D03*
D10*
G36*
X92625779Y-63026144D02*
G01*
X92648834Y-63029563D01*
X92671443Y-63035227D01*
X92693387Y-63043079D01*
X92714457Y-63053044D01*
X92734448Y-63065026D01*
X92753168Y-63078910D01*
X92770438Y-63094562D01*
X92786090Y-63111832D01*
X92799974Y-63130552D01*
X92811956Y-63150543D01*
X92821921Y-63171613D01*
X92829773Y-63193557D01*
X92835437Y-63216166D01*
X92838856Y-63239221D01*
X92840000Y-63262500D01*
X92840000Y-63737500D01*
X92838856Y-63760779D01*
X92835437Y-63783834D01*
X92829773Y-63806443D01*
X92821921Y-63828387D01*
X92811956Y-63849457D01*
X92799974Y-63869448D01*
X92786090Y-63888168D01*
X92770438Y-63905438D01*
X92753168Y-63921090D01*
X92734448Y-63934974D01*
X92714457Y-63946956D01*
X92693387Y-63956921D01*
X92671443Y-63964773D01*
X92648834Y-63970437D01*
X92625779Y-63973856D01*
X92602500Y-63975000D01*
X92027500Y-63975000D01*
X92004221Y-63973856D01*
X91981166Y-63970437D01*
X91958557Y-63964773D01*
X91936613Y-63956921D01*
X91915543Y-63946956D01*
X91895552Y-63934974D01*
X91876832Y-63921090D01*
X91859562Y-63905438D01*
X91843910Y-63888168D01*
X91830026Y-63869448D01*
X91818044Y-63849457D01*
X91808079Y-63828387D01*
X91800227Y-63806443D01*
X91794563Y-63783834D01*
X91791144Y-63760779D01*
X91790000Y-63737500D01*
X91790000Y-63262500D01*
X91791144Y-63239221D01*
X91794563Y-63216166D01*
X91800227Y-63193557D01*
X91808079Y-63171613D01*
X91818044Y-63150543D01*
X91830026Y-63130552D01*
X91843910Y-63111832D01*
X91859562Y-63094562D01*
X91876832Y-63078910D01*
X91895552Y-63065026D01*
X91915543Y-63053044D01*
X91936613Y-63043079D01*
X91958557Y-63035227D01*
X91981166Y-63029563D01*
X92004221Y-63026144D01*
X92027500Y-63025000D01*
X92602500Y-63025000D01*
X92625779Y-63026144D01*
X92625779Y-63026144D01*
G37*
D13*
X92315000Y-63500000D03*
D10*
G36*
X90875779Y-63026144D02*
G01*
X90898834Y-63029563D01*
X90921443Y-63035227D01*
X90943387Y-63043079D01*
X90964457Y-63053044D01*
X90984448Y-63065026D01*
X91003168Y-63078910D01*
X91020438Y-63094562D01*
X91036090Y-63111832D01*
X91049974Y-63130552D01*
X91061956Y-63150543D01*
X91071921Y-63171613D01*
X91079773Y-63193557D01*
X91085437Y-63216166D01*
X91088856Y-63239221D01*
X91090000Y-63262500D01*
X91090000Y-63737500D01*
X91088856Y-63760779D01*
X91085437Y-63783834D01*
X91079773Y-63806443D01*
X91071921Y-63828387D01*
X91061956Y-63849457D01*
X91049974Y-63869448D01*
X91036090Y-63888168D01*
X91020438Y-63905438D01*
X91003168Y-63921090D01*
X90984448Y-63934974D01*
X90964457Y-63946956D01*
X90943387Y-63956921D01*
X90921443Y-63964773D01*
X90898834Y-63970437D01*
X90875779Y-63973856D01*
X90852500Y-63975000D01*
X90277500Y-63975000D01*
X90254221Y-63973856D01*
X90231166Y-63970437D01*
X90208557Y-63964773D01*
X90186613Y-63956921D01*
X90165543Y-63946956D01*
X90145552Y-63934974D01*
X90126832Y-63921090D01*
X90109562Y-63905438D01*
X90093910Y-63888168D01*
X90080026Y-63869448D01*
X90068044Y-63849457D01*
X90058079Y-63828387D01*
X90050227Y-63806443D01*
X90044563Y-63783834D01*
X90041144Y-63760779D01*
X90040000Y-63737500D01*
X90040000Y-63262500D01*
X90041144Y-63239221D01*
X90044563Y-63216166D01*
X90050227Y-63193557D01*
X90058079Y-63171613D01*
X90068044Y-63150543D01*
X90080026Y-63130552D01*
X90093910Y-63111832D01*
X90109562Y-63094562D01*
X90126832Y-63078910D01*
X90145552Y-63065026D01*
X90165543Y-63053044D01*
X90186613Y-63043079D01*
X90208557Y-63035227D01*
X90231166Y-63029563D01*
X90254221Y-63026144D01*
X90277500Y-63025000D01*
X90852500Y-63025000D01*
X90875779Y-63026144D01*
X90875779Y-63026144D01*
G37*
D13*
X90565000Y-63500000D03*
D10*
G36*
X114057691Y-31276053D02*
G01*
X114078926Y-31279203D01*
X114099750Y-31284419D01*
X114119962Y-31291651D01*
X114139368Y-31300830D01*
X114157781Y-31311866D01*
X114175024Y-31324654D01*
X114190930Y-31339070D01*
X114205346Y-31354976D01*
X114218134Y-31372219D01*
X114229170Y-31390632D01*
X114238349Y-31410038D01*
X114245581Y-31430250D01*
X114250797Y-31451074D01*
X114253947Y-31472309D01*
X114255000Y-31493750D01*
X114255000Y-32006250D01*
X114253947Y-32027691D01*
X114250797Y-32048926D01*
X114245581Y-32069750D01*
X114238349Y-32089962D01*
X114229170Y-32109368D01*
X114218134Y-32127781D01*
X114205346Y-32145024D01*
X114190930Y-32160930D01*
X114175024Y-32175346D01*
X114157781Y-32188134D01*
X114139368Y-32199170D01*
X114119962Y-32208349D01*
X114099750Y-32215581D01*
X114078926Y-32220797D01*
X114057691Y-32223947D01*
X114036250Y-32225000D01*
X113598750Y-32225000D01*
X113577309Y-32223947D01*
X113556074Y-32220797D01*
X113535250Y-32215581D01*
X113515038Y-32208349D01*
X113495632Y-32199170D01*
X113477219Y-32188134D01*
X113459976Y-32175346D01*
X113444070Y-32160930D01*
X113429654Y-32145024D01*
X113416866Y-32127781D01*
X113405830Y-32109368D01*
X113396651Y-32089962D01*
X113389419Y-32069750D01*
X113384203Y-32048926D01*
X113381053Y-32027691D01*
X113380000Y-32006250D01*
X113380000Y-31493750D01*
X113381053Y-31472309D01*
X113384203Y-31451074D01*
X113389419Y-31430250D01*
X113396651Y-31410038D01*
X113405830Y-31390632D01*
X113416866Y-31372219D01*
X113429654Y-31354976D01*
X113444070Y-31339070D01*
X113459976Y-31324654D01*
X113477219Y-31311866D01*
X113495632Y-31300830D01*
X113515038Y-31291651D01*
X113535250Y-31284419D01*
X113556074Y-31279203D01*
X113577309Y-31276053D01*
X113598750Y-31275000D01*
X114036250Y-31275000D01*
X114057691Y-31276053D01*
X114057691Y-31276053D01*
G37*
D11*
X113817500Y-31750000D03*
D10*
G36*
X112482691Y-31276053D02*
G01*
X112503926Y-31279203D01*
X112524750Y-31284419D01*
X112544962Y-31291651D01*
X112564368Y-31300830D01*
X112582781Y-31311866D01*
X112600024Y-31324654D01*
X112615930Y-31339070D01*
X112630346Y-31354976D01*
X112643134Y-31372219D01*
X112654170Y-31390632D01*
X112663349Y-31410038D01*
X112670581Y-31430250D01*
X112675797Y-31451074D01*
X112678947Y-31472309D01*
X112680000Y-31493750D01*
X112680000Y-32006250D01*
X112678947Y-32027691D01*
X112675797Y-32048926D01*
X112670581Y-32069750D01*
X112663349Y-32089962D01*
X112654170Y-32109368D01*
X112643134Y-32127781D01*
X112630346Y-32145024D01*
X112615930Y-32160930D01*
X112600024Y-32175346D01*
X112582781Y-32188134D01*
X112564368Y-32199170D01*
X112544962Y-32208349D01*
X112524750Y-32215581D01*
X112503926Y-32220797D01*
X112482691Y-32223947D01*
X112461250Y-32225000D01*
X112023750Y-32225000D01*
X112002309Y-32223947D01*
X111981074Y-32220797D01*
X111960250Y-32215581D01*
X111940038Y-32208349D01*
X111920632Y-32199170D01*
X111902219Y-32188134D01*
X111884976Y-32175346D01*
X111869070Y-32160930D01*
X111854654Y-32145024D01*
X111841866Y-32127781D01*
X111830830Y-32109368D01*
X111821651Y-32089962D01*
X111814419Y-32069750D01*
X111809203Y-32048926D01*
X111806053Y-32027691D01*
X111805000Y-32006250D01*
X111805000Y-31493750D01*
X111806053Y-31472309D01*
X111809203Y-31451074D01*
X111814419Y-31430250D01*
X111821651Y-31410038D01*
X111830830Y-31390632D01*
X111841866Y-31372219D01*
X111854654Y-31354976D01*
X111869070Y-31339070D01*
X111884976Y-31324654D01*
X111902219Y-31311866D01*
X111920632Y-31300830D01*
X111940038Y-31291651D01*
X111960250Y-31284419D01*
X111981074Y-31279203D01*
X112002309Y-31276053D01*
X112023750Y-31275000D01*
X112461250Y-31275000D01*
X112482691Y-31276053D01*
X112482691Y-31276053D01*
G37*
D11*
X112242500Y-31750000D03*
D10*
G36*
X93432691Y-52866053D02*
G01*
X93453926Y-52869203D01*
X93474750Y-52874419D01*
X93494962Y-52881651D01*
X93514368Y-52890830D01*
X93532781Y-52901866D01*
X93550024Y-52914654D01*
X93565930Y-52929070D01*
X93580346Y-52944976D01*
X93593134Y-52962219D01*
X93604170Y-52980632D01*
X93613349Y-53000038D01*
X93620581Y-53020250D01*
X93625797Y-53041074D01*
X93628947Y-53062309D01*
X93630000Y-53083750D01*
X93630000Y-53596250D01*
X93628947Y-53617691D01*
X93625797Y-53638926D01*
X93620581Y-53659750D01*
X93613349Y-53679962D01*
X93604170Y-53699368D01*
X93593134Y-53717781D01*
X93580346Y-53735024D01*
X93565930Y-53750930D01*
X93550024Y-53765346D01*
X93532781Y-53778134D01*
X93514368Y-53789170D01*
X93494962Y-53798349D01*
X93474750Y-53805581D01*
X93453926Y-53810797D01*
X93432691Y-53813947D01*
X93411250Y-53815000D01*
X92973750Y-53815000D01*
X92952309Y-53813947D01*
X92931074Y-53810797D01*
X92910250Y-53805581D01*
X92890038Y-53798349D01*
X92870632Y-53789170D01*
X92852219Y-53778134D01*
X92834976Y-53765346D01*
X92819070Y-53750930D01*
X92804654Y-53735024D01*
X92791866Y-53717781D01*
X92780830Y-53699368D01*
X92771651Y-53679962D01*
X92764419Y-53659750D01*
X92759203Y-53638926D01*
X92756053Y-53617691D01*
X92755000Y-53596250D01*
X92755000Y-53083750D01*
X92756053Y-53062309D01*
X92759203Y-53041074D01*
X92764419Y-53020250D01*
X92771651Y-53000038D01*
X92780830Y-52980632D01*
X92791866Y-52962219D01*
X92804654Y-52944976D01*
X92819070Y-52929070D01*
X92834976Y-52914654D01*
X92852219Y-52901866D01*
X92870632Y-52890830D01*
X92890038Y-52881651D01*
X92910250Y-52874419D01*
X92931074Y-52869203D01*
X92952309Y-52866053D01*
X92973750Y-52865000D01*
X93411250Y-52865000D01*
X93432691Y-52866053D01*
X93432691Y-52866053D01*
G37*
D11*
X93192500Y-53340000D03*
D10*
G36*
X95007691Y-52866053D02*
G01*
X95028926Y-52869203D01*
X95049750Y-52874419D01*
X95069962Y-52881651D01*
X95089368Y-52890830D01*
X95107781Y-52901866D01*
X95125024Y-52914654D01*
X95140930Y-52929070D01*
X95155346Y-52944976D01*
X95168134Y-52962219D01*
X95179170Y-52980632D01*
X95188349Y-53000038D01*
X95195581Y-53020250D01*
X95200797Y-53041074D01*
X95203947Y-53062309D01*
X95205000Y-53083750D01*
X95205000Y-53596250D01*
X95203947Y-53617691D01*
X95200797Y-53638926D01*
X95195581Y-53659750D01*
X95188349Y-53679962D01*
X95179170Y-53699368D01*
X95168134Y-53717781D01*
X95155346Y-53735024D01*
X95140930Y-53750930D01*
X95125024Y-53765346D01*
X95107781Y-53778134D01*
X95089368Y-53789170D01*
X95069962Y-53798349D01*
X95049750Y-53805581D01*
X95028926Y-53810797D01*
X95007691Y-53813947D01*
X94986250Y-53815000D01*
X94548750Y-53815000D01*
X94527309Y-53813947D01*
X94506074Y-53810797D01*
X94485250Y-53805581D01*
X94465038Y-53798349D01*
X94445632Y-53789170D01*
X94427219Y-53778134D01*
X94409976Y-53765346D01*
X94394070Y-53750930D01*
X94379654Y-53735024D01*
X94366866Y-53717781D01*
X94355830Y-53699368D01*
X94346651Y-53679962D01*
X94339419Y-53659750D01*
X94334203Y-53638926D01*
X94331053Y-53617691D01*
X94330000Y-53596250D01*
X94330000Y-53083750D01*
X94331053Y-53062309D01*
X94334203Y-53041074D01*
X94339419Y-53020250D01*
X94346651Y-53000038D01*
X94355830Y-52980632D01*
X94366866Y-52962219D01*
X94379654Y-52944976D01*
X94394070Y-52929070D01*
X94409976Y-52914654D01*
X94427219Y-52901866D01*
X94445632Y-52890830D01*
X94465038Y-52881651D01*
X94485250Y-52874419D01*
X94506074Y-52869203D01*
X94527309Y-52866053D01*
X94548750Y-52865000D01*
X94986250Y-52865000D01*
X95007691Y-52866053D01*
X95007691Y-52866053D01*
G37*
D11*
X94767500Y-53340000D03*
D16*
X101170000Y-51990000D03*
X99170000Y-52940000D03*
X99170000Y-51040000D03*
X89900000Y-48260000D03*
X87900000Y-49210000D03*
X87900000Y-47310000D03*
X101600000Y-58420000D03*
X99600000Y-59370000D03*
X99600000Y-57470000D03*
X91440000Y-58420000D03*
X89440000Y-59370000D03*
X89440000Y-57470000D03*
D12*
X106680000Y-22860000D03*
X106680000Y-27940000D03*
X43180000Y-60960000D03*
X116840000Y-22860000D03*
X116840000Y-27940000D03*
X43180000Y-30480000D03*
X43180000Y-40640000D03*
X43180000Y-25400000D03*
D17*
X133260000Y-39150000D03*
D18*
X128910000Y-34500000D03*
X132710000Y-34500000D03*
D19*
X132080000Y-31750000D03*
X132080000Y-37250000D03*
X129540000Y-31750000D03*
X129540000Y-37250000D03*
X128900000Y-67520000D03*
X128900000Y-62020000D03*
X131440000Y-67520000D03*
X131440000Y-62020000D03*
D18*
X132070000Y-64770000D03*
X128270000Y-64770000D03*
D17*
X132620000Y-69420000D03*
D12*
X43180000Y-35560000D03*
X43180000Y-45720000D03*
X91440000Y-22860000D03*
X111760000Y-22860000D03*
X111760000Y-27940000D03*
X43180000Y-66040000D03*
X93980000Y-71120000D03*
D20*
X45720000Y-38100000D03*
X45720000Y-43180000D03*
X60960000Y-38100000D03*
X82550000Y-29210000D03*
X101600000Y-31750000D03*
X106680000Y-31750000D03*
X109220000Y-34290000D03*
X78740000Y-55880000D03*
X86360000Y-50700000D03*
X99060000Y-54610000D03*
X91440000Y-60960000D03*
X96520000Y-53340000D03*
X83820000Y-31750000D03*
X91440000Y-31750000D03*
X86360000Y-58420000D03*
X96520000Y-58420000D03*
X101600000Y-60960000D03*
X101600000Y-50800000D03*
X95250000Y-49530000D03*
X102870000Y-25400000D03*
X76200000Y-53340000D03*
X88900000Y-53340000D03*
X106680000Y-60960000D03*
D21*
X80924999Y-29680000D02*
X80924999Y-28295001D01*
X43180000Y-35560000D02*
X45720000Y-38100000D01*
X43180000Y-45720000D02*
X45720000Y-43180000D01*
X72504999Y-38100000D02*
X80924999Y-29680000D01*
X60960000Y-38100000D02*
X72504999Y-38100000D01*
X76925001Y-42520002D02*
X72504999Y-38100000D01*
X76925001Y-62979004D02*
X76925001Y-42520002D01*
X85065997Y-71120000D02*
X76925001Y-62979004D01*
X93980000Y-71120000D02*
X85065997Y-71120000D01*
X113817500Y-31750000D02*
X116052500Y-31750000D01*
X80924999Y-29680000D02*
X82080000Y-29680000D01*
X82080000Y-29680000D02*
X82550000Y-29210000D01*
X101600000Y-31750000D02*
X106680000Y-31750000D01*
X109220000Y-34290000D02*
X111277500Y-34290000D01*
X111277500Y-34290000D02*
X113817500Y-31750000D01*
X99600000Y-59370000D02*
X89440000Y-59370000D01*
X89440000Y-59370000D02*
X87950000Y-59370000D01*
X87950000Y-59370000D02*
X86360000Y-60960000D01*
X86360000Y-60960000D02*
X83820000Y-60960000D01*
X83820000Y-57975001D02*
X80924999Y-55080000D01*
X83820000Y-60960000D02*
X83820000Y-57975001D01*
X80075000Y-55929999D02*
X78789999Y-55929999D01*
X80924999Y-55080000D02*
X80075000Y-55929999D01*
X78789999Y-55929999D02*
X78740000Y-55880000D01*
X89490000Y-57470000D02*
X91080000Y-55880000D01*
X89440000Y-57470000D02*
X89490000Y-57470000D01*
X91080000Y-55880000D02*
X96520000Y-55880000D01*
X98110000Y-57470000D02*
X99600000Y-57470000D01*
X96520000Y-55880000D02*
X98110000Y-57470000D01*
X87754999Y-49210000D02*
X87900000Y-49210000D01*
X80924999Y-42380000D02*
X87754999Y-49210000D01*
X86360000Y-36944999D02*
X86360000Y-22860000D01*
X80924999Y-42380000D02*
X86360000Y-36944999D01*
X87850000Y-49210000D02*
X86360000Y-50700000D01*
X87900000Y-49210000D02*
X87850000Y-49210000D01*
X99170000Y-52940000D02*
X99170000Y-54500000D01*
X99170000Y-54500000D02*
X99060000Y-54610000D01*
X90565000Y-68580000D02*
X90565000Y-66040000D01*
X90565000Y-63500000D02*
X90565000Y-66040000D01*
X88600000Y-47310000D02*
X87900000Y-47310000D01*
X95390000Y-47310000D02*
X88600000Y-47310000D01*
X99120000Y-51040000D02*
X95390000Y-47310000D01*
X99170000Y-51040000D02*
X99120000Y-51040000D01*
X90565000Y-63500000D02*
X90565000Y-61835000D01*
X90565000Y-61835000D02*
X91440000Y-60960000D01*
X98820000Y-51040000D02*
X99170000Y-51040000D01*
X96520000Y-53340000D02*
X98820000Y-51040000D01*
X55224999Y-42480000D02*
X71034999Y-26670000D01*
X71034999Y-26670000D02*
X82550000Y-26670000D01*
X82550000Y-26670000D02*
X83820000Y-27940000D01*
X83820000Y-27940000D02*
X83820000Y-31750000D01*
X92710000Y-33020000D02*
X91440000Y-31750000D01*
X93192500Y-33020000D02*
X92710000Y-33020000D01*
X43880000Y-65340000D02*
X43180000Y-66040000D01*
X55224999Y-65340000D02*
X43880000Y-65340000D01*
X89900000Y-48260000D02*
X89900000Y-49800000D01*
X89900000Y-49800000D02*
X86360000Y-53340000D01*
X86360000Y-53340000D02*
X86360000Y-58420000D01*
X96520000Y-58420000D02*
X91440000Y-58420000D01*
X53384999Y-60960000D02*
X55224999Y-62800000D01*
X43180000Y-60960000D02*
X53384999Y-60960000D01*
X101600000Y-58420000D02*
X101600000Y-60960000D01*
X101170000Y-51990000D02*
X101170000Y-51230000D01*
X101170000Y-51230000D02*
X101600000Y-50800000D01*
X54524999Y-40640000D02*
X55224999Y-39940000D01*
X43180000Y-40640000D02*
X54524999Y-40640000D01*
X48304999Y-30480000D02*
X55224999Y-37400000D01*
X43180000Y-30480000D02*
X48304999Y-30480000D01*
X43180000Y-25400000D02*
X45720000Y-25400000D01*
X52640000Y-32320000D02*
X55224999Y-32320000D01*
X45720000Y-25400000D02*
X52640000Y-32320000D01*
X94767500Y-33020000D02*
X107950000Y-33020000D01*
X107950000Y-33020000D02*
X109220000Y-31750000D01*
X109220000Y-30480000D02*
X111760000Y-27940000D01*
X109220000Y-31750000D02*
X109220000Y-30480000D01*
X94767500Y-53340000D02*
X94767500Y-50012500D01*
X94767500Y-50012500D02*
X95250000Y-49530000D01*
X109220000Y-25400000D02*
X111760000Y-22860000D01*
X102870000Y-25400000D02*
X109220000Y-25400000D01*
X117627500Y-28727500D02*
X116840000Y-27940000D01*
X117627500Y-31750000D02*
X117627500Y-28727500D01*
X115640001Y-24059999D02*
X116840000Y-22860000D01*
X114300000Y-25400000D02*
X115640001Y-24059999D01*
X114300000Y-30707499D02*
X114300000Y-25400000D01*
X112242500Y-31750000D02*
X113285001Y-30707499D01*
X113285001Y-30707499D02*
X114300000Y-30707499D01*
X55224999Y-45020000D02*
X65340000Y-45020000D01*
X65340000Y-45020000D02*
X73660000Y-53340000D01*
X73660000Y-53340000D02*
X76200000Y-53340000D01*
X88900000Y-53340000D02*
X93192500Y-53340000D01*
X92315000Y-63500000D02*
X92315000Y-66040000D01*
X92315000Y-66040000D02*
X92315000Y-68580000D01*
X129540000Y-29210000D02*
X127000000Y-26670000D01*
X129540000Y-31750000D02*
X129540000Y-29210000D01*
X128900000Y-57780000D02*
X128270000Y-57150000D01*
X128900000Y-62020000D02*
X128900000Y-57780000D01*
X127000000Y-39790000D02*
X129540000Y-37250000D01*
X127000000Y-44450000D02*
X127000000Y-39790000D01*
X128900000Y-74300000D02*
X128270000Y-74930000D01*
X128900000Y-67520000D02*
X128900000Y-74300000D01*
X132080000Y-31750000D02*
X132080000Y-26670000D01*
X133494213Y-31750000D02*
X132080000Y-31750000D01*
X134285001Y-32540788D02*
X133494213Y-31750000D01*
X134285001Y-36459212D02*
X134285001Y-32540788D01*
X133494213Y-37250000D02*
X134285001Y-36459212D01*
X132080000Y-37250000D02*
X133494213Y-37250000D01*
X133350000Y-60110000D02*
X131440000Y-62020000D01*
X133350000Y-57150000D02*
X133350000Y-60110000D01*
X132854213Y-62020000D02*
X131440000Y-62020000D01*
X133645001Y-62810788D02*
X132854213Y-62020000D01*
X133645001Y-66729212D02*
X133645001Y-62810788D01*
X132854213Y-67520000D02*
X133645001Y-66729212D01*
X131440000Y-67520000D02*
X132854213Y-67520000D01*
X107630000Y-57470000D02*
X111760000Y-53340000D01*
X99600000Y-57470000D02*
X107630000Y-57470000D01*
X92315000Y-63500000D02*
X100133002Y-63500000D01*
X100133002Y-63500000D02*
X104140000Y-63500000D01*
X104140000Y-63500000D02*
X106680000Y-60960000D01*
M02*
