%TF.GenerationSoftware,KiCad,Pcbnew,(6.0.9)*%
%TF.CreationDate,2022-12-05T14:11:39+01:00*%
%TF.ProjectId,PP,50502e6b-6963-4616-945f-706362585858,rev?*%
%TF.SameCoordinates,Original*%
%TF.FileFunction,Drillmap*%
%TF.FilePolarity,Positive*%
%FSLAX45Y45*%
G04 Gerber Fmt 4.5, Leading zero omitted, Abs format (unit mm)*
G04 Created by KiCad (PCBNEW (6.0.9)) date 2022-12-05 14:11:39*
%MOMM*%
%LPD*%
G01*
G04 APERTURE LIST*
%ADD10C,0.050000*%
%ADD11C,0.200000*%
%ADD12C,0.080000*%
G04 APERTURE END LIST*
D10*
X9400000Y-4300000D02*
X15000000Y-4300000D01*
X15000000Y-4300000D02*
X15000000Y-8500000D01*
X15000000Y-8500000D02*
X9400000Y-8500000D01*
X9400000Y-8500000D02*
X9400000Y-4300000D01*
D11*
D12*
X12611000Y-4662000D02*
X12691000Y-4742000D01*
X12691000Y-4662000D02*
X12611000Y-4742000D01*
X13111000Y-4662000D02*
X13191000Y-4742000D01*
X13191000Y-4662000D02*
X13111000Y-4742000D01*
D11*
X9655119Y-8812976D02*
X9655119Y-8612976D01*
X9702738Y-8612976D01*
X9731310Y-8622500D01*
X9750357Y-8641548D01*
X9759881Y-8660595D01*
X9769405Y-8698690D01*
X9769405Y-8727262D01*
X9759881Y-8765357D01*
X9750357Y-8784405D01*
X9731310Y-8803452D01*
X9702738Y-8812976D01*
X9655119Y-8812976D01*
X9855119Y-8812976D02*
X9855119Y-8679643D01*
X9855119Y-8717738D02*
X9864643Y-8698690D01*
X9874167Y-8689167D01*
X9893214Y-8679643D01*
X9912262Y-8679643D01*
X9978929Y-8812976D02*
X9978929Y-8679643D01*
X9978929Y-8612976D02*
X9969405Y-8622500D01*
X9978929Y-8632024D01*
X9988452Y-8622500D01*
X9978929Y-8612976D01*
X9978929Y-8632024D01*
X10102738Y-8812976D02*
X10083690Y-8803452D01*
X10074167Y-8784405D01*
X10074167Y-8612976D01*
X10207500Y-8812976D02*
X10188452Y-8803452D01*
X10178929Y-8784405D01*
X10178929Y-8612976D01*
X10436071Y-8812976D02*
X10436071Y-8612976D01*
X10502738Y-8755833D01*
X10569405Y-8612976D01*
X10569405Y-8812976D01*
X10750357Y-8812976D02*
X10750357Y-8708214D01*
X10740833Y-8689167D01*
X10721786Y-8679643D01*
X10683690Y-8679643D01*
X10664643Y-8689167D01*
X10750357Y-8803452D02*
X10731310Y-8812976D01*
X10683690Y-8812976D01*
X10664643Y-8803452D01*
X10655119Y-8784405D01*
X10655119Y-8765357D01*
X10664643Y-8746310D01*
X10683690Y-8736786D01*
X10731310Y-8736786D01*
X10750357Y-8727262D01*
X10845595Y-8679643D02*
X10845595Y-8879643D01*
X10845595Y-8689167D02*
X10864643Y-8679643D01*
X10902738Y-8679643D01*
X10921786Y-8689167D01*
X10931310Y-8698690D01*
X10940833Y-8717738D01*
X10940833Y-8774881D01*
X10931310Y-8793929D01*
X10921786Y-8803452D01*
X10902738Y-8812976D01*
X10864643Y-8812976D01*
X10845595Y-8803452D01*
X11026548Y-8793929D02*
X11036071Y-8803452D01*
X11026548Y-8812976D01*
X11017024Y-8803452D01*
X11026548Y-8793929D01*
X11026548Y-8812976D01*
X11026548Y-8689167D02*
X11036071Y-8698690D01*
X11026548Y-8708214D01*
X11017024Y-8698690D01*
X11026548Y-8689167D01*
X11026548Y-8708214D01*
D12*
X9317500Y-9102500D02*
X9397500Y-9182500D01*
X9397500Y-9102500D02*
X9317500Y-9182500D01*
D11*
X9693214Y-9032976D02*
X9712262Y-9032976D01*
X9731310Y-9042500D01*
X9740833Y-9052024D01*
X9750357Y-9071071D01*
X9759881Y-9109167D01*
X9759881Y-9156786D01*
X9750357Y-9194881D01*
X9740833Y-9213929D01*
X9731310Y-9223452D01*
X9712262Y-9232976D01*
X9693214Y-9232976D01*
X9674167Y-9223452D01*
X9664643Y-9213929D01*
X9655119Y-9194881D01*
X9645595Y-9156786D01*
X9645595Y-9109167D01*
X9655119Y-9071071D01*
X9664643Y-9052024D01*
X9674167Y-9042500D01*
X9693214Y-9032976D01*
X9845595Y-9213929D02*
X9855119Y-9223452D01*
X9845595Y-9232976D01*
X9836071Y-9223452D01*
X9845595Y-9213929D01*
X9845595Y-9232976D01*
X9969405Y-9118690D02*
X9950357Y-9109167D01*
X9940833Y-9099643D01*
X9931310Y-9080595D01*
X9931310Y-9071071D01*
X9940833Y-9052024D01*
X9950357Y-9042500D01*
X9969405Y-9032976D01*
X10007500Y-9032976D01*
X10026548Y-9042500D01*
X10036071Y-9052024D01*
X10045595Y-9071071D01*
X10045595Y-9080595D01*
X10036071Y-9099643D01*
X10026548Y-9109167D01*
X10007500Y-9118690D01*
X9969405Y-9118690D01*
X9950357Y-9128214D01*
X9940833Y-9137738D01*
X9931310Y-9156786D01*
X9931310Y-9194881D01*
X9940833Y-9213929D01*
X9950357Y-9223452D01*
X9969405Y-9232976D01*
X10007500Y-9232976D01*
X10026548Y-9223452D01*
X10036071Y-9213929D01*
X10045595Y-9194881D01*
X10045595Y-9156786D01*
X10036071Y-9137738D01*
X10026548Y-9128214D01*
X10007500Y-9118690D01*
X10169405Y-9032976D02*
X10188452Y-9032976D01*
X10207500Y-9042500D01*
X10217024Y-9052024D01*
X10226548Y-9071071D01*
X10236071Y-9109167D01*
X10236071Y-9156786D01*
X10226548Y-9194881D01*
X10217024Y-9213929D01*
X10207500Y-9223452D01*
X10188452Y-9232976D01*
X10169405Y-9232976D01*
X10150357Y-9223452D01*
X10140833Y-9213929D01*
X10131310Y-9194881D01*
X10121786Y-9156786D01*
X10121786Y-9109167D01*
X10131310Y-9071071D01*
X10140833Y-9052024D01*
X10150357Y-9042500D01*
X10169405Y-9032976D01*
X10359881Y-9032976D02*
X10378929Y-9032976D01*
X10397976Y-9042500D01*
X10407500Y-9052024D01*
X10417024Y-9071071D01*
X10426548Y-9109167D01*
X10426548Y-9156786D01*
X10417024Y-9194881D01*
X10407500Y-9213929D01*
X10397976Y-9223452D01*
X10378929Y-9232976D01*
X10359881Y-9232976D01*
X10340833Y-9223452D01*
X10331310Y-9213929D01*
X10321786Y-9194881D01*
X10312262Y-9156786D01*
X10312262Y-9109167D01*
X10321786Y-9071071D01*
X10331310Y-9052024D01*
X10340833Y-9042500D01*
X10359881Y-9032976D01*
X10512262Y-9232976D02*
X10512262Y-9099643D01*
X10512262Y-9118690D02*
X10521786Y-9109167D01*
X10540833Y-9099643D01*
X10569405Y-9099643D01*
X10588452Y-9109167D01*
X10597976Y-9128214D01*
X10597976Y-9232976D01*
X10597976Y-9128214D02*
X10607500Y-9109167D01*
X10626548Y-9099643D01*
X10655119Y-9099643D01*
X10674167Y-9109167D01*
X10683690Y-9128214D01*
X10683690Y-9232976D01*
X10778929Y-9232976D02*
X10778929Y-9099643D01*
X10778929Y-9118690D02*
X10788452Y-9109167D01*
X10807500Y-9099643D01*
X10836071Y-9099643D01*
X10855119Y-9109167D01*
X10864643Y-9128214D01*
X10864643Y-9232976D01*
X10864643Y-9128214D02*
X10874167Y-9109167D01*
X10893214Y-9099643D01*
X10921786Y-9099643D01*
X10940833Y-9109167D01*
X10950357Y-9128214D01*
X10950357Y-9232976D01*
X11340833Y-9023452D02*
X11169405Y-9280595D01*
X11597976Y-9032976D02*
X11617024Y-9032976D01*
X11636071Y-9042500D01*
X11645595Y-9052024D01*
X11655119Y-9071071D01*
X11664643Y-9109167D01*
X11664643Y-9156786D01*
X11655119Y-9194881D01*
X11645595Y-9213929D01*
X11636071Y-9223452D01*
X11617024Y-9232976D01*
X11597976Y-9232976D01*
X11578928Y-9223452D01*
X11569405Y-9213929D01*
X11559881Y-9194881D01*
X11550357Y-9156786D01*
X11550357Y-9109167D01*
X11559881Y-9071071D01*
X11569405Y-9052024D01*
X11578928Y-9042500D01*
X11597976Y-9032976D01*
X11750357Y-9213929D02*
X11759881Y-9223452D01*
X11750357Y-9232976D01*
X11740833Y-9223452D01*
X11750357Y-9213929D01*
X11750357Y-9232976D01*
X11883690Y-9032976D02*
X11902738Y-9032976D01*
X11921786Y-9042500D01*
X11931309Y-9052024D01*
X11940833Y-9071071D01*
X11950357Y-9109167D01*
X11950357Y-9156786D01*
X11940833Y-9194881D01*
X11931309Y-9213929D01*
X11921786Y-9223452D01*
X11902738Y-9232976D01*
X11883690Y-9232976D01*
X11864643Y-9223452D01*
X11855119Y-9213929D01*
X11845595Y-9194881D01*
X11836071Y-9156786D01*
X11836071Y-9109167D01*
X11845595Y-9071071D01*
X11855119Y-9052024D01*
X11864643Y-9042500D01*
X11883690Y-9032976D01*
X12017024Y-9032976D02*
X12140833Y-9032976D01*
X12074167Y-9109167D01*
X12102738Y-9109167D01*
X12121786Y-9118690D01*
X12131309Y-9128214D01*
X12140833Y-9147262D01*
X12140833Y-9194881D01*
X12131309Y-9213929D01*
X12121786Y-9223452D01*
X12102738Y-9232976D01*
X12045595Y-9232976D01*
X12026548Y-9223452D01*
X12017024Y-9213929D01*
X12331309Y-9232976D02*
X12217024Y-9232976D01*
X12274167Y-9232976D02*
X12274167Y-9032976D01*
X12255119Y-9061548D01*
X12236071Y-9080595D01*
X12217024Y-9090119D01*
X12512262Y-9032976D02*
X12417024Y-9032976D01*
X12407500Y-9128214D01*
X12417024Y-9118690D01*
X12436071Y-9109167D01*
X12483690Y-9109167D01*
X12502738Y-9118690D01*
X12512262Y-9128214D01*
X12521786Y-9147262D01*
X12521786Y-9194881D01*
X12512262Y-9213929D01*
X12502738Y-9223452D01*
X12483690Y-9232976D01*
X12436071Y-9232976D01*
X12417024Y-9223452D01*
X12407500Y-9213929D01*
X12597976Y-9032976D02*
X12597976Y-9071071D01*
X12674167Y-9032976D02*
X12674167Y-9071071D01*
X12969405Y-9309167D02*
X12959881Y-9299643D01*
X12940833Y-9271071D01*
X12931309Y-9252024D01*
X12921786Y-9223452D01*
X12912262Y-9175833D01*
X12912262Y-9137738D01*
X12921786Y-9090119D01*
X12931309Y-9061548D01*
X12940833Y-9042500D01*
X12959881Y-9013929D01*
X12969405Y-9004405D01*
X13036071Y-9052024D02*
X13045595Y-9042500D01*
X13064643Y-9032976D01*
X13112262Y-9032976D01*
X13131309Y-9042500D01*
X13140833Y-9052024D01*
X13150357Y-9071071D01*
X13150357Y-9090119D01*
X13140833Y-9118690D01*
X13026548Y-9232976D01*
X13150357Y-9232976D01*
X13388452Y-9232976D02*
X13388452Y-9032976D01*
X13474167Y-9232976D02*
X13474167Y-9128214D01*
X13464643Y-9109167D01*
X13445595Y-9099643D01*
X13417024Y-9099643D01*
X13397976Y-9109167D01*
X13388452Y-9118690D01*
X13597976Y-9232976D02*
X13578928Y-9223452D01*
X13569405Y-9213929D01*
X13559881Y-9194881D01*
X13559881Y-9137738D01*
X13569405Y-9118690D01*
X13578928Y-9109167D01*
X13597976Y-9099643D01*
X13626548Y-9099643D01*
X13645595Y-9109167D01*
X13655119Y-9118690D01*
X13664643Y-9137738D01*
X13664643Y-9194881D01*
X13655119Y-9213929D01*
X13645595Y-9223452D01*
X13626548Y-9232976D01*
X13597976Y-9232976D01*
X13778928Y-9232976D02*
X13759881Y-9223452D01*
X13750357Y-9204405D01*
X13750357Y-9032976D01*
X13931309Y-9223452D02*
X13912262Y-9232976D01*
X13874167Y-9232976D01*
X13855119Y-9223452D01*
X13845595Y-9204405D01*
X13845595Y-9128214D01*
X13855119Y-9109167D01*
X13874167Y-9099643D01*
X13912262Y-9099643D01*
X13931309Y-9109167D01*
X13940833Y-9128214D01*
X13940833Y-9147262D01*
X13845595Y-9166310D01*
X14017024Y-9223452D02*
X14036071Y-9232976D01*
X14074167Y-9232976D01*
X14093214Y-9223452D01*
X14102738Y-9204405D01*
X14102738Y-9194881D01*
X14093214Y-9175833D01*
X14074167Y-9166310D01*
X14045595Y-9166310D01*
X14026548Y-9156786D01*
X14017024Y-9137738D01*
X14017024Y-9128214D01*
X14026548Y-9109167D01*
X14045595Y-9099643D01*
X14074167Y-9099643D01*
X14093214Y-9109167D01*
X14169405Y-9309167D02*
X14178928Y-9299643D01*
X14197976Y-9271071D01*
X14207500Y-9252024D01*
X14217024Y-9223452D01*
X14226548Y-9175833D01*
X14226548Y-9137738D01*
X14217024Y-9090119D01*
X14207500Y-9061548D01*
X14197976Y-9042500D01*
X14178928Y-9013929D01*
X14169405Y-9004405D01*
X14531309Y-9309167D02*
X14521786Y-9299643D01*
X14502738Y-9271071D01*
X14493214Y-9252024D01*
X14483690Y-9223452D01*
X14474167Y-9175833D01*
X14474167Y-9137738D01*
X14483690Y-9090119D01*
X14493214Y-9061548D01*
X14502738Y-9042500D01*
X14521786Y-9013929D01*
X14531309Y-9004405D01*
X14607500Y-9099643D02*
X14607500Y-9232976D01*
X14607500Y-9118690D02*
X14617024Y-9109167D01*
X14636071Y-9099643D01*
X14664643Y-9099643D01*
X14683690Y-9109167D01*
X14693214Y-9128214D01*
X14693214Y-9232976D01*
X14817024Y-9232976D02*
X14797976Y-9223452D01*
X14788452Y-9213929D01*
X14778928Y-9194881D01*
X14778928Y-9137738D01*
X14788452Y-9118690D01*
X14797976Y-9109167D01*
X14817024Y-9099643D01*
X14845595Y-9099643D01*
X14864643Y-9109167D01*
X14874167Y-9118690D01*
X14883690Y-9137738D01*
X14883690Y-9194881D01*
X14874167Y-9213929D01*
X14864643Y-9223452D01*
X14845595Y-9232976D01*
X14817024Y-9232976D01*
X14940833Y-9099643D02*
X15017024Y-9099643D01*
X14969405Y-9032976D02*
X14969405Y-9204405D01*
X14978928Y-9223452D01*
X14997976Y-9232976D01*
X15017024Y-9232976D01*
X15236071Y-9099643D02*
X15236071Y-9299643D01*
X15236071Y-9109167D02*
X15255119Y-9099643D01*
X15293214Y-9099643D01*
X15312262Y-9109167D01*
X15321786Y-9118690D01*
X15331309Y-9137738D01*
X15331309Y-9194881D01*
X15321786Y-9213929D01*
X15312262Y-9223452D01*
X15293214Y-9232976D01*
X15255119Y-9232976D01*
X15236071Y-9223452D01*
X15445595Y-9232976D02*
X15426548Y-9223452D01*
X15417024Y-9204405D01*
X15417024Y-9032976D01*
X15607500Y-9232976D02*
X15607500Y-9128214D01*
X15597976Y-9109167D01*
X15578928Y-9099643D01*
X15540833Y-9099643D01*
X15521786Y-9109167D01*
X15607500Y-9223452D02*
X15588452Y-9232976D01*
X15540833Y-9232976D01*
X15521786Y-9223452D01*
X15512262Y-9204405D01*
X15512262Y-9185357D01*
X15521786Y-9166310D01*
X15540833Y-9156786D01*
X15588452Y-9156786D01*
X15607500Y-9147262D01*
X15674167Y-9099643D02*
X15750357Y-9099643D01*
X15702738Y-9032976D02*
X15702738Y-9204405D01*
X15712262Y-9223452D01*
X15731309Y-9232976D01*
X15750357Y-9232976D01*
X15893214Y-9223452D02*
X15874167Y-9232976D01*
X15836071Y-9232976D01*
X15817024Y-9223452D01*
X15807500Y-9204405D01*
X15807500Y-9128214D01*
X15817024Y-9109167D01*
X15836071Y-9099643D01*
X15874167Y-9099643D01*
X15893214Y-9109167D01*
X15902738Y-9128214D01*
X15902738Y-9147262D01*
X15807500Y-9166310D01*
X16074167Y-9232976D02*
X16074167Y-9032976D01*
X16074167Y-9223452D02*
X16055119Y-9232976D01*
X16017024Y-9232976D01*
X15997976Y-9223452D01*
X15988452Y-9213929D01*
X15978928Y-9194881D01*
X15978928Y-9137738D01*
X15988452Y-9118690D01*
X15997976Y-9109167D01*
X16017024Y-9099643D01*
X16055119Y-9099643D01*
X16074167Y-9109167D01*
X16150357Y-9309167D02*
X16159881Y-9299643D01*
X16178928Y-9271071D01*
X16188452Y-9252024D01*
X16197976Y-9223452D01*
X16207500Y-9175833D01*
X16207500Y-9137738D01*
X16197976Y-9090119D01*
X16188452Y-9061548D01*
X16178928Y-9042500D01*
X16159881Y-9013929D01*
X16150357Y-9004405D01*
M02*
