M48
; DRILL file {KiCad (6.0.9)} date Mon Dec  5 14:11:39 2022
; FORMAT={-:-/ absolute / inch / decimal}
; #@! TF.CreationDate,2022-12-05T14:11:39+01:00
; #@! TF.GenerationSoftware,Kicad,Pcbnew,(6.0.9)
; #@! TF.FileFunction,Plated,1,2,PTH
FMAT,2
INCH
; #@! TA.AperFunction,Plated,PTH,ComponentDrill
T1C0.0079
; #@! TA.AperFunction,Plated,PTH,ViaDrill
T2C0.0157
; #@! TA.AperFunction,Plated,PTH,ComponentDrill
T3C0.0217
; #@! TA.AperFunction,Plated,PTH,ComponentDrill
T4C0.0335
; #@! TA.AperFunction,Plated,PTH,ComponentDrill
T5C0.0472
%
G90
G05
T1
X4.2Y-2.5121
X4.2Y-2.5721
X4.23Y-2.4821
X4.23Y-2.5421
X4.23Y-2.6022
X4.26Y-2.5121
X4.26Y-2.5721
X4.2901Y-2.4821
X4.2901Y-2.5421
X4.2901Y-2.6022
X4.3201Y-2.5121
X4.3201Y-2.5721
X5.426Y-2.1659
X5.426Y-2.225
X5.426Y-2.2841
X5.485Y-2.1659
X5.485Y-2.225
X5.485Y-2.2841
T2
X4.0195Y-2.2539
X4.0551Y-2.4016
X4.0551Y-2.874
X4.0945Y-2.3317
X4.252Y-3.2283
X4.3307Y-2.7559
X4.3696Y-3.031
X4.3701Y-2.874
X4.4094Y-3.0315
X4.4882Y-2.5591
X4.5649Y-2.2519
X4.685Y-2.7559
X4.685Y-2.9134
X4.685Y-2.9921
X4.685Y-3.1496
X4.7244Y-2.2835
X4.7244Y-2.5591
X4.7638Y-2.874
X4.7638Y-2.9921
X4.8425Y-2.9134
X5.0Y-2.4803
X5.0374Y-2.6398
X5.0787Y-2.4803
X5.1969Y-2.2047
X5.2362Y-2.4409
X5.2362Y-2.7165
X5.2362Y-2.8346
X5.27Y-2.604
X5.2756Y-2.0079
X5.315Y-2.0866
X5.315Y-2.4016
X5.3937Y-2.7559
X5.3937Y-3.0709
X5.4223Y-2.6772
X5.5118Y-2.5591
X5.5118Y-2.7559
X5.5118Y-3.1496
X5.5906Y-2.4016
X5.5906Y-2.4803
X5.5906Y-2.874
X5.6299Y-2.1654
X5.6693Y-2.0472
X5.6693Y-2.4803
X5.6693Y-2.5984
X5.6693Y-2.6378
X5.6693Y-2.8346
X5.748Y-2.5984
T5
X5.7087Y-2.9921
X5.7087Y-3.1969
X5.7874Y-1.811
X5.7874Y-2.0079
X5.7874Y-2.1654
X5.7874Y-2.4803
X5.7874Y-2.6772
T3
G00X4.9266Y-1.9467
M15
G01X4.9266Y-1.9722
M16
G05
G00X5.2317Y-1.9467
M15
G01X5.2317Y-1.9722
M16
G05
T4
G00X4.9325Y-1.799
M15
G01X4.9325Y-1.8207
M16
G05
G00X5.2258Y-1.799
M15
G01X5.2258Y-1.8207
M16
G05
T0
M30
