M48
; DRILL file {KiCad (6.0.9)} date Wed Dec 21 18:39:35 2022
; FORMAT={-:-/ absolute / inch / decimal}
; #@! TF.CreationDate,2022-12-21T18:39:35+01:00
; #@! TF.GenerationSoftware,Kicad,Pcbnew,(6.0.9)
; #@! TF.FileFunction,Plated,1,2,PTH
FMAT,2
INCH
; #@! TA.AperFunction,Plated,PTH,ComponentDrill
T1C0.0079
; #@! TA.AperFunction,Plated,PTH,ViaDrill
T2C0.0157
; #@! TA.AperFunction,Plated,PTH,ComponentDrill
T3C0.0217
; #@! TA.AperFunction,Plated,PTH,ComponentDrill
T4C0.0335
; #@! TA.AperFunction,Plated,PTH,ComponentDrill
T5C0.0512
%
G90
G05
T1
X4.2Y-2.5121
X4.2Y-2.5721
X4.23Y-2.4821
X4.23Y-2.5421
X4.23Y-2.6022
X4.26Y-2.5121
X4.26Y-2.5721
X4.2901Y-2.4821
X4.2901Y-2.5421
X4.2901Y-2.6022
X4.3201Y-2.5121
X4.3201Y-2.5721
X5.0098Y-2.3425
X5.0098Y-2.4016
X5.0098Y-2.4606
X5.0689Y-2.3425
X5.0689Y-2.4016
X5.0689Y-2.4606
T2
X3.6614Y-2.5197
X3.6614Y-2.6378
X3.7008Y-2.4016
X3.7008Y-2.4803
X4.0195Y-2.2539
X4.0551Y-2.874
X4.0945Y-2.3317
X4.252Y-3.2283
X4.3307Y-2.7559
X4.3696Y-3.031
X4.3701Y-2.874
X4.4094Y-3.0315
X4.5649Y-2.2519
X4.5669Y-2.5197
X4.5669Y-2.5591
X4.5669Y-2.6378
X4.685Y-2.9134
X4.685Y-2.9921
X4.685Y-3.1496
X4.7244Y-2.6772
X4.7638Y-2.5197
X4.7638Y-2.9134
X4.8425Y-2.4803
X4.8425Y-2.7165
X4.8454Y-2.3651
X4.8819Y-2.2047
X4.9213Y-2.5591
X4.9606Y-2.9724
X5.0Y-2.5984
X5.0394Y-2.2047
X5.0689Y-2.9724
X5.0787Y-2.5591
X5.0984Y-2.6083
X5.1181Y-2.7657
X5.1772Y-2.7067
X5.1969Y-2.0472
X5.1969Y-2.874
X5.1969Y-3.1496
X5.2067Y-2.3819
X5.2165Y-2.4902
X5.2357Y-2.2839
X5.2362Y-2.2441
X5.2461Y-2.7264
X5.2657Y-2.9429
X5.2756Y-2.4803
X5.2953Y-2.4409
X5.315Y-2.2835
T5
X3.2283Y-2.0472
X3.2283Y-2.2441
X3.2283Y-2.4409
X3.2283Y-2.6378
X3.2283Y-2.8346
X3.2283Y-3.0315
X5.5632Y-2.1063
X5.5632Y-2.3031
X5.5632Y-2.5
X5.5632Y-2.6969
X5.5632Y-2.8937
X5.5632Y-3.0906
T3
G00X4.9384Y-1.7844
M15
G01X4.9384Y-1.7589
M16
G05
G00X5.2435Y-1.7844
M15
G01X5.2435Y-1.7589
M16
G05
T4
G00X4.9443Y-1.9321
M15
G01X4.9443Y-1.9104
M16
G05
G00X5.2376Y-1.9321
M15
G01X5.2376Y-1.9104
M16
G05
T0
M30
